<svg width="1538" height="920" viewBox="0 0 1538 964" fill="none" xmlns="http://www.w3.org/2000/svg">
<g filter="url(#filter0_f_250_47)">
<path d="M522.981 508.251L544.801 424.36L660.758 385.527L782.949 398.273C782.949 398.273 837.187 416.949 790.43 461.71C743.673 506.472 721.854 486.907 684.448 519.812C647.043 552.716 522.981 508.251 522.981 508.251Z" fill="#BF6B97"/>
</g>
<g filter="url(#filter1_f_250_47)">
<path d="M770.607 482.157C715.865 478.04 731.994 463.337 726.618 428.933C721.241 394.529 731.994 410.408 731.994 410.408L833.66 400.704L936.302 438.637L950.966 486.567C950.966 486.567 936.302 503.328 875.694 502.446C815.086 501.564 825.35 486.273 770.607 482.157Z" fill="#B26EAA"/>
</g>
<g filter="url(#filter2_f_250_47)">
<path d="M619.192 511.631C548.901 494.815 533.768 506.321 533.768 506.321L520.589 639.083L703.639 660.62C751.638 643.705 711.265 699.564 747.083 672.126C789.062 639.968 808.587 664.456 850.567 639.083C892.546 613.711 831.529 572.112 801.753 561.786C771.977 551.46 713.401 573.292 688.995 557.656C664.588 542.019 689.483 528.448 619.192 511.631Z" fill="#2B9BE0"/>
</g>
<g filter="url(#filter3_f_250_47)">
<path d="M888.875 501.35C914.734 485.168 967.428 498.996 967.428 498.996L927.42 693.473L725.428 679.939C725.428 679.939 738.601 623.744 758.605 599.618C778.609 575.492 796.662 574.021 824.96 565.195C853.258 556.368 863.016 517.532 888.875 501.35Z" fill="#F49B48"/>
</g>
<path d="M486.155 885.44H494.995L501.675 905.08H501.755L508.075 885.44H516.915V914H511.035V893.76H510.955L503.955 914H499.115L492.115 893.96H492.035V914H486.155V885.44ZM526.884 903.68C526.884 904.507 526.964 905.32 527.124 906.12C527.284 906.893 527.55 907.6 527.924 908.24C528.324 908.853 528.844 909.347 529.484 909.72C530.124 910.093 530.924 910.28 531.884 910.28C532.844 910.28 533.644 910.093 534.284 909.72C534.95 909.347 535.47 908.853 535.844 908.24C536.244 907.6 536.524 906.893 536.684 906.12C536.844 905.32 536.924 904.507 536.924 903.68C536.924 902.853 536.844 902.04 536.684 901.24C536.524 900.44 536.244 899.733 535.844 899.12C535.47 898.507 534.95 898.013 534.284 897.64C533.644 897.24 532.844 897.04 531.884 897.04C530.924 897.04 530.124 897.24 529.484 897.64C528.844 898.013 528.324 898.507 527.924 899.12C527.55 899.733 527.284 900.44 527.124 901.24C526.964 902.04 526.884 902.853 526.884 903.68ZM521.204 903.68C521.204 902.027 521.457 900.533 521.964 899.2C522.47 897.84 523.19 896.693 524.124 895.76C525.057 894.8 526.177 894.067 527.484 893.56C528.79 893.027 530.257 892.76 531.884 892.76C533.51 892.76 534.977 893.027 536.284 893.56C537.617 894.067 538.75 894.8 539.684 895.76C540.617 896.693 541.337 897.84 541.844 899.2C542.35 900.533 542.604 902.027 542.604 903.68C542.604 905.333 542.35 906.827 541.844 908.16C541.337 909.493 540.617 910.64 539.684 911.6C538.75 912.533 537.617 913.253 536.284 913.76C534.977 914.267 533.51 914.52 531.884 914.52C530.257 914.52 528.79 914.267 527.484 913.76C526.177 913.253 525.057 912.533 524.124 911.6C523.19 910.64 522.47 909.493 521.964 908.16C521.457 906.827 521.204 905.333 521.204 903.68ZM546.297 893.32H551.697V897.16H551.777C552.043 896.52 552.403 895.933 552.857 895.4C553.31 894.84 553.83 894.373 554.417 894C555.003 893.6 555.63 893.293 556.297 893.08C556.963 892.867 557.657 892.76 558.377 892.76C558.75 892.76 559.163 892.827 559.617 892.96V898.24C559.35 898.187 559.03 898.147 558.657 898.12C558.283 898.067 557.923 898.04 557.577 898.04C556.537 898.04 555.657 898.213 554.937 898.56C554.217 898.907 553.63 899.387 553.177 900C552.75 900.587 552.443 901.28 552.257 902.08C552.07 902.88 551.977 903.747 551.977 904.68V914H546.297V893.32ZM575.06 901.44C574.794 900 574.314 898.907 573.62 898.16C572.954 897.413 571.927 897.04 570.54 897.04C569.634 897.04 568.874 897.2 568.26 897.52C567.674 897.813 567.194 898.187 566.82 898.64C566.474 899.093 566.22 899.573 566.06 900.08C565.927 900.587 565.847 901.04 565.82 901.44H575.06ZM565.82 905.04C565.9 906.88 566.367 908.213 567.22 909.04C568.074 909.867 569.3 910.28 570.9 910.28C572.047 910.28 573.034 910 573.86 909.44C574.687 908.853 575.194 908.24 575.38 907.6H580.38C579.58 910.08 578.354 911.853 576.7 912.92C575.047 913.987 573.047 914.52 570.7 914.52C569.074 914.52 567.607 914.267 566.3 913.76C564.994 913.227 563.887 912.48 562.98 911.52C562.074 910.56 561.367 909.413 560.86 908.08C560.38 906.747 560.14 905.28 560.14 903.68C560.14 902.133 560.394 900.693 560.9 899.36C561.407 898.027 562.127 896.88 563.06 895.92C563.994 894.933 565.1 894.16 566.38 893.6C567.687 893.04 569.127 892.76 570.7 892.76C572.46 892.76 573.994 893.107 575.3 893.8C576.607 894.467 577.674 895.373 578.5 896.52C579.354 897.667 579.967 898.973 580.34 900.44C580.714 901.907 580.847 903.44 580.74 905.04H565.82ZM609.322 900.6C608.949 898.227 607.549 897.04 605.122 897.04C604.215 897.04 603.455 897.253 602.842 897.68C602.229 898.08 601.722 898.613 601.322 899.28C600.949 899.92 600.682 900.64 600.522 901.44C600.362 902.213 600.282 902.987 600.282 903.76C600.282 904.507 600.362 905.267 600.522 906.04C600.682 906.813 600.935 907.52 601.282 908.16C601.655 908.773 602.149 909.28 602.762 909.68C603.375 910.08 604.122 910.28 605.002 910.28C606.362 910.28 607.402 909.907 608.122 909.16C608.869 908.387 609.335 907.36 609.522 906.08H615.002C614.629 908.827 613.562 910.92 611.802 912.36C610.042 913.8 607.789 914.52 605.042 914.52C603.495 914.52 602.069 914.267 600.762 913.76C599.482 913.227 598.389 912.493 597.482 911.56C596.575 910.627 595.869 909.52 595.362 908.24C594.855 906.933 594.602 905.507 594.602 903.96C594.602 902.36 594.829 900.88 595.282 899.52C595.762 898.133 596.455 896.947 597.362 895.96C598.269 894.947 599.375 894.16 600.682 893.6C601.989 893.04 603.482 892.76 605.162 892.76C606.389 892.76 607.562 892.92 608.682 893.24C609.829 893.56 610.842 894.053 611.722 894.72C612.629 895.36 613.362 896.173 613.922 897.16C614.482 898.12 614.802 899.267 614.882 900.6H609.322ZM617.971 899.68C618.051 898.347 618.384 897.24 618.971 896.36C619.557 895.48 620.304 894.773 621.211 894.24C622.117 893.707 623.131 893.333 624.251 893.12C625.397 892.88 626.544 892.76 627.691 892.76C628.731 892.76 629.784 892.84 630.851 893C631.917 893.133 632.891 893.413 633.771 893.84C634.651 894.267 635.371 894.867 635.931 895.64C636.491 896.387 636.771 897.387 636.771 898.64V909.4C636.771 910.333 636.824 911.227 636.931 912.08C637.037 912.933 637.224 913.573 637.491 914H631.731C631.624 913.68 631.531 913.36 631.451 913.04C631.397 912.693 631.357 912.347 631.331 912C630.424 912.933 629.357 913.587 628.131 913.96C626.904 914.333 625.651 914.52 624.371 914.52C623.384 914.52 622.464 914.4 621.611 914.16C620.757 913.92 620.011 913.547 619.371 913.04C618.731 912.533 618.224 911.893 617.851 911.12C617.504 910.347 617.331 909.427 617.331 908.36C617.331 907.187 617.531 906.227 617.931 905.48C618.357 904.707 618.891 904.093 619.531 903.64C620.197 903.187 620.944 902.853 621.771 902.64C622.624 902.4 623.477 902.213 624.331 902.08C625.184 901.947 626.024 901.84 626.851 901.76C627.677 901.68 628.411 901.56 629.051 901.4C629.691 901.24 630.197 901.013 630.571 900.72C630.944 900.4 631.117 899.947 631.091 899.36C631.091 898.747 630.984 898.267 630.771 897.92C630.584 897.547 630.317 897.267 629.971 897.08C629.651 896.867 629.264 896.733 628.811 896.68C628.384 896.6 627.917 896.56 627.411 896.56C626.291 896.56 625.411 896.8 624.771 897.28C624.131 897.76 623.757 898.56 623.651 899.68H617.971ZM631.091 903.88C630.851 904.093 630.544 904.267 630.171 904.4C629.824 904.507 629.437 904.6 629.011 904.68C628.611 904.76 628.184 904.827 627.731 904.88C627.277 904.933 626.824 905 626.371 905.08C625.944 905.16 625.517 905.267 625.091 905.4C624.691 905.533 624.331 905.72 624.011 905.96C623.717 906.173 623.477 906.453 623.291 906.8C623.104 907.147 623.011 907.587 623.011 908.12C623.011 908.627 623.104 909.053 623.291 909.4C623.477 909.747 623.731 910.027 624.051 910.24C624.371 910.427 624.744 910.56 625.171 910.64C625.597 910.72 626.037 910.76 626.491 910.76C627.611 910.76 628.477 910.573 629.091 910.2C629.704 909.827 630.157 909.387 630.451 908.88C630.744 908.347 630.917 907.813 630.971 907.28C631.051 906.747 631.091 906.32 631.091 906V903.88ZM651.62 910.28C652.553 910.28 653.326 910.093 653.94 909.72C654.58 909.347 655.086 908.867 655.46 908.28C655.86 907.667 656.14 906.96 656.3 906.16C656.46 905.36 656.54 904.547 656.54 903.72C656.54 902.893 656.446 902.08 656.26 901.28C656.1 900.48 655.82 899.773 655.42 899.16C655.02 898.52 654.5 898.013 653.86 897.64C653.246 897.24 652.486 897.04 651.58 897.04C650.646 897.04 649.86 897.24 649.22 897.64C648.606 898.013 648.1 898.507 647.7 899.12C647.326 899.733 647.06 900.44 646.9 901.24C646.74 902.04 646.66 902.867 646.66 903.72C646.66 904.547 646.74 905.36 646.9 906.16C647.086 906.96 647.366 907.667 647.74 908.28C648.14 908.867 648.66 909.347 649.3 909.72C649.94 910.093 650.713 910.28 651.62 910.28ZM641.18 893.32H646.58V895.96H646.66C647.353 894.84 648.233 894.027 649.3 893.52C650.366 893.013 651.54 892.76 652.82 892.76C654.446 892.76 655.846 893.067 657.02 893.68C658.193 894.293 659.166 895.107 659.94 896.12C660.713 897.133 661.286 898.32 661.66 899.68C662.033 901.013 662.22 902.413 662.22 903.88C662.22 905.267 662.033 906.6 661.66 907.88C661.286 909.16 660.713 910.293 659.94 911.28C659.193 912.267 658.246 913.053 657.1 913.64C655.98 914.227 654.66 914.52 653.14 914.52C651.86 914.52 650.673 914.267 649.58 913.76C648.513 913.227 647.633 912.453 646.94 911.44H646.86V921.24H641.18V893.32ZM665.393 899.68C665.473 898.347 665.806 897.24 666.393 896.36C666.979 895.48 667.726 894.773 668.633 894.24C669.539 893.707 670.553 893.333 671.673 893.12C672.819 892.88 673.966 892.76 675.113 892.76C676.153 892.76 677.206 892.84 678.273 893C679.339 893.133 680.313 893.413 681.193 893.84C682.073 894.267 682.793 894.867 683.353 895.64C683.913 896.387 684.193 897.387 684.193 898.64V909.4C684.193 910.333 684.246 911.227 684.353 912.08C684.459 912.933 684.646 913.573 684.913 914H679.153C679.046 913.68 678.953 913.36 678.873 913.04C678.819 912.693 678.779 912.347 678.753 912C677.846 912.933 676.779 913.587 675.553 913.96C674.326 914.333 673.073 914.52 671.793 914.52C670.806 914.52 669.886 914.4 669.033 914.16C668.179 913.92 667.433 913.547 666.793 913.04C666.153 912.533 665.646 911.893 665.273 911.12C664.926 910.347 664.753 909.427 664.753 908.36C664.753 907.187 664.953 906.227 665.353 905.48C665.779 904.707 666.313 904.093 666.953 903.64C667.619 903.187 668.366 902.853 669.193 902.64C670.046 902.4 670.899 902.213 671.753 902.08C672.606 901.947 673.446 901.84 674.273 901.76C675.099 901.68 675.833 901.56 676.473 901.4C677.113 901.24 677.619 901.013 677.993 900.72C678.366 900.4 678.539 899.947 678.513 899.36C678.513 898.747 678.406 898.267 678.193 897.92C678.006 897.547 677.739 897.267 677.393 897.08C677.073 896.867 676.686 896.733 676.233 896.68C675.806 896.6 675.339 896.56 674.833 896.56C673.713 896.56 672.833 896.8 672.193 897.28C671.553 897.76 671.179 898.56 671.073 899.68H665.393ZM678.513 903.88C678.273 904.093 677.966 904.267 677.593 904.4C677.246 904.507 676.859 904.6 676.433 904.68C676.033 904.76 675.606 904.827 675.153 904.88C674.699 904.933 674.246 905 673.793 905.08C673.366 905.16 672.939 905.267 672.513 905.4C672.113 905.533 671.753 905.72 671.433 905.96C671.139 906.173 670.899 906.453 670.713 906.8C670.526 907.147 670.433 907.587 670.433 908.12C670.433 908.627 670.526 909.053 670.713 909.4C670.899 909.747 671.153 910.027 671.473 910.24C671.793 910.427 672.166 910.56 672.593 910.64C673.019 910.72 673.459 910.76 673.913 910.76C675.033 910.76 675.899 910.573 676.513 910.2C677.126 909.827 677.579 909.387 677.873 908.88C678.166 908.347 678.339 907.813 678.393 907.28C678.473 906.747 678.513 906.32 678.513 906V903.88ZM703.761 903.68C703.761 902.8 703.668 901.96 703.481 901.16C703.295 900.36 703.001 899.653 702.601 899.04C702.201 898.427 701.695 897.947 701.081 897.6C700.495 897.227 699.775 897.04 698.921 897.04C698.095 897.04 697.375 897.227 696.761 897.6C696.148 897.947 695.641 898.427 695.241 899.04C694.841 899.653 694.548 900.36 694.361 901.16C694.175 901.96 694.081 902.8 694.081 903.68C694.081 904.533 694.175 905.36 694.361 906.16C694.548 906.96 694.841 907.667 695.241 908.28C695.641 908.893 696.148 909.387 696.761 909.76C697.375 910.107 698.095 910.28 698.921 910.28C699.775 910.28 700.495 910.107 701.081 909.76C701.695 909.387 702.201 908.893 702.601 908.28C703.001 907.667 703.295 906.96 703.481 906.16C703.668 905.36 703.761 904.533 703.761 903.68ZM688.601 885.44H694.281V895.84H694.361C695.055 894.773 695.988 894 697.161 893.52C698.361 893.013 699.601 892.76 700.881 892.76C701.921 892.76 702.948 892.973 703.961 893.4C704.975 893.827 705.881 894.48 706.681 895.36C707.508 896.24 708.175 897.373 708.681 898.76C709.188 900.12 709.441 901.747 709.441 903.64C709.441 905.533 709.188 907.173 708.681 908.56C708.175 909.92 707.508 911.04 706.681 911.92C705.881 912.8 704.975 913.453 703.961 913.88C702.948 914.307 701.921 914.52 700.881 914.52C699.361 914.52 698.001 914.28 696.801 913.8C695.601 913.32 694.695 912.507 694.081 911.36H694.001V914H688.601V885.44ZM713.215 885.44H718.895V914H713.215V885.44ZM737.287 901.44C737.02 900 736.54 898.907 735.847 898.16C735.18 897.413 734.154 897.04 732.767 897.04C731.86 897.04 731.1 897.2 730.487 897.52C729.9 897.813 729.42 898.187 729.047 898.64C728.7 899.093 728.447 899.573 728.287 900.08C728.154 900.587 728.074 901.04 728.047 901.44H737.287ZM728.047 905.04C728.127 906.88 728.594 908.213 729.447 909.04C730.3 909.867 731.527 910.28 733.127 910.28C734.274 910.28 735.26 910 736.087 909.44C736.914 908.853 737.42 908.24 737.607 907.6H742.607C741.807 910.08 740.58 911.853 738.927 912.92C737.274 913.987 735.274 914.52 732.927 914.52C731.3 914.52 729.834 914.267 728.527 913.76C727.22 913.227 726.114 912.48 725.207 911.52C724.3 910.56 723.594 909.413 723.087 908.08C722.607 906.747 722.367 905.28 722.367 903.68C722.367 902.133 722.62 900.693 723.127 899.36C723.634 898.027 724.354 896.88 725.287 895.92C726.22 894.933 727.327 894.16 728.607 893.6C729.914 893.04 731.354 892.76 732.927 892.76C734.687 892.76 736.22 893.107 737.527 893.8C738.834 894.467 739.9 895.373 740.727 896.52C741.58 897.667 742.194 898.973 742.567 900.44C742.94 901.907 743.074 903.44 742.967 905.04H728.047ZM746.576 907.84H752.856V914H746.576V907.84ZM769.201 885.44H778.041L784.721 905.08H784.801L791.121 885.44H799.961V914H794.081V893.76H794.001L787.001 914H782.161L775.161 893.96H775.081V914H769.201V885.44ZM809.93 903.68C809.93 904.507 810.01 905.32 810.17 906.12C810.33 906.893 810.597 907.6 810.97 908.24C811.37 908.853 811.89 909.347 812.53 909.72C813.17 910.093 813.97 910.28 814.93 910.28C815.89 910.28 816.69 910.093 817.33 909.72C817.997 909.347 818.517 908.853 818.89 908.24C819.29 907.6 819.57 906.893 819.73 906.12C819.89 905.32 819.97 904.507 819.97 903.68C819.97 902.853 819.89 902.04 819.73 901.24C819.57 900.44 819.29 899.733 818.89 899.12C818.517 898.507 817.997 898.013 817.33 897.64C816.69 897.24 815.89 897.04 814.93 897.04C813.97 897.04 813.17 897.24 812.53 897.64C811.89 898.013 811.37 898.507 810.97 899.12C810.597 899.733 810.33 900.44 810.17 901.24C810.01 902.04 809.93 902.853 809.93 903.68ZM804.25 903.68C804.25 902.027 804.504 900.533 805.01 899.2C805.517 897.84 806.237 896.693 807.17 895.76C808.104 894.8 809.224 894.067 810.53 893.56C811.837 893.027 813.304 892.76 814.93 892.76C816.557 892.76 818.024 893.027 819.33 893.56C820.664 894.067 821.797 894.8 822.73 895.76C823.664 896.693 824.384 897.84 824.89 899.2C825.397 900.533 825.65 902.027 825.65 903.68C825.65 905.333 825.397 906.827 824.89 908.16C824.384 909.493 823.664 910.64 822.73 911.6C821.797 912.533 820.664 913.253 819.33 913.76C818.024 914.267 816.557 914.52 814.93 914.52C813.304 914.52 811.837 914.267 810.53 913.76C809.224 913.253 808.104 912.533 807.17 911.6C806.237 910.64 805.517 909.493 805.01 908.16C804.504 906.827 804.25 905.333 804.25 903.68ZM829.344 893.32H834.744V897.16H834.824C835.09 896.52 835.45 895.933 835.904 895.4C836.357 894.84 836.877 894.373 837.464 894C838.05 893.6 838.677 893.293 839.344 893.08C840.01 892.867 840.704 892.76 841.424 892.76C841.797 892.76 842.21 892.827 842.664 892.96V898.24C842.397 898.187 842.077 898.147 841.704 898.12C841.33 898.067 840.97 898.04 840.624 898.04C839.584 898.04 838.704 898.213 837.984 898.56C837.264 898.907 836.677 899.387 836.224 900C835.797 900.587 835.49 901.28 835.304 902.08C835.117 902.88 835.024 903.747 835.024 904.68V914H829.344V893.32ZM858.107 901.44C857.841 900 857.361 898.907 856.667 898.16C856.001 897.413 854.974 897.04 853.587 897.04C852.681 897.04 851.921 897.2 851.307 897.52C850.721 897.813 850.241 898.187 849.867 898.64C849.521 899.093 849.267 899.573 849.107 900.08C848.974 900.587 848.894 901.04 848.867 901.44H858.107ZM848.867 905.04C848.947 906.88 849.414 908.213 850.267 909.04C851.121 909.867 852.347 910.28 853.947 910.28C855.094 910.28 856.081 910 856.907 909.44C857.734 908.853 858.241 908.24 858.427 907.6H863.427C862.627 910.08 861.401 911.853 859.747 912.92C858.094 913.987 856.094 914.52 853.747 914.52C852.121 914.52 850.654 914.267 849.347 913.76C848.041 913.227 846.934 912.48 846.027 911.52C845.121 910.56 844.414 909.413 843.907 908.08C843.427 906.747 843.187 905.28 843.187 903.68C843.187 902.133 843.441 900.693 843.947 899.36C844.454 898.027 845.174 896.88 846.107 895.92C847.041 894.933 848.147 894.16 849.427 893.6C850.734 893.04 852.174 892.76 853.747 892.76C855.507 892.76 857.041 893.107 858.347 893.8C859.654 894.467 860.721 895.373 861.547 896.52C862.401 897.667 863.014 898.973 863.387 900.44C863.761 901.907 863.894 903.44 863.787 905.04H848.867ZM888.729 910.28C889.662 910.28 890.436 910.093 891.049 909.72C891.689 909.347 892.196 908.867 892.569 908.28C892.969 907.667 893.249 906.96 893.409 906.16C893.569 905.36 893.649 904.547 893.649 903.72C893.649 902.893 893.556 902.08 893.369 901.28C893.209 900.48 892.929 899.773 892.529 899.16C892.129 898.52 891.609 898.013 890.969 897.64C890.356 897.24 889.596 897.04 888.689 897.04C887.756 897.04 886.969 897.24 886.329 897.64C885.716 898.013 885.209 898.507 884.809 899.12C884.436 899.733 884.169 900.44 884.009 901.24C883.849 902.04 883.769 902.867 883.769 903.72C883.769 904.547 883.849 905.36 884.009 906.16C884.196 906.96 884.476 907.667 884.849 908.28C885.249 908.867 885.769 909.347 886.409 909.72C887.049 910.093 887.822 910.28 888.729 910.28ZM878.289 893.32H883.689V895.96H883.769C884.462 894.84 885.342 894.027 886.409 893.52C887.476 893.013 888.649 892.76 889.929 892.76C891.556 892.76 892.956 893.067 894.129 893.68C895.302 894.293 896.276 895.107 897.049 896.12C897.822 897.133 898.396 898.32 898.769 899.68C899.142 901.013 899.329 902.413 899.329 903.88C899.329 905.267 899.142 906.6 898.769 907.88C898.396 909.16 897.822 910.293 897.049 911.28C896.302 912.267 895.356 913.053 894.209 913.64C893.089 914.227 891.769 914.52 890.249 914.52C888.969 914.52 887.782 914.267 886.689 913.76C885.622 913.227 884.742 912.453 884.049 911.44H883.969V921.24H878.289V893.32ZM907.782 903.68C907.782 904.507 907.862 905.32 908.022 906.12C908.182 906.893 908.449 907.6 908.822 908.24C909.222 908.853 909.742 909.347 910.382 909.72C911.022 910.093 911.822 910.28 912.782 910.28C913.742 910.28 914.542 910.093 915.182 909.72C915.849 909.347 916.369 908.853 916.742 908.24C917.142 907.6 917.422 906.893 917.582 906.12C917.742 905.32 917.822 904.507 917.822 903.68C917.822 902.853 917.742 902.04 917.582 901.24C917.422 900.44 917.142 899.733 916.742 899.12C916.369 898.507 915.849 898.013 915.182 897.64C914.542 897.24 913.742 897.04 912.782 897.04C911.822 897.04 911.022 897.24 910.382 897.64C909.742 898.013 909.222 898.507 908.822 899.12C908.449 899.733 908.182 900.44 908.022 901.24C907.862 902.04 907.782 902.853 907.782 903.68ZM902.102 903.68C902.102 902.027 902.355 900.533 902.862 899.2C903.369 897.84 904.089 896.693 905.022 895.76C905.955 894.8 907.075 894.067 908.382 893.56C909.689 893.027 911.155 892.76 912.782 892.76C914.409 892.76 915.875 893.027 917.182 893.56C918.515 894.067 919.649 894.8 920.582 895.76C921.515 896.693 922.235 897.84 922.742 899.2C923.249 900.533 923.502 902.027 923.502 903.68C923.502 905.333 923.249 906.827 922.742 908.16C922.235 909.493 921.515 910.64 920.582 911.6C919.649 912.533 918.515 913.253 917.182 913.76C915.875 914.267 914.409 914.52 912.782 914.52C911.155 914.52 909.689 914.267 908.382 913.76C907.075 913.253 905.955 912.533 905.022 911.6C904.089 910.64 903.369 909.493 902.862 908.16C902.355 906.827 902.102 905.333 902.102 903.68ZM950.835 914H944.995L941.315 900.12H941.235L937.715 914H931.835L925.275 893.32H931.275L935.075 907.36H935.155L938.595 893.32H944.115L947.635 907.32H947.715L951.515 893.32H957.355L950.835 914ZM973.693 901.44C973.427 900 972.947 898.907 972.253 898.16C971.587 897.413 970.56 897.04 969.173 897.04C968.267 897.04 967.507 897.2 966.893 897.52C966.307 897.813 965.827 898.187 965.453 898.64C965.107 899.093 964.853 899.573 964.693 900.08C964.56 900.587 964.48 901.04 964.453 901.44H973.693ZM964.453 905.04C964.533 906.88 965 908.213 965.853 909.04C966.707 909.867 967.933 910.28 969.533 910.28C970.68 910.28 971.667 910 972.493 909.44C973.32 908.853 973.827 908.24 974.013 907.6H979.013C978.213 910.08 976.987 911.853 975.333 912.92C973.68 913.987 971.68 914.52 969.333 914.52C967.707 914.52 966.24 914.267 964.933 913.76C963.627 913.227 962.52 912.48 961.613 911.52C960.707 910.56 960 909.413 959.493 908.08C959.013 906.747 958.773 905.28 958.773 903.68C958.773 902.133 959.027 900.693 959.533 899.36C960.04 898.027 960.76 896.88 961.693 895.92C962.627 894.933 963.733 894.16 965.013 893.6C966.32 893.04 967.76 892.76 969.333 892.76C971.093 892.76 972.627 893.107 973.933 893.8C975.24 894.467 976.307 895.373 977.133 896.52C977.987 897.667 978.6 898.973 978.973 900.44C979.347 901.907 979.48 903.44 979.373 905.04H964.453ZM982.742 893.32H988.142V897.16H988.222C988.489 896.52 988.849 895.933 989.302 895.4C989.755 894.84 990.275 894.373 990.862 894C991.449 893.6 992.075 893.293 992.742 893.08C993.409 892.867 994.102 892.76 994.822 892.76C995.195 892.76 995.609 892.827 996.062 892.96V898.24C995.795 898.187 995.475 898.147 995.102 898.12C994.729 898.067 994.369 898.04 994.022 898.04C992.982 898.04 992.102 898.213 991.382 898.56C990.662 898.907 990.075 899.387 989.622 900C989.195 900.587 988.889 901.28 988.702 902.08C988.515 902.88 988.422 903.747 988.422 904.68V914H982.742V893.32ZM999.529 897.12H996.129V893.32H999.529V891.72C999.529 889.88 1000.1 888.373 1001.25 887.2C1002.4 886.027 1004.13 885.44 1006.45 885.44C1006.96 885.44 1007.46 885.467 1007.97 885.52C1008.48 885.547 1008.97 885.573 1009.45 885.6V889.84C1008.78 889.76 1008.09 889.72 1007.37 889.72C1006.6 889.72 1006.04 889.907 1005.69 890.28C1005.37 890.627 1005.21 891.227 1005.21 892.08V893.32H1009.13V897.12H1005.21V914H999.529V897.12ZM1031.01 914H1025.61V911.12H1025.49C1024.77 912.32 1023.84 913.187 1022.69 913.72C1021.54 914.253 1020.37 914.52 1019.17 914.52C1017.65 914.52 1016.4 914.32 1015.41 913.92C1014.45 913.52 1013.69 912.96 1013.13 912.24C1012.57 911.493 1012.17 910.6 1011.93 909.56C1011.72 908.493 1011.61 907.32 1011.61 906.04V893.32H1017.29V905C1017.29 906.707 1017.56 907.987 1018.09 908.84C1018.62 909.667 1019.57 910.08 1020.93 910.08C1022.48 910.08 1023.6 909.627 1024.29 908.72C1024.98 907.787 1025.33 906.267 1025.33 904.16V893.32H1031.01V914ZM1035.48 885.44H1041.16V914H1035.48V885.44ZM1045.87 907.84H1052.15V914H1045.87V907.84Z" fill="black"/>
<path d="M574.3 812.2C574.3 810 574.067 807.9 573.6 805.9C573.133 803.9 572.4 802.133 571.4 800.6C570.4 799.067 569.133 797.867 567.6 797C566.133 796.067 564.333 795.6 562.2 795.6C560.133 795.6 558.333 796.067 556.8 797C555.267 797.867 554 799.067 553 800.6C552 802.133 551.267 803.9 550.8 805.9C550.333 807.9 550.1 810 550.1 812.2C550.1 814.333 550.333 816.4 550.8 818.4C551.267 820.4 552 822.167 553 823.7C554 825.233 555.267 826.467 556.8 827.4C558.333 828.267 560.133 828.7 562.2 828.7C564.333 828.7 566.133 828.267 567.6 827.4C569.133 826.467 570.4 825.233 571.4 823.7C572.4 822.167 573.133 820.4 573.6 818.4C574.067 816.4 574.3 814.333 574.3 812.2ZM536.4 766.6H550.6V792.6H550.8C552.533 789.933 554.867 788 557.8 786.8C560.8 785.533 563.9 784.9 567.1 784.9C569.7 784.9 572.267 785.433 574.8 786.5C577.333 787.567 579.6 789.2 581.6 791.4C583.667 793.6 585.333 796.433 586.6 799.9C587.867 803.3 588.5 807.367 588.5 812.1C588.5 816.833 587.867 820.933 586.6 824.4C585.333 827.8 583.667 830.6 581.6 832.8C579.6 835 577.333 836.633 574.8 837.7C572.267 838.767 569.7 839.3 567.1 839.3C563.3 839.3 559.9 838.7 556.9 837.5C553.9 836.3 551.633 834.267 550.1 831.4H549.9V838H536.4V766.6ZM596.933 802.2C597.133 798.867 597.966 796.1 599.433 793.9C600.899 791.7 602.766 789.933 605.033 788.6C607.299 787.267 609.833 786.333 612.633 785.8C615.499 785.2 618.366 784.9 621.233 784.9C623.833 784.9 626.466 785.1 629.133 785.5C631.799 785.833 634.233 786.533 636.433 787.6C638.633 788.667 640.433 790.167 641.833 792.1C643.233 793.967 643.933 796.467 643.933 799.6V826.5C643.933 828.833 644.066 831.067 644.333 833.2C644.599 835.333 645.066 836.933 645.733 838H631.333C631.066 837.2 630.833 836.4 630.633 835.6C630.499 834.733 630.399 833.867 630.333 833C628.066 835.333 625.399 836.967 622.333 837.9C619.266 838.833 616.133 839.3 612.933 839.3C610.466 839.3 608.166 839 606.033 838.4C603.899 837.8 602.033 836.867 600.433 835.6C598.833 834.333 597.566 832.733 596.633 830.8C595.766 828.867 595.333 826.567 595.333 823.9C595.333 820.967 595.833 818.567 596.833 816.7C597.899 814.767 599.233 813.233 600.833 812.1C602.499 810.967 604.366 810.133 606.433 809.6C608.566 809 610.699 808.533 612.833 808.2C614.966 807.867 617.066 807.6 619.133 807.4C621.199 807.2 623.033 806.9 624.633 806.5C626.233 806.1 627.499 805.533 628.433 804.8C629.366 804 629.799 802.867 629.733 801.4C629.733 799.867 629.466 798.667 628.933 797.8C628.466 796.867 627.799 796.167 626.933 795.7C626.133 795.167 625.166 794.833 624.033 794.7C622.966 794.5 621.799 794.4 620.533 794.4C617.733 794.4 615.533 795 613.933 796.2C612.333 797.4 611.399 799.4 611.133 802.2H596.933ZM629.733 812.7C629.133 813.233 628.366 813.667 627.433 814C626.566 814.267 625.599 814.5 624.533 814.7C623.533 814.9 622.466 815.067 621.333 815.2C620.199 815.333 619.066 815.5 617.933 815.7C616.866 815.9 615.799 816.167 614.733 816.5C613.733 816.833 612.833 817.3 612.033 817.9C611.299 818.433 610.699 819.133 610.233 820C609.766 820.867 609.533 821.967 609.533 823.3C609.533 824.567 609.766 825.633 610.233 826.5C610.699 827.367 611.333 828.067 612.133 828.6C612.933 829.067 613.866 829.4 614.933 829.6C615.999 829.8 617.099 829.9 618.233 829.9C621.033 829.9 623.199 829.433 624.733 828.5C626.266 827.567 627.399 826.467 628.133 825.2C628.866 823.867 629.299 822.533 629.433 821.2C629.633 819.867 629.733 818.8 629.733 818V812.7ZM654.955 786.3H668.455V795.9H668.655C669.321 794.3 670.221 792.833 671.355 791.5C672.488 790.1 673.788 788.933 675.255 788C676.721 787 678.288 786.233 679.955 785.7C681.621 785.167 683.355 784.9 685.155 784.9C686.088 784.9 687.121 785.067 688.255 785.4V798.6C687.588 798.467 686.788 798.367 685.855 798.3C684.921 798.167 684.021 798.1 683.155 798.1C680.555 798.1 678.355 798.533 676.555 799.4C674.755 800.267 673.288 801.467 672.155 803C671.088 804.467 670.321 806.2 669.855 808.2C669.388 810.2 669.155 812.367 669.155 814.7V838H654.955V786.3ZM728.764 812C728.764 809.867 728.564 807.833 728.164 805.9C727.764 803.9 727.064 802.167 726.064 800.7C725.131 799.167 723.897 797.933 722.364 797C720.831 796.067 718.897 795.6 716.564 795.6C714.231 795.6 712.264 796.067 710.664 797C709.064 797.933 707.764 799.167 706.764 800.7C705.831 802.233 705.131 804 704.664 806C704.264 807.933 704.064 809.967 704.064 812.1C704.064 814.1 704.297 816.1 704.764 818.1C705.231 820.1 705.964 821.9 706.964 823.5C708.031 825.033 709.331 826.3 710.864 827.3C712.464 828.233 714.364 828.7 716.564 828.7C718.897 828.7 720.831 828.233 722.364 827.3C723.964 826.367 725.231 825.133 726.164 823.6C727.097 822 727.764 820.2 728.164 818.2C728.564 816.2 728.764 814.133 728.764 812ZM728.964 831.4H728.764C727.097 834.2 724.897 836.233 722.164 837.5C719.497 838.7 716.464 839.3 713.064 839.3C709.197 839.3 705.797 838.567 702.864 837.1C699.931 835.567 697.497 833.533 695.564 831C693.697 828.4 692.264 825.433 691.264 822.1C690.331 818.767 689.864 815.3 689.864 811.7C689.864 808.233 690.331 804.9 691.264 801.7C692.264 798.433 693.697 795.567 695.564 793.1C697.497 790.633 699.897 788.667 702.764 787.2C705.631 785.667 708.964 784.9 712.764 784.9C715.831 784.9 718.731 785.567 721.464 786.9C724.264 788.167 726.464 790.067 728.064 792.6H728.264V766.6H742.464V838H728.964V831.4ZM753.097 804.6H783.197V816.8H753.097V804.6ZM793.32 802.2C793.52 798.867 794.353 796.1 795.82 793.9C797.286 791.7 799.153 789.933 801.42 788.6C803.686 787.267 806.22 786.333 809.02 785.8C811.886 785.2 814.753 784.9 817.62 784.9C820.22 784.9 822.853 785.1 825.52 785.5C828.186 785.833 830.62 786.533 832.82 787.6C835.02 788.667 836.82 790.167 838.22 792.1C839.62 793.967 840.32 796.467 840.32 799.6V826.5C840.32 828.833 840.453 831.067 840.72 833.2C840.986 835.333 841.453 836.933 842.12 838H827.72C827.453 837.2 827.22 836.4 827.02 835.6C826.886 834.733 826.786 833.867 826.72 833C824.453 835.333 821.786 836.967 818.72 837.9C815.653 838.833 812.52 839.3 809.32 839.3C806.853 839.3 804.553 839 802.42 838.4C800.286 837.8 798.42 836.867 796.82 835.6C795.22 834.333 793.953 832.733 793.02 830.8C792.153 828.867 791.72 826.567 791.72 823.9C791.72 820.967 792.22 818.567 793.22 816.7C794.286 814.767 795.62 813.233 797.22 812.1C798.886 810.967 800.753 810.133 802.82 809.6C804.953 809 807.086 808.533 809.22 808.2C811.353 807.867 813.453 807.6 815.52 807.4C817.586 807.2 819.42 806.9 821.02 806.5C822.62 806.1 823.886 805.533 824.82 804.8C825.753 804 826.186 802.867 826.12 801.4C826.12 799.867 825.853 798.667 825.32 797.8C824.853 796.867 824.186 796.167 823.32 795.7C822.52 795.167 821.553 794.833 820.42 794.7C819.353 794.5 818.186 794.4 816.92 794.4C814.12 794.4 811.92 795 810.32 796.2C808.72 797.4 807.786 799.4 807.52 802.2H793.32ZM826.12 812.7C825.52 813.233 824.753 813.667 823.82 814C822.953 814.267 821.986 814.5 820.92 814.7C819.92 814.9 818.853 815.067 817.72 815.2C816.586 815.333 815.453 815.5 814.32 815.7C813.253 815.9 812.186 816.167 811.12 816.5C810.12 816.833 809.22 817.3 808.42 817.9C807.686 818.433 807.086 819.133 806.62 820C806.153 820.867 805.92 821.967 805.92 823.3C805.92 824.567 806.153 825.633 806.62 826.5C807.086 827.367 807.72 828.067 808.52 828.6C809.32 829.067 810.253 829.4 811.32 829.6C812.386 829.8 813.486 829.9 814.62 829.9C817.42 829.9 819.586 829.433 821.12 828.5C822.653 827.567 823.786 826.467 824.52 825.2C825.253 823.867 825.686 822.533 825.82 821.2C826.02 819.867 826.12 818.8 826.12 818V812.7ZM865.941 778.3H851.741V766.6H865.941V778.3ZM851.741 786.3H865.941V838H851.741V786.3Z" fill="black"/>
<path d="M923 838H907.2L889.5 786.3H904.4L915.3 821.6H915.5L926.4 786.3H940.5L923 838ZM944.653 794.9C944.52 790.9 944.986 787.2 946.053 783.8C947.12 780.333 948.72 777.333 950.853 774.8C952.986 772.2 955.653 770.2 958.853 768.8C962.12 767.333 965.853 766.6 970.053 766.6C973.253 766.6 976.286 767.1 979.153 768.1C982.086 769.1 984.653 770.533 986.853 772.4C989.053 774.267 990.786 776.567 992.053 779.3C993.386 782.033 994.053 785.1 994.053 788.5C994.053 792.033 993.486 795.067 992.353 797.6C991.22 800.133 989.72 802.4 987.853 804.4C985.986 806.333 983.853 808.1 981.453 809.7C979.12 811.3 976.753 812.9 974.353 814.5C971.953 816.033 969.62 817.7 967.353 819.5C965.086 821.3 963.086 823.4 961.353 825.8H994.453V838H943.053C943.053 833.933 943.62 830.4 944.753 827.4C945.953 824.4 947.553 821.733 949.553 819.4C951.553 817 953.886 814.8 956.553 812.8C959.286 810.8 962.153 808.767 965.153 806.7C966.686 805.633 968.32 804.567 970.053 803.5C971.786 802.367 973.353 801.133 974.753 799.8C976.22 798.467 977.42 796.967 978.353 795.3C979.353 793.633 979.853 791.733 979.853 789.6C979.853 786.2 978.853 783.567 976.853 781.7C974.92 779.767 972.42 778.8 969.353 778.8C967.286 778.8 965.52 779.3 964.053 780.3C962.653 781.233 961.52 782.5 960.653 784.1C959.786 785.633 959.153 787.367 958.753 789.3C958.42 791.167 958.253 793.033 958.253 794.9H944.653Z" fill="url(#paint0_radial_250_47)"/>
<rect x="580.108" y="370" width="327.786" height="339" rx="128" fill="url(#paint1_radial_250_47)"/>
<g filter="url(#filter4_i_250_47)">
<rect x="594.772" y="385.527" width="298.458" height="307.947" rx="128" fill="url(#paint2_linear_250_47)"/>
</g>
<g clip-path="url(#clip0_250_47)">
<g filter="url(#filter5_d_250_47)">
<path d="M739.995 572.597L732.322 590.173C729.372 596.929 720.023 596.929 717.073 590.173L709.399 572.597C702.57 556.956 690.278 544.506 674.946 537.7L653.824 528.324C647.108 525.343 647.108 515.574 653.824 512.593L674.286 503.51C690.013 496.529 702.525 483.617 709.238 467.442L717.011 448.712C719.896 441.761 729.499 441.761 732.384 448.712L740.157 467.442C746.87 483.617 759.382 496.529 775.109 503.51L795.571 512.593C802.287 515.574 802.287 525.343 795.571 528.324L774.449 537.7C759.117 544.506 746.825 556.956 739.995 572.597Z" fill="url(#paint3_radial_250_47)"/>
</g>
<g filter="url(#filter6_d_250_47)">
<path d="M811.31 628.017L809.152 632.963C807.572 636.584 802.558 636.584 800.979 632.963L798.821 628.017C794.974 619.198 788.045 612.176 779.399 608.335L772.75 605.381C769.154 603.784 769.154 598.557 772.75 596.96L779.027 594.171C787.895 590.231 794.949 582.949 798.729 573.831L800.946 568.486C802.49 564.761 807.64 564.761 809.185 568.486L811.401 573.831C815.182 582.949 822.235 590.231 831.104 594.171L837.381 596.96C840.977 598.557 840.977 603.784 837.381 605.381L830.732 608.335C822.086 612.176 815.157 619.198 811.31 628.017Z" fill="url(#paint4_radial_250_47)"/>
</g>
</g>
<defs>
<filter id="filter0_f_250_47" x="322.981" y="185.527" width="686.453" height="546.415" filterUnits="userSpaceOnUse" color-interpolation-filters="sRGB">
<feFlood flood-opacity="0" result="BackgroundImageFix"/>
<feBlend mode="normal" in="SourceGraphic" in2="BackgroundImageFix" result="shape"/>
<feGaussianBlur stdDeviation="100" result="effect1_foregroundBlur_250_47"/>
</filter>
<filter id="filter1_f_250_47" x="525.112" y="200.704" width="625.853" height="501.776" filterUnits="userSpaceOnUse" color-interpolation-filters="sRGB">
<feFlood flood-opacity="0" result="BackgroundImageFix"/>
<feBlend mode="normal" in="SourceGraphic" in2="BackgroundImageFix" result="shape"/>
<feGaussianBlur stdDeviation="100" result="effect1_foregroundBlur_250_47"/>
</filter>
<filter id="filter2_f_250_47" x="320.589" y="302.48" width="744.262" height="577.364" filterUnits="userSpaceOnUse" color-interpolation-filters="sRGB">
<feFlood flood-opacity="0" result="BackgroundImageFix"/>
<feBlend mode="normal" in="SourceGraphic" in2="BackgroundImageFix" result="shape"/>
<feGaussianBlur stdDeviation="100" result="effect1_foregroundBlur_250_47"/>
</filter>
<filter id="filter3_f_250_47" x="525.428" y="293.492" width="642" height="599.981" filterUnits="userSpaceOnUse" color-interpolation-filters="sRGB">
<feFlood flood-opacity="0" result="BackgroundImageFix"/>
<feBlend mode="normal" in="SourceGraphic" in2="BackgroundImageFix" result="shape"/>
<feGaussianBlur stdDeviation="100" result="effect1_foregroundBlur_250_47"/>
</filter>
<filter id="filter4_i_250_47" x="594.772" y="385.527" width="298.458" height="311.947" filterUnits="userSpaceOnUse" color-interpolation-filters="sRGB">
<feFlood flood-opacity="0" result="BackgroundImageFix"/>
<feBlend mode="normal" in="SourceGraphic" in2="BackgroundImageFix" result="shape"/>
<feColorMatrix in="SourceAlpha" type="matrix" values="0 0 0 0 0 0 0 0 0 0 0 0 0 0 0 0 0 0 127 0" result="hardAlpha"/>
<feOffset dy="4"/>
<feGaussianBlur stdDeviation="5"/>
<feComposite in2="hardAlpha" operator="arithmetic" k2="-1" k3="1"/>
<feColorMatrix type="matrix" values="0 0 0 0 0 0 0 0 0 0 0 0 0 0 0 0 0 0 0.25 0"/>
<feBlend mode="normal" in2="shape" result="effect1_innerShadow_250_47"/>
</filter>
<filter id="filter5_d_250_47" x="644.787" y="439.499" width="159.821" height="159.741" filterUnits="userSpaceOnUse" color-interpolation-filters="sRGB">
<feFlood flood-opacity="0" result="BackgroundImageFix"/>
<feColorMatrix in="SourceAlpha" type="matrix" values="0 0 0 0 0 0 0 0 0 0 0 0 0 0 0 0 0 0 127 0" result="hardAlpha"/>
<feOffset/>
<feGaussianBlur stdDeviation="2"/>
<feComposite in2="hardAlpha" operator="out"/>
<feColorMatrix type="matrix" values="0 0 0 0 0 0 0 0 0 0 0 0 0 0 0 0 0 0 0.25 0"/>
<feBlend mode="normal" in2="BackgroundImageFix" result="effect1_dropShadow_250_47"/>
<feBlend mode="normal" in="SourceGraphic" in2="effect1_dropShadow_250_47" result="shape"/>
</filter>
<filter id="filter6_d_250_47" x="766.053" y="561.692" width="78.0249" height="77.987" filterUnits="userSpaceOnUse" color-interpolation-filters="sRGB">
<feFlood flood-opacity="0" result="BackgroundImageFix"/>
<feColorMatrix in="SourceAlpha" type="matrix" values="0 0 0 0 0 0 0 0 0 0 0 0 0 0 0 0 0 0 127 0" result="hardAlpha"/>
<feOffset/>
<feGaussianBlur stdDeviation="2"/>
<feComposite in2="hardAlpha" operator="out"/>
<feColorMatrix type="matrix" values="0 0 0 0 0 0 0 0 0 0 0 0 0 0 0 0 0 0 0.25 0"/>
<feBlend mode="normal" in2="BackgroundImageFix" result="effect1_dropShadow_250_47"/>
<feBlend mode="normal" in="SourceGraphic" in2="effect1_dropShadow_250_47" result="shape"/>
</filter>
<radialGradient id="paint0_radial_250_47" cx="0" cy="0" r="1" gradientUnits="userSpaceOnUse" gradientTransform="translate(889 757.5) rotate(45.7004) scale(144.614 248.943)">
<stop stop-color="#1BA1E3"/>
<stop offset="0.0001" stop-color="#1BA1E3"/>
<stop offset="0.300221" stop-color="#5489D6"/>
<stop offset="0.545524" stop-color="#9B72CB"/>
<stop offset="0.825372" stop-color="#D96570"/>
<stop offset="1" stop-color="#F49C46"/>
</radialGradient>
<radialGradient id="paint1_radial_250_47" cx="0" cy="0" r="1" gradientUnits="userSpaceOnUse" gradientTransform="translate(568.935 186.198) rotate(79.2234) scale(573.432 555.807)">
<stop stop-color="#1BA1E3"/>
<stop offset="0.0001" stop-color="#1BA1E3"/>
<stop offset="0.300221" stop-color="#5489D6"/>
<stop offset="0.545524" stop-color="#9B72CB"/>
<stop offset="0.825372" stop-color="#D96570"/>
<stop offset="1" stop-color="#F49C46"/>
</radialGradient>
<linearGradient id="paint2_linear_250_47" x1="594.772" y1="385.527" x2="902.568" y2="683.839" gradientUnits="userSpaceOnUse">
<stop stop-color="white"/>
<stop offset="1" stop-color="#E3E3E3"/>
</linearGradient>
<radialGradient id="paint3_radial_250_47" cx="0" cy="0" r="1" gradientUnits="userSpaceOnUse" gradientTransform="translate(767.666 527.746) rotate(78.858) scale(118.532 118.59)">
<stop stop-color="#1BA1E3"/>
<stop offset="0.0001" stop-color="#1BA1E3"/>
<stop offset="0.300221" stop-color="#5489D6"/>
<stop offset="0.545524" stop-color="#9B72CB"/>
<stop offset="0.825372" stop-color="#D96570"/>
<stop offset="1" stop-color="#F49C46"/>
</radialGradient>
<radialGradient id="paint4_radial_250_47" cx="0" cy="0" r="1" gradientUnits="userSpaceOnUse" gradientTransform="translate(767.666 527.746) rotate(78.858) scale(118.532 118.59)">
<stop stop-color="#1BA1E3"/>
<stop offset="0.0001" stop-color="#1BA1E3"/>
<stop offset="0.300221" stop-color="#5489D6"/>
<stop offset="0.545524" stop-color="#9B72CB"/>
<stop offset="0.825372" stop-color="#D96570"/>
<stop offset="1" stop-color="#F49C46"/>
</radialGradient>
<clipPath id="clip0_250_47">
<rect width="192.359" height="192.359" fill="white" transform="translate(648.253 443.321)"/>
</clipPath>
</defs>
</svg>
