<svg width="1538" height="725" viewBox="0 0 1538 725" fill="none" xmlns="http://www.w3.org/2000/svg">
<g clip-path="url(#clip0_268_3)">
<rect width="1538" height="725" fill="white"/>
<g filter="url(#filter0_f_268_3)">
<path d="M570.152 267.391L589.779 191.93L694.083 157L803.995 168.466C803.995 168.466 852.782 185.264 810.724 225.528C768.666 265.791 749.039 248.193 715.393 277.79C681.746 307.388 570.152 267.391 570.152 267.391Z" fill="#BF6B97"/>
</g>
<g filter="url(#filter1_f_268_3)">
<path d="M792.893 243.919C743.652 240.216 758.161 226.991 753.324 196.044C748.488 165.097 758.161 179.381 758.161 179.381L849.609 170.652L941.937 204.773L955.127 247.887C955.127 247.887 941.937 262.963 887.42 262.17C832.902 261.376 842.135 247.622 792.893 243.919Z" fill="#B26EAA"/>
</g>
<g filter="url(#filter2_f_268_3)">
<path d="M656.694 270.432C593.467 255.305 579.855 265.655 579.855 265.655L568 385.076L732.655 404.449C775.831 389.234 739.515 439.479 771.733 414.798C809.493 385.872 827.056 407.899 864.817 385.076C902.578 362.253 847.693 324.835 820.909 315.547C794.126 306.258 741.436 325.896 719.482 311.831C697.528 297.766 719.921 285.559 656.694 270.432Z" fill="#2B9BE0"/>
</g>
<g filter="url(#filter3_f_268_3)">
<path d="M899.276 261.184C922.536 246.628 969.934 259.066 969.934 259.066L933.947 434L752.254 421.826C752.254 421.826 764.103 371.278 782.097 349.577C800.091 327.875 816.329 326.552 841.784 318.613C867.238 310.673 876.016 275.739 899.276 261.184Z" fill="#F49B48"/>
</g>
<path d="M486.155 646.44H494.995L501.675 666.08H501.755L508.075 646.44H516.915V675H511.035V654.76H510.955L503.955 675H499.115L492.115 654.96H492.035V675H486.155V646.44ZM526.884 664.68C526.884 665.507 526.964 666.32 527.124 667.12C527.284 667.893 527.55 668.6 527.924 669.24C528.324 669.853 528.844 670.347 529.484 670.72C530.124 671.093 530.924 671.28 531.884 671.28C532.844 671.28 533.644 671.093 534.284 670.72C534.95 670.347 535.47 669.853 535.844 669.24C536.244 668.6 536.524 667.893 536.684 667.12C536.844 666.32 536.924 665.507 536.924 664.68C536.924 663.853 536.844 663.04 536.684 662.24C536.524 661.44 536.244 660.733 535.844 660.12C535.47 659.507 534.95 659.013 534.284 658.64C533.644 658.24 532.844 658.04 531.884 658.04C530.924 658.04 530.124 658.24 529.484 658.64C528.844 659.013 528.324 659.507 527.924 660.12C527.55 660.733 527.284 661.44 527.124 662.24C526.964 663.04 526.884 663.853 526.884 664.68ZM521.204 664.68C521.204 663.027 521.457 661.533 521.964 660.2C522.47 658.84 523.19 657.693 524.124 656.76C525.057 655.8 526.177 655.067 527.484 654.56C528.79 654.027 530.257 653.76 531.884 653.76C533.51 653.76 534.977 654.027 536.284 654.56C537.617 655.067 538.75 655.8 539.684 656.76C540.617 657.693 541.337 658.84 541.844 660.2C542.35 661.533 542.604 663.027 542.604 664.68C542.604 666.333 542.35 667.827 541.844 669.16C541.337 670.493 540.617 671.64 539.684 672.6C538.75 673.533 537.617 674.253 536.284 674.76C534.977 675.267 533.51 675.52 531.884 675.52C530.257 675.52 528.79 675.267 527.484 674.76C526.177 674.253 525.057 673.533 524.124 672.6C523.19 671.64 522.47 670.493 521.964 669.16C521.457 667.827 521.204 666.333 521.204 664.68ZM546.297 654.32H551.697V658.16H551.777C552.043 657.52 552.403 656.933 552.857 656.4C553.31 655.84 553.83 655.373 554.417 655C555.003 654.6 555.63 654.293 556.297 654.08C556.963 653.867 557.657 653.76 558.377 653.76C558.75 653.76 559.163 653.827 559.617 653.96V659.24C559.35 659.187 559.03 659.147 558.657 659.12C558.283 659.067 557.923 659.04 557.577 659.04C556.537 659.04 555.657 659.213 554.937 659.56C554.217 659.907 553.63 660.387 553.177 661C552.75 661.587 552.443 662.28 552.257 663.08C552.07 663.88 551.977 664.747 551.977 665.68V675H546.297V654.32ZM575.06 662.44C574.794 661 574.314 659.907 573.62 659.16C572.954 658.413 571.927 658.04 570.54 658.04C569.634 658.04 568.874 658.2 568.26 658.52C567.674 658.813 567.194 659.187 566.82 659.64C566.474 660.093 566.22 660.573 566.06 661.08C565.927 661.587 565.847 662.04 565.82 662.44H575.06ZM565.82 666.04C565.9 667.88 566.367 669.213 567.22 670.04C568.074 670.867 569.3 671.28 570.9 671.28C572.047 671.28 573.034 671 573.86 670.44C574.687 669.853 575.194 669.24 575.38 668.6H580.38C579.58 671.08 578.354 672.853 576.7 673.92C575.047 674.987 573.047 675.52 570.7 675.52C569.074 675.52 567.607 675.267 566.3 674.76C564.994 674.227 563.887 673.48 562.98 672.52C562.074 671.56 561.367 670.413 560.86 669.08C560.38 667.747 560.14 666.28 560.14 664.68C560.14 663.133 560.394 661.693 560.9 660.36C561.407 659.027 562.127 657.88 563.06 656.92C563.994 655.933 565.1 655.16 566.38 654.6C567.687 654.04 569.127 653.76 570.7 653.76C572.46 653.76 573.994 654.107 575.3 654.8C576.607 655.467 577.674 656.373 578.5 657.52C579.354 658.667 579.967 659.973 580.34 661.44C580.714 662.907 580.847 664.44 580.74 666.04H565.82ZM609.322 661.6C608.949 659.227 607.549 658.04 605.122 658.04C604.215 658.04 603.455 658.253 602.842 658.68C602.229 659.08 601.722 659.613 601.322 660.28C600.949 660.92 600.682 661.64 600.522 662.44C600.362 663.213 600.282 663.987 600.282 664.76C600.282 665.507 600.362 666.267 600.522 667.04C600.682 667.813 600.935 668.52 601.282 669.16C601.655 669.773 602.149 670.28 602.762 670.68C603.375 671.08 604.122 671.28 605.002 671.28C606.362 671.28 607.402 670.907 608.122 670.16C608.869 669.387 609.335 668.36 609.522 667.08H615.002C614.629 669.827 613.562 671.92 611.802 673.36C610.042 674.8 607.789 675.52 605.042 675.52C603.495 675.52 602.069 675.267 600.762 674.76C599.482 674.227 598.389 673.493 597.482 672.56C596.575 671.627 595.869 670.52 595.362 669.24C594.855 667.933 594.602 666.507 594.602 664.96C594.602 663.36 594.829 661.88 595.282 660.52C595.762 659.133 596.455 657.947 597.362 656.96C598.269 655.947 599.375 655.16 600.682 654.6C601.989 654.04 603.482 653.76 605.162 653.76C606.389 653.76 607.562 653.92 608.682 654.24C609.829 654.56 610.842 655.053 611.722 655.72C612.629 656.36 613.362 657.173 613.922 658.16C614.482 659.12 614.802 660.267 614.882 661.6H609.322ZM617.971 660.68C618.051 659.347 618.384 658.24 618.971 657.36C619.557 656.48 620.304 655.773 621.211 655.24C622.117 654.707 623.131 654.333 624.251 654.12C625.397 653.88 626.544 653.76 627.691 653.76C628.731 653.76 629.784 653.84 630.851 654C631.917 654.133 632.891 654.413 633.771 654.84C634.651 655.267 635.371 655.867 635.931 656.64C636.491 657.387 636.771 658.387 636.771 659.64V670.4C636.771 671.333 636.824 672.227 636.931 673.08C637.037 673.933 637.224 674.573 637.491 675H631.731C631.624 674.68 631.531 674.36 631.451 674.04C631.397 673.693 631.357 673.347 631.331 673C630.424 673.933 629.357 674.587 628.131 674.96C626.904 675.333 625.651 675.52 624.371 675.52C623.384 675.52 622.464 675.4 621.611 675.16C620.757 674.92 620.011 674.547 619.371 674.04C618.731 673.533 618.224 672.893 617.851 672.12C617.504 671.347 617.331 670.427 617.331 669.36C617.331 668.187 617.531 667.227 617.931 666.48C618.357 665.707 618.891 665.093 619.531 664.64C620.197 664.187 620.944 663.853 621.771 663.64C622.624 663.4 623.477 663.213 624.331 663.08C625.184 662.947 626.024 662.84 626.851 662.76C627.677 662.68 628.411 662.56 629.051 662.4C629.691 662.24 630.197 662.013 630.571 661.72C630.944 661.4 631.117 660.947 631.091 660.36C631.091 659.747 630.984 659.267 630.771 658.92C630.584 658.547 630.317 658.267 629.971 658.08C629.651 657.867 629.264 657.733 628.811 657.68C628.384 657.6 627.917 657.56 627.411 657.56C626.291 657.56 625.411 657.8 624.771 658.28C624.131 658.76 623.757 659.56 623.651 660.68H617.971ZM631.091 664.88C630.851 665.093 630.544 665.267 630.171 665.4C629.824 665.507 629.437 665.6 629.011 665.68C628.611 665.76 628.184 665.827 627.731 665.88C627.277 665.933 626.824 666 626.371 666.08C625.944 666.16 625.517 666.267 625.091 666.4C624.691 666.533 624.331 666.72 624.011 666.96C623.717 667.173 623.477 667.453 623.291 667.8C623.104 668.147 623.011 668.587 623.011 669.12C623.011 669.627 623.104 670.053 623.291 670.4C623.477 670.747 623.731 671.027 624.051 671.24C624.371 671.427 624.744 671.56 625.171 671.64C625.597 671.72 626.037 671.76 626.491 671.76C627.611 671.76 628.477 671.573 629.091 671.2C629.704 670.827 630.157 670.387 630.451 669.88C630.744 669.347 630.917 668.813 630.971 668.28C631.051 667.747 631.091 667.32 631.091 667V664.88ZM651.62 671.28C652.553 671.28 653.326 671.093 653.94 670.72C654.58 670.347 655.086 669.867 655.46 669.28C655.86 668.667 656.14 667.96 656.3 667.16C656.46 666.36 656.54 665.547 656.54 664.72C656.54 663.893 656.446 663.08 656.26 662.28C656.1 661.48 655.82 660.773 655.42 660.16C655.02 659.52 654.5 659.013 653.86 658.64C653.246 658.24 652.486 658.04 651.58 658.04C650.646 658.04 649.86 658.24 649.22 658.64C648.606 659.013 648.1 659.507 647.7 660.12C647.326 660.733 647.06 661.44 646.9 662.24C646.74 663.04 646.66 663.867 646.66 664.72C646.66 665.547 646.74 666.36 646.9 667.16C647.086 667.96 647.366 668.667 647.74 669.28C648.14 669.867 648.66 670.347 649.3 670.72C649.94 671.093 650.713 671.28 651.62 671.28ZM641.18 654.32H646.58V656.96H646.66C647.353 655.84 648.233 655.027 649.3 654.52C650.366 654.013 651.54 653.76 652.82 653.76C654.446 653.76 655.846 654.067 657.02 654.68C658.193 655.293 659.166 656.107 659.94 657.12C660.713 658.133 661.286 659.32 661.66 660.68C662.033 662.013 662.22 663.413 662.22 664.88C662.22 666.267 662.033 667.6 661.66 668.88C661.286 670.16 660.713 671.293 659.94 672.28C659.193 673.267 658.246 674.053 657.1 674.64C655.98 675.227 654.66 675.52 653.14 675.52C651.86 675.52 650.673 675.267 649.58 674.76C648.513 674.227 647.633 673.453 646.94 672.44H646.86V682.24H641.18V654.32ZM665.393 660.68C665.473 659.347 665.806 658.24 666.393 657.36C666.979 656.48 667.726 655.773 668.633 655.24C669.539 654.707 670.553 654.333 671.673 654.12C672.819 653.88 673.966 653.76 675.113 653.76C676.153 653.76 677.206 653.84 678.273 654C679.339 654.133 680.313 654.413 681.193 654.84C682.073 655.267 682.793 655.867 683.353 656.64C683.913 657.387 684.193 658.387 684.193 659.64V670.4C684.193 671.333 684.246 672.227 684.353 673.08C684.459 673.933 684.646 674.573 684.913 675H679.153C679.046 674.68 678.953 674.36 678.873 674.04C678.819 673.693 678.779 673.347 678.753 673C677.846 673.933 676.779 674.587 675.553 674.96C674.326 675.333 673.073 675.52 671.793 675.52C670.806 675.52 669.886 675.4 669.033 675.16C668.179 674.92 667.433 674.547 666.793 674.04C666.153 673.533 665.646 672.893 665.273 672.12C664.926 671.347 664.753 670.427 664.753 669.36C664.753 668.187 664.953 667.227 665.353 666.48C665.779 665.707 666.313 665.093 666.953 664.64C667.619 664.187 668.366 663.853 669.193 663.64C670.046 663.4 670.899 663.213 671.753 663.08C672.606 662.947 673.446 662.84 674.273 662.76C675.099 662.68 675.833 662.56 676.473 662.4C677.113 662.24 677.619 662.013 677.993 661.72C678.366 661.4 678.539 660.947 678.513 660.36C678.513 659.747 678.406 659.267 678.193 658.92C678.006 658.547 677.739 658.267 677.393 658.08C677.073 657.867 676.686 657.733 676.233 657.68C675.806 657.6 675.339 657.56 674.833 657.56C673.713 657.56 672.833 657.8 672.193 658.28C671.553 658.76 671.179 659.56 671.073 660.68H665.393ZM678.513 664.88C678.273 665.093 677.966 665.267 677.593 665.4C677.246 665.507 676.859 665.6 676.433 665.68C676.033 665.76 675.606 665.827 675.153 665.88C674.699 665.933 674.246 666 673.793 666.08C673.366 666.16 672.939 666.267 672.513 666.4C672.113 666.533 671.753 666.72 671.433 666.96C671.139 667.173 670.899 667.453 670.713 667.8C670.526 668.147 670.433 668.587 670.433 669.12C670.433 669.627 670.526 670.053 670.713 670.4C670.899 670.747 671.153 671.027 671.473 671.24C671.793 671.427 672.166 671.56 672.593 671.64C673.019 671.72 673.459 671.76 673.913 671.76C675.033 671.76 675.899 671.573 676.513 671.2C677.126 670.827 677.579 670.387 677.873 669.88C678.166 669.347 678.339 668.813 678.393 668.28C678.473 667.747 678.513 667.32 678.513 667V664.88ZM703.761 664.68C703.761 663.8 703.668 662.96 703.481 662.16C703.295 661.36 703.001 660.653 702.601 660.04C702.201 659.427 701.695 658.947 701.081 658.6C700.495 658.227 699.775 658.04 698.921 658.04C698.095 658.04 697.375 658.227 696.761 658.6C696.148 658.947 695.641 659.427 695.241 660.04C694.841 660.653 694.548 661.36 694.361 662.16C694.175 662.96 694.081 663.8 694.081 664.68C694.081 665.533 694.175 666.36 694.361 667.16C694.548 667.96 694.841 668.667 695.241 669.28C695.641 669.893 696.148 670.387 696.761 670.76C697.375 671.107 698.095 671.28 698.921 671.28C699.775 671.28 700.495 671.107 701.081 670.76C701.695 670.387 702.201 669.893 702.601 669.28C703.001 668.667 703.295 667.96 703.481 667.16C703.668 666.36 703.761 665.533 703.761 664.68ZM688.601 646.44H694.281V656.84H694.361C695.055 655.773 695.988 655 697.161 654.52C698.361 654.013 699.601 653.76 700.881 653.76C701.921 653.76 702.948 653.973 703.961 654.4C704.975 654.827 705.881 655.48 706.681 656.36C707.508 657.24 708.175 658.373 708.681 659.76C709.188 661.12 709.441 662.747 709.441 664.64C709.441 666.533 709.188 668.173 708.681 669.56C708.175 670.92 707.508 672.04 706.681 672.92C705.881 673.8 704.975 674.453 703.961 674.88C702.948 675.307 701.921 675.52 700.881 675.52C699.361 675.52 698.001 675.28 696.801 674.8C695.601 674.32 694.695 673.507 694.081 672.36H694.001V675H688.601V646.44ZM713.215 646.44H718.895V675H713.215V646.44ZM737.287 662.44C737.02 661 736.54 659.907 735.847 659.16C735.18 658.413 734.154 658.04 732.767 658.04C731.86 658.04 731.1 658.2 730.487 658.52C729.9 658.813 729.42 659.187 729.047 659.64C728.7 660.093 728.447 660.573 728.287 661.08C728.154 661.587 728.074 662.04 728.047 662.44H737.287ZM728.047 666.04C728.127 667.88 728.594 669.213 729.447 670.04C730.3 670.867 731.527 671.28 733.127 671.28C734.274 671.28 735.26 671 736.087 670.44C736.914 669.853 737.42 669.24 737.607 668.6H742.607C741.807 671.08 740.58 672.853 738.927 673.92C737.274 674.987 735.274 675.52 732.927 675.52C731.3 675.52 729.834 675.267 728.527 674.76C727.22 674.227 726.114 673.48 725.207 672.52C724.3 671.56 723.594 670.413 723.087 669.08C722.607 667.747 722.367 666.28 722.367 664.68C722.367 663.133 722.62 661.693 723.127 660.36C723.634 659.027 724.354 657.88 725.287 656.92C726.22 655.933 727.327 655.16 728.607 654.6C729.914 654.04 731.354 653.76 732.927 653.76C734.687 653.76 736.22 654.107 737.527 654.8C738.834 655.467 739.9 656.373 740.727 657.52C741.58 658.667 742.194 659.973 742.567 661.44C742.94 662.907 743.074 664.44 742.967 666.04H728.047ZM746.576 668.84H752.856V675H746.576V668.84ZM769.201 646.44H778.041L784.721 666.08H784.801L791.121 646.44H799.961V675H794.081V654.76H794.001L787.001 675H782.161L775.161 654.96H775.081V675H769.201V646.44ZM809.93 664.68C809.93 665.507 810.01 666.32 810.17 667.12C810.33 667.893 810.597 668.6 810.97 669.24C811.37 669.853 811.89 670.347 812.53 670.72C813.17 671.093 813.97 671.28 814.93 671.28C815.89 671.28 816.69 671.093 817.33 670.72C817.997 670.347 818.517 669.853 818.89 669.24C819.29 668.6 819.57 667.893 819.73 667.12C819.89 666.32 819.97 665.507 819.97 664.68C819.97 663.853 819.89 663.04 819.73 662.24C819.57 661.44 819.29 660.733 818.89 660.12C818.517 659.507 817.997 659.013 817.33 658.64C816.69 658.24 815.89 658.04 814.93 658.04C813.97 658.04 813.17 658.24 812.53 658.64C811.89 659.013 811.37 659.507 810.97 660.12C810.597 660.733 810.33 661.44 810.17 662.24C810.01 663.04 809.93 663.853 809.93 664.68ZM804.25 664.68C804.25 663.027 804.504 661.533 805.01 660.2C805.517 658.84 806.237 657.693 807.17 656.76C808.104 655.8 809.224 655.067 810.53 654.56C811.837 654.027 813.304 653.76 814.93 653.76C816.557 653.76 818.024 654.027 819.33 654.56C820.664 655.067 821.797 655.8 822.73 656.76C823.664 657.693 824.384 658.84 824.89 660.2C825.397 661.533 825.65 663.027 825.65 664.68C825.65 666.333 825.397 667.827 824.89 669.16C824.384 670.493 823.664 671.64 822.73 672.6C821.797 673.533 820.664 674.253 819.33 674.76C818.024 675.267 816.557 675.52 814.93 675.52C813.304 675.52 811.837 675.267 810.53 674.76C809.224 674.253 808.104 673.533 807.17 672.6C806.237 671.64 805.517 670.493 805.01 669.16C804.504 667.827 804.25 666.333 804.25 664.68ZM829.344 654.32H834.744V658.16H834.824C835.09 657.52 835.45 656.933 835.904 656.4C836.357 655.84 836.877 655.373 837.464 655C838.05 654.6 838.677 654.293 839.344 654.08C840.01 653.867 840.704 653.76 841.424 653.76C841.797 653.76 842.21 653.827 842.664 653.96V659.24C842.397 659.187 842.077 659.147 841.704 659.12C841.33 659.067 840.97 659.04 840.624 659.04C839.584 659.04 838.704 659.213 837.984 659.56C837.264 659.907 836.677 660.387 836.224 661C835.797 661.587 835.49 662.28 835.304 663.08C835.117 663.88 835.024 664.747 835.024 665.68V675H829.344V654.32ZM858.107 662.44C857.841 661 857.361 659.907 856.667 659.16C856.001 658.413 854.974 658.04 853.587 658.04C852.681 658.04 851.921 658.2 851.307 658.52C850.721 658.813 850.241 659.187 849.867 659.64C849.521 660.093 849.267 660.573 849.107 661.08C848.974 661.587 848.894 662.04 848.867 662.44H858.107ZM848.867 666.04C848.947 667.88 849.414 669.213 850.267 670.04C851.121 670.867 852.347 671.28 853.947 671.28C855.094 671.28 856.081 671 856.907 670.44C857.734 669.853 858.241 669.24 858.427 668.6H863.427C862.627 671.08 861.401 672.853 859.747 673.92C858.094 674.987 856.094 675.52 853.747 675.52C852.121 675.52 850.654 675.267 849.347 674.76C848.041 674.227 846.934 673.48 846.027 672.52C845.121 671.56 844.414 670.413 843.907 669.08C843.427 667.747 843.187 666.28 843.187 664.68C843.187 663.133 843.441 661.693 843.947 660.36C844.454 659.027 845.174 657.88 846.107 656.92C847.041 655.933 848.147 655.16 849.427 654.6C850.734 654.04 852.174 653.76 853.747 653.76C855.507 653.76 857.041 654.107 858.347 654.8C859.654 655.467 860.721 656.373 861.547 657.52C862.401 658.667 863.014 659.973 863.387 661.44C863.761 662.907 863.894 664.44 863.787 666.04H848.867ZM888.729 671.28C889.662 671.28 890.436 671.093 891.049 670.72C891.689 670.347 892.196 669.867 892.569 669.28C892.969 668.667 893.249 667.96 893.409 667.16C893.569 666.36 893.649 665.547 893.649 664.72C893.649 663.893 893.556 663.08 893.369 662.28C893.209 661.48 892.929 660.773 892.529 660.16C892.129 659.52 891.609 659.013 890.969 658.64C890.356 658.24 889.596 658.04 888.689 658.04C887.756 658.04 886.969 658.24 886.329 658.64C885.716 659.013 885.209 659.507 884.809 660.12C884.436 660.733 884.169 661.44 884.009 662.24C883.849 663.04 883.769 663.867 883.769 664.72C883.769 665.547 883.849 666.36 884.009 667.16C884.196 667.96 884.476 668.667 884.849 669.28C885.249 669.867 885.769 670.347 886.409 670.72C887.049 671.093 887.822 671.28 888.729 671.28ZM878.289 654.32H883.689V656.96H883.769C884.462 655.84 885.342 655.027 886.409 654.52C887.476 654.013 888.649 653.76 889.929 653.76C891.556 653.76 892.956 654.067 894.129 654.68C895.302 655.293 896.276 656.107 897.049 657.12C897.822 658.133 898.396 659.32 898.769 660.68C899.142 662.013 899.329 663.413 899.329 664.88C899.329 666.267 899.142 667.6 898.769 668.88C898.396 670.16 897.822 671.293 897.049 672.28C896.302 673.267 895.356 674.053 894.209 674.64C893.089 675.227 891.769 675.52 890.249 675.52C888.969 675.52 887.782 675.267 886.689 674.76C885.622 674.227 884.742 673.453 884.049 672.44H883.969V682.24H878.289V654.32ZM907.782 664.68C907.782 665.507 907.862 666.32 908.022 667.12C908.182 667.893 908.449 668.6 908.822 669.24C909.222 669.853 909.742 670.347 910.382 670.72C911.022 671.093 911.822 671.28 912.782 671.28C913.742 671.28 914.542 671.093 915.182 670.72C915.849 670.347 916.369 669.853 916.742 669.24C917.142 668.6 917.422 667.893 917.582 667.12C917.742 666.32 917.822 665.507 917.822 664.68C917.822 663.853 917.742 663.04 917.582 662.24C917.422 661.44 917.142 660.733 916.742 660.12C916.369 659.507 915.849 659.013 915.182 658.64C914.542 658.24 913.742 658.04 912.782 658.04C911.822 658.04 911.022 658.24 910.382 658.64C909.742 659.013 909.222 659.507 908.822 660.12C908.449 660.733 908.182 661.44 908.022 662.24C907.862 663.04 907.782 663.853 907.782 664.68ZM902.102 664.68C902.102 663.027 902.355 661.533 902.862 660.2C903.369 658.84 904.089 657.693 905.022 656.76C905.955 655.8 907.075 655.067 908.382 654.56C909.689 654.027 911.155 653.76 912.782 653.76C914.409 653.76 915.875 654.027 917.182 654.56C918.515 655.067 919.649 655.8 920.582 656.76C921.515 657.693 922.235 658.84 922.742 660.2C923.249 661.533 923.502 663.027 923.502 664.68C923.502 666.333 923.249 667.827 922.742 669.16C922.235 670.493 921.515 671.64 920.582 672.6C919.649 673.533 918.515 674.253 917.182 674.76C915.875 675.267 914.409 675.52 912.782 675.52C911.155 675.52 909.689 675.267 908.382 674.76C907.075 674.253 905.955 673.533 905.022 672.6C904.089 671.64 903.369 670.493 902.862 669.16C902.355 667.827 902.102 666.333 902.102 664.68ZM950.835 675H944.995L941.315 661.12H941.235L937.715 675H931.835L925.275 654.32H931.275L935.075 668.36H935.155L938.595 654.32H944.115L947.635 668.32H947.715L951.515 654.32H957.355L950.835 675ZM973.693 662.44C973.427 661 972.947 659.907 972.253 659.16C971.587 658.413 970.56 658.04 969.173 658.04C968.267 658.04 967.507 658.2 966.893 658.52C966.307 658.813 965.827 659.187 965.453 659.64C965.107 660.093 964.853 660.573 964.693 661.08C964.56 661.587 964.48 662.04 964.453 662.44H973.693ZM964.453 666.04C964.533 667.88 965 669.213 965.853 670.04C966.707 670.867 967.933 671.28 969.533 671.28C970.68 671.28 971.667 671 972.493 670.44C973.32 669.853 973.827 669.24 974.013 668.6H979.013C978.213 671.08 976.987 672.853 975.333 673.92C973.68 674.987 971.68 675.52 969.333 675.52C967.707 675.52 966.24 675.267 964.933 674.76C963.627 674.227 962.52 673.48 961.613 672.52C960.707 671.56 960 670.413 959.493 669.08C959.013 667.747 958.773 666.28 958.773 664.68C958.773 663.133 959.027 661.693 959.533 660.36C960.04 659.027 960.76 657.88 961.693 656.92C962.627 655.933 963.733 655.16 965.013 654.6C966.32 654.04 967.76 653.76 969.333 653.76C971.093 653.76 972.627 654.107 973.933 654.8C975.24 655.467 976.307 656.373 977.133 657.52C977.987 658.667 978.6 659.973 978.973 661.44C979.347 662.907 979.48 664.44 979.373 666.04H964.453ZM982.742 654.32H988.142V658.16H988.222C988.489 657.52 988.849 656.933 989.302 656.4C989.755 655.84 990.275 655.373 990.862 655C991.449 654.6 992.075 654.293 992.742 654.08C993.409 653.867 994.102 653.76 994.822 653.76C995.195 653.76 995.609 653.827 996.062 653.96V659.24C995.795 659.187 995.475 659.147 995.102 659.12C994.729 659.067 994.369 659.04 994.022 659.04C992.982 659.04 992.102 659.213 991.382 659.56C990.662 659.907 990.075 660.387 989.622 661C989.195 661.587 988.889 662.28 988.702 663.08C988.515 663.88 988.422 664.747 988.422 665.68V675H982.742V654.32ZM999.529 658.12H996.129V654.32H999.529V652.72C999.529 650.88 1000.1 649.373 1001.25 648.2C1002.4 647.027 1004.13 646.44 1006.45 646.44C1006.96 646.44 1007.46 646.467 1007.97 646.52C1008.48 646.547 1008.97 646.573 1009.45 646.6V650.84C1008.78 650.76 1008.09 650.72 1007.37 650.72C1006.6 650.72 1006.04 650.907 1005.69 651.28C1005.37 651.627 1005.21 652.227 1005.21 653.08V654.32H1009.13V658.12H1005.21V675H999.529V658.12ZM1031.01 675H1025.61V672.12H1025.49C1024.77 673.32 1023.84 674.187 1022.69 674.72C1021.54 675.253 1020.37 675.52 1019.17 675.52C1017.65 675.52 1016.4 675.32 1015.41 674.92C1014.45 674.52 1013.69 673.96 1013.13 673.24C1012.57 672.493 1012.17 671.6 1011.93 670.56C1011.72 669.493 1011.61 668.32 1011.61 667.04V654.32H1017.29V666C1017.29 667.707 1017.56 668.987 1018.09 669.84C1018.62 670.667 1019.57 671.08 1020.93 671.08C1022.48 671.08 1023.6 670.627 1024.29 669.72C1024.98 668.787 1025.33 667.267 1025.33 665.16V654.32H1031.01V675ZM1035.48 646.44H1041.16V675H1035.48V646.44ZM1045.87 668.84H1052.15V675H1045.87V668.84Z" fill="black"/>
<path d="M579.3 573.2C579.3 571 579.067 568.9 578.6 566.9C578.133 564.9 577.4 563.133 576.4 561.6C575.4 560.067 574.133 558.867 572.6 558C571.133 557.067 569.333 556.6 567.2 556.6C565.133 556.6 563.333 557.067 561.8 558C560.267 558.867 559 560.067 558 561.6C557 563.133 556.267 564.9 555.8 566.9C555.333 568.9 555.1 571 555.1 573.2C555.1 575.333 555.333 577.4 555.8 579.4C556.267 581.4 557 583.167 558 584.7C559 586.233 560.267 587.467 561.8 588.4C563.333 589.267 565.133 589.7 567.2 589.7C569.333 589.7 571.133 589.267 572.6 588.4C574.133 587.467 575.4 586.233 576.4 584.7C577.4 583.167 578.133 581.4 578.6 579.4C579.067 577.4 579.3 575.333 579.3 573.2ZM541.4 527.6H555.6V553.6H555.8C557.533 550.933 559.867 549 562.8 547.8C565.8 546.533 568.9 545.9 572.1 545.9C574.7 545.9 577.267 546.433 579.8 547.5C582.333 548.567 584.6 550.2 586.6 552.4C588.667 554.6 590.333 557.433 591.6 560.9C592.867 564.3 593.5 568.367 593.5 573.1C593.5 577.833 592.867 581.933 591.6 585.4C590.333 588.8 588.667 591.6 586.6 593.8C584.6 596 582.333 597.633 579.8 598.7C577.267 599.767 574.7 600.3 572.1 600.3C568.3 600.3 564.9 599.7 561.9 598.5C558.9 597.3 556.633 595.267 555.1 592.4H554.9V599H541.4V527.6ZM601.933 563.2C602.133 559.867 602.966 557.1 604.433 554.9C605.899 552.7 607.766 550.933 610.033 549.6C612.299 548.267 614.833 547.333 617.633 546.8C620.499 546.2 623.366 545.9 626.233 545.9C628.833 545.9 631.466 546.1 634.133 546.5C636.799 546.833 639.233 547.533 641.433 548.6C643.633 549.667 645.433 551.167 646.833 553.1C648.233 554.967 648.933 557.467 648.933 560.6V587.5C648.933 589.833 649.066 592.067 649.333 594.2C649.599 596.333 650.066 597.933 650.733 599H636.333C636.066 598.2 635.833 597.4 635.633 596.6C635.499 595.733 635.399 594.867 635.333 594C633.066 596.333 630.399 597.967 627.333 598.9C624.266 599.833 621.133 600.3 617.933 600.3C615.466 600.3 613.166 600 611.033 599.4C608.899 598.8 607.033 597.867 605.433 596.6C603.833 595.333 602.566 593.733 601.633 591.8C600.766 589.867 600.333 587.567 600.333 584.9C600.333 581.967 600.833 579.567 601.833 577.7C602.899 575.767 604.233 574.233 605.833 573.1C607.499 571.967 609.366 571.133 611.433 570.6C613.566 570 615.699 569.533 617.833 569.2C619.966 568.867 622.066 568.6 624.133 568.4C626.199 568.2 628.033 567.9 629.633 567.5C631.233 567.1 632.499 566.533 633.433 565.8C634.366 565 634.799 563.867 634.733 562.4C634.733 560.867 634.466 559.667 633.933 558.8C633.466 557.867 632.799 557.167 631.933 556.7C631.133 556.167 630.166 555.833 629.033 555.7C627.966 555.5 626.799 555.4 625.533 555.4C622.733 555.4 620.533 556 618.933 557.2C617.333 558.4 616.399 560.4 616.133 563.2H601.933ZM634.733 573.7C634.133 574.233 633.366 574.667 632.433 575C631.566 575.267 630.599 575.5 629.533 575.7C628.533 575.9 627.466 576.067 626.333 576.2C625.199 576.333 624.066 576.5 622.933 576.7C621.866 576.9 620.799 577.167 619.733 577.5C618.733 577.833 617.833 578.3 617.033 578.9C616.299 579.433 615.699 580.133 615.233 581C614.766 581.867 614.533 582.967 614.533 584.3C614.533 585.567 614.766 586.633 615.233 587.5C615.699 588.367 616.333 589.067 617.133 589.6C617.933 590.067 618.866 590.4 619.933 590.6C620.999 590.8 622.099 590.9 623.233 590.9C626.033 590.9 628.199 590.433 629.733 589.5C631.266 588.567 632.399 587.467 633.133 586.2C633.866 584.867 634.299 583.533 634.433 582.2C634.633 580.867 634.733 579.8 634.733 579V573.7ZM659.955 547.3H673.455V556.9H673.655C674.321 555.3 675.221 553.833 676.355 552.5C677.488 551.1 678.788 549.933 680.255 549C681.721 548 683.288 547.233 684.955 546.7C686.621 546.167 688.355 545.9 690.155 545.9C691.088 545.9 692.121 546.067 693.255 546.4V559.6C692.588 559.467 691.788 559.367 690.855 559.3C689.921 559.167 689.021 559.1 688.155 559.1C685.555 559.1 683.355 559.533 681.555 560.4C679.755 561.267 678.288 562.467 677.155 564C676.088 565.467 675.321 567.2 674.855 569.2C674.388 571.2 674.155 573.367 674.155 575.7V599H659.955V547.3ZM733.764 573C733.764 570.867 733.564 568.833 733.164 566.9C732.764 564.9 732.064 563.167 731.064 561.7C730.131 560.167 728.897 558.933 727.364 558C725.831 557.067 723.897 556.6 721.564 556.6C719.231 556.6 717.264 557.067 715.664 558C714.064 558.933 712.764 560.167 711.764 561.7C710.831 563.233 710.131 565 709.664 567C709.264 568.933 709.064 570.967 709.064 573.1C709.064 575.1 709.297 577.1 709.764 579.1C710.231 581.1 710.964 582.9 711.964 584.5C713.031 586.033 714.331 587.3 715.864 588.3C717.464 589.233 719.364 589.7 721.564 589.7C723.897 589.7 725.831 589.233 727.364 588.3C728.964 587.367 730.231 586.133 731.164 584.6C732.097 583 732.764 581.2 733.164 579.2C733.564 577.2 733.764 575.133 733.764 573ZM733.964 592.4H733.764C732.097 595.2 729.897 597.233 727.164 598.5C724.497 599.7 721.464 600.3 718.064 600.3C714.197 600.3 710.797 599.567 707.864 598.1C704.931 596.567 702.497 594.533 700.564 592C698.697 589.4 697.264 586.433 696.264 583.1C695.331 579.767 694.864 576.3 694.864 572.7C694.864 569.233 695.331 565.9 696.264 562.7C697.264 559.433 698.697 556.567 700.564 554.1C702.497 551.633 704.897 549.667 707.764 548.2C710.631 546.667 713.964 545.9 717.764 545.9C720.831 545.9 723.731 546.567 726.464 547.9C729.264 549.167 731.464 551.067 733.064 553.6H733.264V527.6H747.464V599H733.964V592.4ZM758.097 565.6H788.197V577.8H758.097V565.6ZM798.32 563.2C798.52 559.867 799.353 557.1 800.82 554.9C802.286 552.7 804.153 550.933 806.42 549.6C808.686 548.267 811.22 547.333 814.02 546.8C816.886 546.2 819.753 545.9 822.62 545.9C825.22 545.9 827.853 546.1 830.52 546.5C833.186 546.833 835.62 547.533 837.82 548.6C840.02 549.667 841.82 551.167 843.22 553.1C844.62 554.967 845.32 557.467 845.32 560.6V587.5C845.32 589.833 845.453 592.067 845.72 594.2C845.986 596.333 846.453 597.933 847.12 599H832.72C832.453 598.2 832.22 597.4 832.02 596.6C831.886 595.733 831.786 594.867 831.72 594C829.453 596.333 826.786 597.967 823.72 598.9C820.653 599.833 817.52 600.3 814.32 600.3C811.853 600.3 809.553 600 807.42 599.4C805.286 598.8 803.42 597.867 801.82 596.6C800.22 595.333 798.953 593.733 798.02 591.8C797.153 589.867 796.72 587.567 796.72 584.9C796.72 581.967 797.22 579.567 798.22 577.7C799.286 575.767 800.62 574.233 802.22 573.1C803.886 571.967 805.753 571.133 807.82 570.6C809.953 570 812.086 569.533 814.22 569.2C816.353 568.867 818.453 568.6 820.52 568.4C822.586 568.2 824.42 567.9 826.02 567.5C827.62 567.1 828.886 566.533 829.82 565.8C830.753 565 831.186 563.867 831.12 562.4C831.12 560.867 830.853 559.667 830.32 558.8C829.853 557.867 829.186 557.167 828.32 556.7C827.52 556.167 826.553 555.833 825.42 555.7C824.353 555.5 823.186 555.4 821.92 555.4C819.12 555.4 816.92 556 815.32 557.2C813.72 558.4 812.786 560.4 812.52 563.2H798.32ZM831.12 573.7C830.52 574.233 829.753 574.667 828.82 575C827.953 575.267 826.986 575.5 825.92 575.7C824.92 575.9 823.853 576.067 822.72 576.2C821.586 576.333 820.453 576.5 819.32 576.7C818.253 576.9 817.186 577.167 816.12 577.5C815.12 577.833 814.22 578.3 813.42 578.9C812.686 579.433 812.086 580.133 811.62 581C811.153 581.867 810.92 582.967 810.92 584.3C810.92 585.567 811.153 586.633 811.62 587.5C812.086 588.367 812.72 589.067 813.52 589.6C814.32 590.067 815.253 590.4 816.32 590.6C817.386 590.8 818.486 590.9 819.62 590.9C822.42 590.9 824.586 590.433 826.12 589.5C827.653 588.567 828.786 587.467 829.52 586.2C830.253 584.867 830.686 583.533 830.82 582.2C831.02 580.867 831.12 579.8 831.12 579V573.7ZM870.941 539.3H856.741V527.6H870.941V539.3ZM856.741 547.3H870.941V599H856.741V547.3Z" fill="black"/>
<path d="M928 599H912.2L894.5 547.3H909.4L920.3 582.6H920.5L931.4 547.3H945.5L928 599ZM949.653 555.9C949.52 551.9 949.986 548.2 951.053 544.8C952.12 541.333 953.72 538.333 955.853 535.8C957.986 533.2 960.653 531.2 963.853 529.8C967.12 528.333 970.853 527.6 975.053 527.6C978.253 527.6 981.286 528.1 984.153 529.1C987.086 530.1 989.653 531.533 991.853 533.4C994.053 535.267 995.786 537.567 997.053 540.3C998.386 543.033 999.053 546.1 999.053 549.5C999.053 553.033 998.486 556.067 997.353 558.6C996.22 561.133 994.72 563.4 992.853 565.4C990.986 567.333 988.853 569.1 986.453 570.7C984.12 572.3 981.753 573.9 979.353 575.5C976.953 577.033 974.62 578.7 972.353 580.5C970.086 582.3 968.086 584.4 966.353 586.8H999.453V599H948.053C948.053 594.933 948.62 591.4 949.753 588.4C950.953 585.4 952.553 582.733 954.553 580.4C956.553 578 958.886 575.8 961.553 573.8C964.286 571.8 967.153 569.767 970.153 567.7C971.686 566.633 973.32 565.567 975.053 564.5C976.786 563.367 978.353 562.133 979.753 560.8C981.22 559.467 982.42 557.967 983.353 556.3C984.353 554.633 984.853 552.733 984.853 550.6C984.853 547.2 983.853 544.567 981.853 542.7C979.92 540.767 977.42 539.8 974.353 539.8C972.286 539.8 970.52 540.3 969.053 541.3C967.653 542.233 966.52 543.5 965.653 545.1C964.786 546.633 964.153 548.367 963.753 550.3C963.42 552.167 963.253 554.033 963.253 555.9H949.653Z" fill="url(#paint0_radial_268_3)"/>
<rect x="605" y="126" width="327.786" height="339" rx="128" fill="url(#paint1_radial_268_3)"/>
<g filter="url(#filter4_i_268_3)">
<rect x="619.664" y="141.527" width="298.458" height="307.947" rx="128" fill="url(#paint2_linear_268_3)"/>
</g>
<g clip-path="url(#clip1_268_3)">
<g filter="url(#filter5_d_268_3)">
<path d="M764.888 328.597L757.214 346.173C754.264 352.929 744.915 352.929 741.965 346.173L734.291 328.597C727.462 312.956 715.17 300.506 699.838 293.7L678.716 284.324C672 281.343 672 271.574 678.716 268.593L699.178 259.51C714.905 252.529 727.417 239.617 734.13 223.442L741.903 204.712C744.788 197.761 754.391 197.761 757.276 204.712L765.049 223.442C771.762 239.617 784.274 252.529 800.001 259.51L820.463 268.593C827.179 271.574 827.179 281.343 820.463 284.324L799.341 293.7C784.009 300.506 771.717 312.956 764.888 328.597Z" fill="url(#paint3_radial_268_3)"/>
</g>
<g filter="url(#filter6_d_268_3)">
<path d="M836.202 384.017L834.044 388.963C832.464 392.584 827.451 392.584 825.871 388.963L823.713 384.017C819.866 375.198 812.937 368.176 804.291 364.335L797.642 361.381C794.047 359.784 794.047 354.557 797.642 352.96L803.919 350.171C812.787 346.231 819.841 338.949 823.622 329.831L825.838 324.486C827.382 320.761 832.533 320.761 834.077 324.486L836.293 329.831C840.074 338.949 847.128 346.231 855.996 350.171L862.273 352.96C865.869 354.557 865.869 359.784 862.273 361.381L855.624 364.335C846.978 368.176 840.049 375.198 836.202 384.017Z" fill="url(#paint4_radial_268_3)"/>
</g>
</g>
<rect x="-6" width="1549" height="45" fill="url(#paint5_linear_268_3)"/>
</g>
<defs>
<filter id="filter0_f_268_3" x="370.152" y="-43" width="657.666" height="531.701" filterUnits="userSpaceOnUse" color-interpolation-filters="sRGB">
<feFlood flood-opacity="0" result="BackgroundImageFix"/>
<feBlend mode="normal" in="SourceGraphic" in2="BackgroundImageFix" result="shape"/>
<feGaussianBlur stdDeviation="100" result="effect1_foregroundBlur_268_3"/>
</filter>
<filter id="filter1_f_268_3" x="551.97" y="-29.3481" width="603.157" height="491.548" filterUnits="userSpaceOnUse" color-interpolation-filters="sRGB">
<feFlood flood-opacity="0" result="BackgroundImageFix"/>
<feBlend mode="normal" in="SourceGraphic" in2="BackgroundImageFix" result="shape"/>
<feGaussianBlur stdDeviation="100" result="effect1_foregroundBlur_268_3"/>
</filter>
<filter id="filter2_f_268_3" x="368" y="62.2001" width="709.666" height="559.54" filterUnits="userSpaceOnUse" color-interpolation-filters="sRGB">
<feFlood flood-opacity="0" result="BackgroundImageFix"/>
<feBlend mode="normal" in="SourceGraphic" in2="BackgroundImageFix" result="shape"/>
<feGaussianBlur stdDeviation="100" result="effect1_foregroundBlur_268_3"/>
</filter>
<filter id="filter3_f_268_3" x="552.254" y="54.1158" width="617.681" height="579.884" filterUnits="userSpaceOnUse" color-interpolation-filters="sRGB">
<feFlood flood-opacity="0" result="BackgroundImageFix"/>
<feBlend mode="normal" in="SourceGraphic" in2="BackgroundImageFix" result="shape"/>
<feGaussianBlur stdDeviation="100" result="effect1_foregroundBlur_268_3"/>
</filter>
<filter id="filter4_i_268_3" x="619.664" y="141.527" width="298.458" height="311.947" filterUnits="userSpaceOnUse" color-interpolation-filters="sRGB">
<feFlood flood-opacity="0" result="BackgroundImageFix"/>
<feBlend mode="normal" in="SourceGraphic" in2="BackgroundImageFix" result="shape"/>
<feColorMatrix in="SourceAlpha" type="matrix" values="0 0 0 0 0 0 0 0 0 0 0 0 0 0 0 0 0 0 127 0" result="hardAlpha"/>
<feOffset dy="4"/>
<feGaussianBlur stdDeviation="5"/>
<feComposite in2="hardAlpha" operator="arithmetic" k2="-1" k3="1"/>
<feColorMatrix type="matrix" values="0 0 0 0 0 0 0 0 0 0 0 0 0 0 0 0 0 0 0.25 0"/>
<feBlend mode="normal" in2="shape" result="effect1_innerShadow_268_3"/>
</filter>
<filter id="filter5_d_268_3" x="669.679" y="195.499" width="159.821" height="159.741" filterUnits="userSpaceOnUse" color-interpolation-filters="sRGB">
<feFlood flood-opacity="0" result="BackgroundImageFix"/>
<feColorMatrix in="SourceAlpha" type="matrix" values="0 0 0 0 0 0 0 0 0 0 0 0 0 0 0 0 0 0 127 0" result="hardAlpha"/>
<feOffset/>
<feGaussianBlur stdDeviation="2"/>
<feComposite in2="hardAlpha" operator="out"/>
<feColorMatrix type="matrix" values="0 0 0 0 0 0 0 0 0 0 0 0 0 0 0 0 0 0 0.25 0"/>
<feBlend mode="normal" in2="BackgroundImageFix" result="effect1_dropShadow_268_3"/>
<feBlend mode="normal" in="SourceGraphic" in2="effect1_dropShadow_268_3" result="shape"/>
</filter>
<filter id="filter6_d_268_3" x="790.945" y="317.692" width="78.0249" height="77.987" filterUnits="userSpaceOnUse" color-interpolation-filters="sRGB">
<feFlood flood-opacity="0" result="BackgroundImageFix"/>
<feColorMatrix in="SourceAlpha" type="matrix" values="0 0 0 0 0 0 0 0 0 0 0 0 0 0 0 0 0 0 127 0" result="hardAlpha"/>
<feOffset/>
<feGaussianBlur stdDeviation="2"/>
<feComposite in2="hardAlpha" operator="out"/>
<feColorMatrix type="matrix" values="0 0 0 0 0 0 0 0 0 0 0 0 0 0 0 0 0 0 0.25 0"/>
<feBlend mode="normal" in2="BackgroundImageFix" result="effect1_dropShadow_268_3"/>
<feBlend mode="normal" in="SourceGraphic" in2="effect1_dropShadow_268_3" result="shape"/>
</filter>
<radialGradient id="paint0_radial_268_3" cx="0" cy="0" r="1" gradientUnits="userSpaceOnUse" gradientTransform="translate(894 518.5) rotate(47.968) scale(139.343 238.654)">
<stop stop-color="#1BA1E3"/>
<stop offset="0.0001" stop-color="#1BA1E3"/>
<stop offset="0.300221" stop-color="#5489D6"/>
<stop offset="0.545524" stop-color="#9B72CB"/>
<stop offset="0.825372" stop-color="#D96570"/>
<stop offset="1" stop-color="#F49C46"/>
</radialGradient>
<radialGradient id="paint1_radial_268_3" cx="0" cy="0" r="1" gradientUnits="userSpaceOnUse" gradientTransform="translate(593.827 -57.8016) rotate(79.2234) scale(573.432 555.807)">
<stop stop-color="#1BA1E3"/>
<stop offset="0.0001" stop-color="#1BA1E3"/>
<stop offset="0.300221" stop-color="#5489D6"/>
<stop offset="0.545524" stop-color="#9B72CB"/>
<stop offset="0.825372" stop-color="#D96570"/>
<stop offset="1" stop-color="#F49C46"/>
</radialGradient>
<linearGradient id="paint2_linear_268_3" x1="619.664" y1="141.527" x2="927.46" y2="439.839" gradientUnits="userSpaceOnUse">
<stop stop-color="white"/>
<stop offset="1" stop-color="#E3E3E3"/>
</linearGradient>
<radialGradient id="paint3_radial_268_3" cx="0" cy="0" r="1" gradientUnits="userSpaceOnUse" gradientTransform="translate(792.558 283.746) rotate(78.858) scale(118.532 118.59)">
<stop stop-color="#1BA1E3"/>
<stop offset="0.0001" stop-color="#1BA1E3"/>
<stop offset="0.300221" stop-color="#5489D6"/>
<stop offset="0.545524" stop-color="#9B72CB"/>
<stop offset="0.825372" stop-color="#D96570"/>
<stop offset="1" stop-color="#F49C46"/>
</radialGradient>
<radialGradient id="paint4_radial_268_3" cx="0" cy="0" r="1" gradientUnits="userSpaceOnUse" gradientTransform="translate(792.558 283.746) rotate(78.858) scale(118.532 118.59)">
<stop stop-color="#1BA1E3"/>
<stop offset="0.0001" stop-color="#1BA1E3"/>
<stop offset="0.300221" stop-color="#5489D6"/>
<stop offset="0.545524" stop-color="#9B72CB"/>
<stop offset="0.825372" stop-color="#D96570"/>
<stop offset="1" stop-color="#F49C46"/>
</radialGradient>
<linearGradient id="paint5_linear_268_3" x1="768.5" y1="0" x2="768.5" y2="45" gradientUnits="userSpaceOnUse">
<stop stop-color="white"/>
<stop offset="1" stop-color="white" stop-opacity="0"/>
</linearGradient>
<clipPath id="clip0_268_3">
<rect width="1538" height="725" fill="white"/>
</clipPath>
<clipPath id="clip1_268_3">
<rect width="192.359" height="192.359" fill="white" transform="translate(673.145 199.321)"/>
</clipPath>
</defs>
</svg>
