<svg width="1538" height="760" viewBox="0 0 1538 760" fill="none" xmlns="http://www.w3.org/2000/svg">
<g clip-path="url(#clip0_250_47)">
<g filter="url(#filter0_f_250_47)">
<path d="M522.981 302.251L544.801 218.36L660.758 179.527L782.949 192.273C782.949 192.273 837.187 210.949 790.43 255.71C743.673 300.472 721.854 280.907 684.448 313.812C647.043 346.716 522.981 302.251 522.981 302.251Z" fill="#BF6B97"/>
</g>
<g filter="url(#filter1_f_250_47)">
<path d="M770.607 276.157C715.865 272.04 731.994 257.337 726.618 222.933C721.241 188.529 731.994 204.408 731.994 204.408L833.66 194.704L936.302 232.637L950.966 280.567C950.966 280.567 936.302 297.328 875.694 296.446C815.086 295.564 825.35 280.273 770.607 276.157Z" fill="#B26EAA"/>
</g>
<g filter="url(#filter2_f_250_47)">
<path d="M619.192 305.631C548.901 288.815 533.768 300.321 533.768 300.321L520.589 433.083L703.639 454.62C751.638 437.705 711.265 493.564 747.083 466.126C789.062 433.968 808.587 458.456 850.567 433.083C892.546 407.711 831.529 366.112 801.753 355.786C771.977 345.46 713.401 367.292 688.995 351.656C664.588 336.019 689.483 322.448 619.192 305.631Z" fill="#2B9BE0"/>
</g>
<g filter="url(#filter3_f_250_47)">
<path d="M888.875 295.35C914.734 279.168 967.428 292.996 967.428 292.996L927.42 487.473L725.428 473.939C725.428 473.939 738.601 417.744 758.605 393.618C778.609 369.492 796.662 368.021 824.96 359.195C853.258 350.368 863.016 311.532 888.875 295.35Z" fill="#F49B48"/>
</g>
<path d="M486.155 669.44H494.995L501.675 689.08H501.755L508.075 669.44H516.915V698H511.035V677.76H510.955L503.955 698H499.115L492.115 677.96H492.035V698H486.155V669.44ZM526.884 687.68C526.884 688.507 526.964 689.32 527.124 690.12C527.284 690.893 527.55 691.6 527.924 692.24C528.324 692.853 528.844 693.347 529.484 693.72C530.124 694.093 530.924 694.28 531.884 694.28C532.844 694.28 533.644 694.093 534.284 693.72C534.95 693.347 535.47 692.853 535.844 692.24C536.244 691.6 536.524 690.893 536.684 690.12C536.844 689.32 536.924 688.507 536.924 687.68C536.924 686.853 536.844 686.04 536.684 685.24C536.524 684.44 536.244 683.733 535.844 683.12C535.47 682.507 534.95 682.013 534.284 681.64C533.644 681.24 532.844 681.04 531.884 681.04C530.924 681.04 530.124 681.24 529.484 681.64C528.844 682.013 528.324 682.507 527.924 683.12C527.55 683.733 527.284 684.44 527.124 685.24C526.964 686.04 526.884 686.853 526.884 687.68ZM521.204 687.68C521.204 686.027 521.457 684.533 521.964 683.2C522.47 681.84 523.19 680.693 524.124 679.76C525.057 678.8 526.177 678.067 527.484 677.56C528.79 677.027 530.257 676.76 531.884 676.76C533.51 676.76 534.977 677.027 536.284 677.56C537.617 678.067 538.75 678.8 539.684 679.76C540.617 680.693 541.337 681.84 541.844 683.2C542.35 684.533 542.604 686.027 542.604 687.68C542.604 689.333 542.35 690.827 541.844 692.16C541.337 693.493 540.617 694.64 539.684 695.6C538.75 696.533 537.617 697.253 536.284 697.76C534.977 698.267 533.51 698.52 531.884 698.52C530.257 698.52 528.79 698.267 527.484 697.76C526.177 697.253 525.057 696.533 524.124 695.6C523.19 694.64 522.47 693.493 521.964 692.16C521.457 690.827 521.204 689.333 521.204 687.68ZM546.297 677.32H551.697V681.16H551.777C552.043 680.52 552.403 679.933 552.857 679.4C553.31 678.84 553.83 678.373 554.417 678C555.003 677.6 555.63 677.293 556.297 677.08C556.963 676.867 557.657 676.76 558.377 676.76C558.75 676.76 559.163 676.827 559.617 676.96V682.24C559.35 682.187 559.03 682.147 558.657 682.12C558.283 682.067 557.923 682.04 557.577 682.04C556.537 682.04 555.657 682.213 554.937 682.56C554.217 682.907 553.63 683.387 553.177 684C552.75 684.587 552.443 685.28 552.257 686.08C552.07 686.88 551.977 687.747 551.977 688.68V698H546.297V677.32ZM575.06 685.44C574.794 684 574.314 682.907 573.62 682.16C572.954 681.413 571.927 681.04 570.54 681.04C569.634 681.04 568.874 681.2 568.26 681.52C567.674 681.813 567.194 682.187 566.82 682.64C566.474 683.093 566.22 683.573 566.06 684.08C565.927 684.587 565.847 685.04 565.82 685.44H575.06ZM565.82 689.04C565.9 690.88 566.367 692.213 567.22 693.04C568.074 693.867 569.3 694.28 570.9 694.28C572.047 694.28 573.034 694 573.86 693.44C574.687 692.853 575.194 692.24 575.38 691.6H580.38C579.58 694.08 578.354 695.853 576.7 696.92C575.047 697.987 573.047 698.52 570.7 698.52C569.074 698.52 567.607 698.267 566.3 697.76C564.994 697.227 563.887 696.48 562.98 695.52C562.074 694.56 561.367 693.413 560.86 692.08C560.38 690.747 560.14 689.28 560.14 687.68C560.14 686.133 560.394 684.693 560.9 683.36C561.407 682.027 562.127 680.88 563.06 679.92C563.994 678.933 565.1 678.16 566.38 677.6C567.687 677.04 569.127 676.76 570.7 676.76C572.46 676.76 573.994 677.107 575.3 677.8C576.607 678.467 577.674 679.373 578.5 680.52C579.354 681.667 579.967 682.973 580.34 684.44C580.714 685.907 580.847 687.44 580.74 689.04H565.82ZM609.322 684.6C608.949 682.227 607.549 681.04 605.122 681.04C604.215 681.04 603.455 681.253 602.842 681.68C602.229 682.08 601.722 682.613 601.322 683.28C600.949 683.92 600.682 684.64 600.522 685.44C600.362 686.213 600.282 686.987 600.282 687.76C600.282 688.507 600.362 689.267 600.522 690.04C600.682 690.813 600.935 691.52 601.282 692.16C601.655 692.773 602.149 693.28 602.762 693.68C603.375 694.08 604.122 694.28 605.002 694.28C606.362 694.28 607.402 693.907 608.122 693.16C608.869 692.387 609.335 691.36 609.522 690.08H615.002C614.629 692.827 613.562 694.92 611.802 696.36C610.042 697.8 607.789 698.52 605.042 698.52C603.495 698.52 602.069 698.267 600.762 697.76C599.482 697.227 598.389 696.493 597.482 695.56C596.575 694.627 595.869 693.52 595.362 692.24C594.855 690.933 594.602 689.507 594.602 687.96C594.602 686.36 594.829 684.88 595.282 683.52C595.762 682.133 596.455 680.947 597.362 679.96C598.269 678.947 599.375 678.16 600.682 677.6C601.989 677.04 603.482 676.76 605.162 676.76C606.389 676.76 607.562 676.92 608.682 677.24C609.829 677.56 610.842 678.053 611.722 678.72C612.629 679.36 613.362 680.173 613.922 681.16C614.482 682.12 614.802 683.267 614.882 684.6H609.322ZM617.971 683.68C618.051 682.347 618.384 681.24 618.971 680.36C619.557 679.48 620.304 678.773 621.211 678.24C622.117 677.707 623.131 677.333 624.251 677.12C625.397 676.88 626.544 676.76 627.691 676.76C628.731 676.76 629.784 676.84 630.851 677C631.917 677.133 632.891 677.413 633.771 677.84C634.651 678.267 635.371 678.867 635.931 679.64C636.491 680.387 636.771 681.387 636.771 682.64V693.4C636.771 694.333 636.824 695.227 636.931 696.08C637.037 696.933 637.224 697.573 637.491 698H631.731C631.624 697.68 631.531 697.36 631.451 697.04C631.397 696.693 631.357 696.347 631.331 696C630.424 696.933 629.357 697.587 628.131 697.96C626.904 698.333 625.651 698.52 624.371 698.52C623.384 698.52 622.464 698.4 621.611 698.16C620.757 697.92 620.011 697.547 619.371 697.04C618.731 696.533 618.224 695.893 617.851 695.12C617.504 694.347 617.331 693.427 617.331 692.36C617.331 691.187 617.531 690.227 617.931 689.48C618.357 688.707 618.891 688.093 619.531 687.64C620.197 687.187 620.944 686.853 621.771 686.64C622.624 686.4 623.477 686.213 624.331 686.08C625.184 685.947 626.024 685.84 626.851 685.76C627.677 685.68 628.411 685.56 629.051 685.4C629.691 685.24 630.197 685.013 630.571 684.72C630.944 684.4 631.117 683.947 631.091 683.36C631.091 682.747 630.984 682.267 630.771 681.92C630.584 681.547 630.317 681.267 629.971 681.08C629.651 680.867 629.264 680.733 628.811 680.68C628.384 680.6 627.917 680.56 627.411 680.56C626.291 680.56 625.411 680.8 624.771 681.28C624.131 681.76 623.757 682.56 623.651 683.68H617.971ZM631.091 687.88C630.851 688.093 630.544 688.267 630.171 688.4C629.824 688.507 629.437 688.6 629.011 688.68C628.611 688.76 628.184 688.827 627.731 688.88C627.277 688.933 626.824 689 626.371 689.08C625.944 689.16 625.517 689.267 625.091 689.4C624.691 689.533 624.331 689.72 624.011 689.96C623.717 690.173 623.477 690.453 623.291 690.8C623.104 691.147 623.011 691.587 623.011 692.12C623.011 692.627 623.104 693.053 623.291 693.4C623.477 693.747 623.731 694.027 624.051 694.24C624.371 694.427 624.744 694.56 625.171 694.64C625.597 694.72 626.037 694.76 626.491 694.76C627.611 694.76 628.477 694.573 629.091 694.2C629.704 693.827 630.157 693.387 630.451 692.88C630.744 692.347 630.917 691.813 630.971 691.28C631.051 690.747 631.091 690.32 631.091 690V687.88ZM651.62 694.28C652.553 694.28 653.326 694.093 653.94 693.72C654.58 693.347 655.086 692.867 655.46 692.28C655.86 691.667 656.14 690.96 656.3 690.16C656.46 689.36 656.54 688.547 656.54 687.72C656.54 686.893 656.446 686.08 656.26 685.28C656.1 684.48 655.82 683.773 655.42 683.16C655.02 682.52 654.5 682.013 653.86 681.64C653.246 681.24 652.486 681.04 651.58 681.04C650.646 681.04 649.86 681.24 649.22 681.64C648.606 682.013 648.1 682.507 647.7 683.12C647.326 683.733 647.06 684.44 646.9 685.24C646.74 686.04 646.66 686.867 646.66 687.72C646.66 688.547 646.74 689.36 646.9 690.16C647.086 690.96 647.366 691.667 647.74 692.28C648.14 692.867 648.66 693.347 649.3 693.72C649.94 694.093 650.713 694.28 651.62 694.28ZM641.18 677.32H646.58V679.96H646.66C647.353 678.84 648.233 678.027 649.3 677.52C650.366 677.013 651.54 676.76 652.82 676.76C654.446 676.76 655.846 677.067 657.02 677.68C658.193 678.293 659.166 679.107 659.94 680.12C660.713 681.133 661.286 682.32 661.66 683.68C662.033 685.013 662.22 686.413 662.22 687.88C662.22 689.267 662.033 690.6 661.66 691.88C661.286 693.16 660.713 694.293 659.94 695.28C659.193 696.267 658.246 697.053 657.1 697.64C655.98 698.227 654.66 698.52 653.14 698.52C651.86 698.52 650.673 698.267 649.58 697.76C648.513 697.227 647.633 696.453 646.94 695.44H646.86V705.24H641.18V677.32ZM665.393 683.68C665.473 682.347 665.806 681.24 666.393 680.36C666.979 679.48 667.726 678.773 668.633 678.24C669.539 677.707 670.553 677.333 671.673 677.12C672.819 676.88 673.966 676.76 675.113 676.76C676.153 676.76 677.206 676.84 678.273 677C679.339 677.133 680.313 677.413 681.193 677.84C682.073 678.267 682.793 678.867 683.353 679.64C683.913 680.387 684.193 681.387 684.193 682.64V693.4C684.193 694.333 684.246 695.227 684.353 696.08C684.459 696.933 684.646 697.573 684.913 698H679.153C679.046 697.68 678.953 697.36 678.873 697.04C678.819 696.693 678.779 696.347 678.753 696C677.846 696.933 676.779 697.587 675.553 697.96C674.326 698.333 673.073 698.52 671.793 698.52C670.806 698.52 669.886 698.4 669.033 698.16C668.179 697.92 667.433 697.547 666.793 697.04C666.153 696.533 665.646 695.893 665.273 695.12C664.926 694.347 664.753 693.427 664.753 692.36C664.753 691.187 664.953 690.227 665.353 689.48C665.779 688.707 666.313 688.093 666.953 687.64C667.619 687.187 668.366 686.853 669.193 686.64C670.046 686.4 670.899 686.213 671.753 686.08C672.606 685.947 673.446 685.84 674.273 685.76C675.099 685.68 675.833 685.56 676.473 685.4C677.113 685.24 677.619 685.013 677.993 684.72C678.366 684.4 678.539 683.947 678.513 683.36C678.513 682.747 678.406 682.267 678.193 681.92C678.006 681.547 677.739 681.267 677.393 681.08C677.073 680.867 676.686 680.733 676.233 680.68C675.806 680.6 675.339 680.56 674.833 680.56C673.713 680.56 672.833 680.8 672.193 681.28C671.553 681.76 671.179 682.56 671.073 683.68H665.393ZM678.513 687.88C678.273 688.093 677.966 688.267 677.593 688.4C677.246 688.507 676.859 688.6 676.433 688.68C676.033 688.76 675.606 688.827 675.153 688.88C674.699 688.933 674.246 689 673.793 689.08C673.366 689.16 672.939 689.267 672.513 689.4C672.113 689.533 671.753 689.72 671.433 689.96C671.139 690.173 670.899 690.453 670.713 690.8C670.526 691.147 670.433 691.587 670.433 692.12C670.433 692.627 670.526 693.053 670.713 693.4C670.899 693.747 671.153 694.027 671.473 694.24C671.793 694.427 672.166 694.56 672.593 694.64C673.019 694.72 673.459 694.76 673.913 694.76C675.033 694.76 675.899 694.573 676.513 694.2C677.126 693.827 677.579 693.387 677.873 692.88C678.166 692.347 678.339 691.813 678.393 691.28C678.473 690.747 678.513 690.32 678.513 690V687.88ZM703.761 687.68C703.761 686.8 703.668 685.96 703.481 685.16C703.295 684.36 703.001 683.653 702.601 683.04C702.201 682.427 701.695 681.947 701.081 681.6C700.495 681.227 699.775 681.04 698.921 681.04C698.095 681.04 697.375 681.227 696.761 681.6C696.148 681.947 695.641 682.427 695.241 683.04C694.841 683.653 694.548 684.36 694.361 685.16C694.175 685.96 694.081 686.8 694.081 687.68C694.081 688.533 694.175 689.36 694.361 690.16C694.548 690.96 694.841 691.667 695.241 692.28C695.641 692.893 696.148 693.387 696.761 693.76C697.375 694.107 698.095 694.28 698.921 694.28C699.775 694.28 700.495 694.107 701.081 693.76C701.695 693.387 702.201 692.893 702.601 692.28C703.001 691.667 703.295 690.96 703.481 690.16C703.668 689.36 703.761 688.533 703.761 687.68ZM688.601 669.44H694.281V679.84H694.361C695.055 678.773 695.988 678 697.161 677.52C698.361 677.013 699.601 676.76 700.881 676.76C701.921 676.76 702.948 676.973 703.961 677.4C704.975 677.827 705.881 678.48 706.681 679.36C707.508 680.24 708.175 681.373 708.681 682.76C709.188 684.12 709.441 685.747 709.441 687.64C709.441 689.533 709.188 691.173 708.681 692.56C708.175 693.92 707.508 695.04 706.681 695.92C705.881 696.8 704.975 697.453 703.961 697.88C702.948 698.307 701.921 698.52 700.881 698.52C699.361 698.52 698.001 698.28 696.801 697.8C695.601 697.32 694.695 696.507 694.081 695.36H694.001V698H688.601V669.44ZM713.215 669.44H718.895V698H713.215V669.44ZM737.287 685.44C737.02 684 736.54 682.907 735.847 682.16C735.18 681.413 734.154 681.04 732.767 681.04C731.86 681.04 731.1 681.2 730.487 681.52C729.9 681.813 729.42 682.187 729.047 682.64C728.7 683.093 728.447 683.573 728.287 684.08C728.154 684.587 728.074 685.04 728.047 685.44H737.287ZM728.047 689.04C728.127 690.88 728.594 692.213 729.447 693.04C730.3 693.867 731.527 694.28 733.127 694.28C734.274 694.28 735.26 694 736.087 693.44C736.914 692.853 737.42 692.24 737.607 691.6H742.607C741.807 694.08 740.58 695.853 738.927 696.92C737.274 697.987 735.274 698.52 732.927 698.52C731.3 698.52 729.834 698.267 728.527 697.76C727.22 697.227 726.114 696.48 725.207 695.52C724.3 694.56 723.594 693.413 723.087 692.08C722.607 690.747 722.367 689.28 722.367 687.68C722.367 686.133 722.62 684.693 723.127 683.36C723.634 682.027 724.354 680.88 725.287 679.92C726.22 678.933 727.327 678.16 728.607 677.6C729.914 677.04 731.354 676.76 732.927 676.76C734.687 676.76 736.22 677.107 737.527 677.8C738.834 678.467 739.9 679.373 740.727 680.52C741.58 681.667 742.194 682.973 742.567 684.44C742.94 685.907 743.074 687.44 742.967 689.04H728.047ZM746.576 691.84H752.856V698H746.576V691.84ZM769.201 669.44H778.041L784.721 689.08H784.801L791.121 669.44H799.961V698H794.081V677.76H794.001L787.001 698H782.161L775.161 677.96H775.081V698H769.201V669.44ZM809.93 687.68C809.93 688.507 810.01 689.32 810.17 690.12C810.33 690.893 810.597 691.6 810.97 692.24C811.37 692.853 811.89 693.347 812.53 693.72C813.17 694.093 813.97 694.28 814.93 694.28C815.89 694.28 816.69 694.093 817.33 693.72C817.997 693.347 818.517 692.853 818.89 692.24C819.29 691.6 819.57 690.893 819.73 690.12C819.89 689.32 819.97 688.507 819.97 687.68C819.97 686.853 819.89 686.04 819.73 685.24C819.57 684.44 819.29 683.733 818.89 683.12C818.517 682.507 817.997 682.013 817.33 681.64C816.69 681.24 815.89 681.04 814.93 681.04C813.97 681.04 813.17 681.24 812.53 681.64C811.89 682.013 811.37 682.507 810.97 683.12C810.597 683.733 810.33 684.44 810.17 685.24C810.01 686.04 809.93 686.853 809.93 687.68ZM804.25 687.68C804.25 686.027 804.504 684.533 805.01 683.2C805.517 681.84 806.237 680.693 807.17 679.76C808.104 678.8 809.224 678.067 810.53 677.56C811.837 677.027 813.304 676.76 814.93 676.76C816.557 676.76 818.024 677.027 819.33 677.56C820.664 678.067 821.797 678.8 822.73 679.76C823.664 680.693 824.384 681.84 824.89 683.2C825.397 684.533 825.65 686.027 825.65 687.68C825.65 689.333 825.397 690.827 824.89 692.16C824.384 693.493 823.664 694.64 822.73 695.6C821.797 696.533 820.664 697.253 819.33 697.76C818.024 698.267 816.557 698.52 814.93 698.52C813.304 698.52 811.837 698.267 810.53 697.76C809.224 697.253 808.104 696.533 807.17 695.6C806.237 694.64 805.517 693.493 805.01 692.16C804.504 690.827 804.25 689.333 804.25 687.68ZM829.344 677.32H834.744V681.16H834.824C835.09 680.52 835.45 679.933 835.904 679.4C836.357 678.84 836.877 678.373 837.464 678C838.05 677.6 838.677 677.293 839.344 677.08C840.01 676.867 840.704 676.76 841.424 676.76C841.797 676.76 842.21 676.827 842.664 676.96V682.24C842.397 682.187 842.077 682.147 841.704 682.12C841.33 682.067 840.97 682.04 840.624 682.04C839.584 682.04 838.704 682.213 837.984 682.56C837.264 682.907 836.677 683.387 836.224 684C835.797 684.587 835.49 685.28 835.304 686.08C835.117 686.88 835.024 687.747 835.024 688.68V698H829.344V677.32ZM858.107 685.44C857.841 684 857.361 682.907 856.667 682.16C856.001 681.413 854.974 681.04 853.587 681.04C852.681 681.04 851.921 681.2 851.307 681.52C850.721 681.813 850.241 682.187 849.867 682.64C849.521 683.093 849.267 683.573 849.107 684.08C848.974 684.587 848.894 685.04 848.867 685.44H858.107ZM848.867 689.04C848.947 690.88 849.414 692.213 850.267 693.04C851.121 693.867 852.347 694.28 853.947 694.28C855.094 694.28 856.081 694 856.907 693.44C857.734 692.853 858.241 692.24 858.427 691.6H863.427C862.627 694.08 861.401 695.853 859.747 696.92C858.094 697.987 856.094 698.52 853.747 698.52C852.121 698.52 850.654 698.267 849.347 697.76C848.041 697.227 846.934 696.48 846.027 695.52C845.121 694.56 844.414 693.413 843.907 692.08C843.427 690.747 843.187 689.28 843.187 687.68C843.187 686.133 843.441 684.693 843.947 683.36C844.454 682.027 845.174 680.88 846.107 679.92C847.041 678.933 848.147 678.16 849.427 677.6C850.734 677.04 852.174 676.76 853.747 676.76C855.507 676.76 857.041 677.107 858.347 677.8C859.654 678.467 860.721 679.373 861.547 680.52C862.401 681.667 863.014 682.973 863.387 684.44C863.761 685.907 863.894 687.44 863.787 689.04H848.867ZM888.729 694.28C889.662 694.28 890.436 694.093 891.049 693.72C891.689 693.347 892.196 692.867 892.569 692.28C892.969 691.667 893.249 690.96 893.409 690.16C893.569 689.36 893.649 688.547 893.649 687.72C893.649 686.893 893.556 686.08 893.369 685.28C893.209 684.48 892.929 683.773 892.529 683.16C892.129 682.52 891.609 682.013 890.969 681.64C890.356 681.24 889.596 681.04 888.689 681.04C887.756 681.04 886.969 681.24 886.329 681.64C885.716 682.013 885.209 682.507 884.809 683.12C884.436 683.733 884.169 684.44 884.009 685.24C883.849 686.04 883.769 686.867 883.769 687.72C883.769 688.547 883.849 689.36 884.009 690.16C884.196 690.96 884.476 691.667 884.849 692.28C885.249 692.867 885.769 693.347 886.409 693.72C887.049 694.093 887.822 694.28 888.729 694.28ZM878.289 677.32H883.689V679.96H883.769C884.462 678.84 885.342 678.027 886.409 677.52C887.476 677.013 888.649 676.76 889.929 676.76C891.556 676.76 892.956 677.067 894.129 677.68C895.302 678.293 896.276 679.107 897.049 680.12C897.822 681.133 898.396 682.32 898.769 683.68C899.142 685.013 899.329 686.413 899.329 687.88C899.329 689.267 899.142 690.6 898.769 691.88C898.396 693.16 897.822 694.293 897.049 695.28C896.302 696.267 895.356 697.053 894.209 697.64C893.089 698.227 891.769 698.52 890.249 698.52C888.969 698.52 887.782 698.267 886.689 697.76C885.622 697.227 884.742 696.453 884.049 695.44H883.969V705.24H878.289V677.32ZM907.782 687.68C907.782 688.507 907.862 689.32 908.022 690.12C908.182 690.893 908.449 691.6 908.822 692.24C909.222 692.853 909.742 693.347 910.382 693.72C911.022 694.093 911.822 694.28 912.782 694.28C913.742 694.28 914.542 694.093 915.182 693.72C915.849 693.347 916.369 692.853 916.742 692.24C917.142 691.6 917.422 690.893 917.582 690.12C917.742 689.32 917.822 688.507 917.822 687.68C917.822 686.853 917.742 686.04 917.582 685.24C917.422 684.44 917.142 683.733 916.742 683.12C916.369 682.507 915.849 682.013 915.182 681.64C914.542 681.24 913.742 681.04 912.782 681.04C911.822 681.04 911.022 681.24 910.382 681.64C909.742 682.013 909.222 682.507 908.822 683.12C908.449 683.733 908.182 684.44 908.022 685.24C907.862 686.04 907.782 686.853 907.782 687.68ZM902.102 687.68C902.102 686.027 902.355 684.533 902.862 683.2C903.369 681.84 904.089 680.693 905.022 679.76C905.955 678.8 907.075 678.067 908.382 677.56C909.689 677.027 911.155 676.76 912.782 676.76C914.409 676.76 915.875 677.027 917.182 677.56C918.515 678.067 919.649 678.8 920.582 679.76C921.515 680.693 922.235 681.84 922.742 683.2C923.249 684.533 923.502 686.027 923.502 687.68C923.502 689.333 923.249 690.827 922.742 692.16C922.235 693.493 921.515 694.64 920.582 695.6C919.649 696.533 918.515 697.253 917.182 697.76C915.875 698.267 914.409 698.52 912.782 698.52C911.155 698.52 909.689 698.267 908.382 697.76C907.075 697.253 905.955 696.533 905.022 695.6C904.089 694.64 903.369 693.493 902.862 692.16C902.355 690.827 902.102 689.333 902.102 687.68ZM950.835 698H944.995L941.315 684.12H941.235L937.715 698H931.835L925.275 677.32H931.275L935.075 691.36H935.155L938.595 677.32H944.115L947.635 691.32H947.715L951.515 677.32H957.355L950.835 698ZM973.693 685.44C973.427 684 972.947 682.907 972.253 682.16C971.587 681.413 970.56 681.04 969.173 681.04C968.267 681.04 967.507 681.2 966.893 681.52C966.307 681.813 965.827 682.187 965.453 682.64C965.107 683.093 964.853 683.573 964.693 684.08C964.56 684.587 964.48 685.04 964.453 685.44H973.693ZM964.453 689.04C964.533 690.88 965 692.213 965.853 693.04C966.707 693.867 967.933 694.28 969.533 694.28C970.68 694.28 971.667 694 972.493 693.44C973.32 692.853 973.827 692.24 974.013 691.6H979.013C978.213 694.08 976.987 695.853 975.333 696.92C973.68 697.987 971.68 698.52 969.333 698.52C967.707 698.52 966.24 698.267 964.933 697.76C963.627 697.227 962.52 696.48 961.613 695.52C960.707 694.56 960 693.413 959.493 692.08C959.013 690.747 958.773 689.28 958.773 687.68C958.773 686.133 959.027 684.693 959.533 683.36C960.04 682.027 960.76 680.88 961.693 679.92C962.627 678.933 963.733 678.16 965.013 677.6C966.32 677.04 967.76 676.76 969.333 676.76C971.093 676.76 972.627 677.107 973.933 677.8C975.24 678.467 976.307 679.373 977.133 680.52C977.987 681.667 978.6 682.973 978.973 684.44C979.347 685.907 979.48 687.44 979.373 689.04H964.453ZM982.742 677.32H988.142V681.16H988.222C988.489 680.52 988.849 679.933 989.302 679.4C989.755 678.84 990.275 678.373 990.862 678C991.449 677.6 992.075 677.293 992.742 677.08C993.409 676.867 994.102 676.76 994.822 676.76C995.195 676.76 995.609 676.827 996.062 676.96V682.24C995.795 682.187 995.475 682.147 995.102 682.12C994.729 682.067 994.369 682.04 994.022 682.04C992.982 682.04 992.102 682.213 991.382 682.56C990.662 682.907 990.075 683.387 989.622 684C989.195 684.587 988.889 685.28 988.702 686.08C988.515 686.88 988.422 687.747 988.422 688.68V698H982.742V677.32ZM999.529 681.12H996.129V677.32H999.529V675.72C999.529 673.88 1000.1 672.373 1001.25 671.2C1002.4 670.027 1004.13 669.44 1006.45 669.44C1006.96 669.44 1007.46 669.467 1007.97 669.52C1008.48 669.547 1008.97 669.573 1009.45 669.6V673.84C1008.78 673.76 1008.09 673.72 1007.37 673.72C1006.6 673.72 1006.04 673.907 1005.69 674.28C1005.37 674.627 1005.21 675.227 1005.21 676.08V677.32H1009.13V681.12H1005.21V698H999.529V681.12ZM1031.01 698H1025.61V695.12H1025.49C1024.77 696.32 1023.84 697.187 1022.69 697.72C1021.54 698.253 1020.37 698.52 1019.17 698.52C1017.65 698.52 1016.4 698.32 1015.41 697.92C1014.45 697.52 1013.69 696.96 1013.13 696.24C1012.57 695.493 1012.17 694.6 1011.93 693.56C1011.72 692.493 1011.61 691.32 1011.61 690.04V677.32H1017.29V689C1017.29 690.707 1017.56 691.987 1018.09 692.84C1018.62 693.667 1019.57 694.08 1020.93 694.08C1022.48 694.08 1023.6 693.627 1024.29 692.72C1024.98 691.787 1025.33 690.267 1025.33 688.16V677.32H1031.01V698ZM1035.48 669.44H1041.16V698H1035.48V669.44ZM1045.87 691.84H1052.15V698H1045.87V691.84Z" fill="black"/>
<path d="M574.3 606.2C574.3 604 574.067 601.9 573.6 599.9C573.133 597.9 572.4 596.133 571.4 594.6C570.4 593.067 569.133 591.867 567.6 591C566.133 590.067 564.333 589.6 562.2 589.6C560.133 589.6 558.333 590.067 556.8 591C555.267 591.867 554 593.067 553 594.6C552 596.133 551.267 597.9 550.8 599.9C550.333 601.9 550.1 604 550.1 606.2C550.1 608.333 550.333 610.4 550.8 612.4C551.267 614.4 552 616.167 553 617.7C554 619.233 555.267 620.467 556.8 621.4C558.333 622.267 560.133 622.7 562.2 622.7C564.333 622.7 566.133 622.267 567.6 621.4C569.133 620.467 570.4 619.233 571.4 617.7C572.4 616.167 573.133 614.4 573.6 612.4C574.067 610.4 574.3 608.333 574.3 606.2ZM536.4 560.6H550.6V586.6H550.8C552.533 583.933 554.867 582 557.8 580.8C560.8 579.533 563.9 578.9 567.1 578.9C569.7 578.9 572.267 579.433 574.8 580.5C577.333 581.567 579.6 583.2 581.6 585.4C583.667 587.6 585.333 590.433 586.6 593.9C587.867 597.3 588.5 601.367 588.5 606.1C588.5 610.833 587.867 614.933 586.6 618.4C585.333 621.8 583.667 624.6 581.6 626.8C579.6 629 577.333 630.633 574.8 631.7C572.267 632.767 569.7 633.3 567.1 633.3C563.3 633.3 559.9 632.7 556.9 631.5C553.9 630.3 551.633 628.267 550.1 625.4H549.9V632H536.4V560.6ZM596.933 596.2C597.133 592.867 597.966 590.1 599.433 587.9C600.899 585.7 602.766 583.933 605.033 582.6C607.299 581.267 609.833 580.333 612.633 579.8C615.499 579.2 618.366 578.9 621.233 578.9C623.833 578.9 626.466 579.1 629.133 579.5C631.799 579.833 634.233 580.533 636.433 581.6C638.633 582.667 640.433 584.167 641.833 586.1C643.233 587.967 643.933 590.467 643.933 593.6V620.5C643.933 622.833 644.066 625.067 644.333 627.2C644.599 629.333 645.066 630.933 645.733 632H631.333C631.066 631.2 630.833 630.4 630.633 629.6C630.499 628.733 630.399 627.867 630.333 627C628.066 629.333 625.399 630.967 622.333 631.9C619.266 632.833 616.133 633.3 612.933 633.3C610.466 633.3 608.166 633 606.033 632.4C603.899 631.8 602.033 630.867 600.433 629.6C598.833 628.333 597.566 626.733 596.633 624.8C595.766 622.867 595.333 620.567 595.333 617.9C595.333 614.967 595.833 612.567 596.833 610.7C597.899 608.767 599.233 607.233 600.833 606.1C602.499 604.967 604.366 604.133 606.433 603.6C608.566 603 610.699 602.533 612.833 602.2C614.966 601.867 617.066 601.6 619.133 601.4C621.199 601.2 623.033 600.9 624.633 600.5C626.233 600.1 627.499 599.533 628.433 598.8C629.366 598 629.799 596.867 629.733 595.4C629.733 593.867 629.466 592.667 628.933 591.8C628.466 590.867 627.799 590.167 626.933 589.7C626.133 589.167 625.166 588.833 624.033 588.7C622.966 588.5 621.799 588.4 620.533 588.4C617.733 588.4 615.533 589 613.933 590.2C612.333 591.4 611.399 593.4 611.133 596.2H596.933ZM629.733 606.7C629.133 607.233 628.366 607.667 627.433 608C626.566 608.267 625.599 608.5 624.533 608.7C623.533 608.9 622.466 609.067 621.333 609.2C620.199 609.333 619.066 609.5 617.933 609.7C616.866 609.9 615.799 610.167 614.733 610.5C613.733 610.833 612.833 611.3 612.033 611.9C611.299 612.433 610.699 613.133 610.233 614C609.766 614.867 609.533 615.967 609.533 617.3C609.533 618.567 609.766 619.633 610.233 620.5C610.699 621.367 611.333 622.067 612.133 622.6C612.933 623.067 613.866 623.4 614.933 623.6C615.999 623.8 617.099 623.9 618.233 623.9C621.033 623.9 623.199 623.433 624.733 622.5C626.266 621.567 627.399 620.467 628.133 619.2C628.866 617.867 629.299 616.533 629.433 615.2C629.633 613.867 629.733 612.8 629.733 612V606.7ZM654.955 580.3H668.455V589.9H668.655C669.321 588.3 670.221 586.833 671.355 585.5C672.488 584.1 673.788 582.933 675.255 582C676.721 581 678.288 580.233 679.955 579.7C681.621 579.167 683.355 578.9 685.155 578.9C686.088 578.9 687.121 579.067 688.255 579.4V592.6C687.588 592.467 686.788 592.367 685.855 592.3C684.921 592.167 684.021 592.1 683.155 592.1C680.555 592.1 678.355 592.533 676.555 593.4C674.755 594.267 673.288 595.467 672.155 597C671.088 598.467 670.321 600.2 669.855 602.2C669.388 604.2 669.155 606.367 669.155 608.7V632H654.955V580.3ZM728.764 606C728.764 603.867 728.564 601.833 728.164 599.9C727.764 597.9 727.064 596.167 726.064 594.7C725.131 593.167 723.897 591.933 722.364 591C720.831 590.067 718.897 589.6 716.564 589.6C714.231 589.6 712.264 590.067 710.664 591C709.064 591.933 707.764 593.167 706.764 594.7C705.831 596.233 705.131 598 704.664 600C704.264 601.933 704.064 603.967 704.064 606.1C704.064 608.1 704.297 610.1 704.764 612.1C705.231 614.1 705.964 615.9 706.964 617.5C708.031 619.033 709.331 620.3 710.864 621.3C712.464 622.233 714.364 622.7 716.564 622.7C718.897 622.7 720.831 622.233 722.364 621.3C723.964 620.367 725.231 619.133 726.164 617.6C727.097 616 727.764 614.2 728.164 612.2C728.564 610.2 728.764 608.133 728.764 606ZM728.964 625.4H728.764C727.097 628.2 724.897 630.233 722.164 631.5C719.497 632.7 716.464 633.3 713.064 633.3C709.197 633.3 705.797 632.567 702.864 631.1C699.931 629.567 697.497 627.533 695.564 625C693.697 622.4 692.264 619.433 691.264 616.1C690.331 612.767 689.864 609.3 689.864 605.7C689.864 602.233 690.331 598.9 691.264 595.7C692.264 592.433 693.697 589.567 695.564 587.1C697.497 584.633 699.897 582.667 702.764 581.2C705.631 579.667 708.964 578.9 712.764 578.9C715.831 578.9 718.731 579.567 721.464 580.9C724.264 582.167 726.464 584.067 728.064 586.6H728.264V560.6H742.464V632H728.964V625.4ZM753.097 598.6H783.197V610.8H753.097V598.6ZM793.32 596.2C793.52 592.867 794.353 590.1 795.82 587.9C797.286 585.7 799.153 583.933 801.42 582.6C803.686 581.267 806.22 580.333 809.02 579.8C811.886 579.2 814.753 578.9 817.62 578.9C820.22 578.9 822.853 579.1 825.52 579.5C828.186 579.833 830.62 580.533 832.82 581.6C835.02 582.667 836.82 584.167 838.22 586.1C839.62 587.967 840.32 590.467 840.32 593.6V620.5C840.32 622.833 840.453 625.067 840.72 627.2C840.986 629.333 841.453 630.933 842.12 632H827.72C827.453 631.2 827.22 630.4 827.02 629.6C826.886 628.733 826.786 627.867 826.72 627C824.453 629.333 821.786 630.967 818.72 631.9C815.653 632.833 812.52 633.3 809.32 633.3C806.853 633.3 804.553 633 802.42 632.4C800.286 631.8 798.42 630.867 796.82 629.6C795.22 628.333 793.953 626.733 793.02 624.8C792.153 622.867 791.72 620.567 791.72 617.9C791.72 614.967 792.22 612.567 793.22 610.7C794.286 608.767 795.62 607.233 797.22 606.1C798.886 604.967 800.753 604.133 802.82 603.6C804.953 603 807.086 602.533 809.22 602.2C811.353 601.867 813.453 601.6 815.52 601.4C817.586 601.2 819.42 600.9 821.02 600.5C822.62 600.1 823.886 599.533 824.82 598.8C825.753 598 826.186 596.867 826.12 595.4C826.12 593.867 825.853 592.667 825.32 591.8C824.853 590.867 824.186 590.167 823.32 589.7C822.52 589.167 821.553 588.833 820.42 588.7C819.353 588.5 818.186 588.4 816.92 588.4C814.12 588.4 811.92 589 810.32 590.2C808.72 591.4 807.786 593.4 807.52 596.2H793.32ZM826.12 606.7C825.52 607.233 824.753 607.667 823.82 608C822.953 608.267 821.986 608.5 820.92 608.7C819.92 608.9 818.853 609.067 817.72 609.2C816.586 609.333 815.453 609.5 814.32 609.7C813.253 609.9 812.186 610.167 811.12 610.5C810.12 610.833 809.22 611.3 808.42 611.9C807.686 612.433 807.086 613.133 806.62 614C806.153 614.867 805.92 615.967 805.92 617.3C805.92 618.567 806.153 619.633 806.62 620.5C807.086 621.367 807.72 622.067 808.52 622.6C809.32 623.067 810.253 623.4 811.32 623.6C812.386 623.8 813.486 623.9 814.62 623.9C817.42 623.9 819.586 623.433 821.12 622.5C822.653 621.567 823.786 620.467 824.52 619.2C825.253 617.867 825.686 616.533 825.82 615.2C826.02 613.867 826.12 612.8 826.12 612V606.7ZM865.941 572.3H851.741V560.6H865.941V572.3ZM851.741 580.3H865.941V632H851.741V580.3Z" fill="black"/>
<path d="M923 632H907.2L889.5 580.3H904.4L915.3 615.6H915.5L926.4 580.3H940.5L923 632ZM944.653 588.9C944.52 584.9 944.986 581.2 946.053 577.8C947.12 574.333 948.72 571.333 950.853 568.8C952.986 566.2 955.653 564.2 958.853 562.8C962.12 561.333 965.853 560.6 970.053 560.6C973.253 560.6 976.286 561.1 979.153 562.1C982.086 563.1 984.653 564.533 986.853 566.4C989.053 568.267 990.786 570.567 992.053 573.3C993.386 576.033 994.053 579.1 994.053 582.5C994.053 586.033 993.486 589.067 992.353 591.6C991.22 594.133 989.72 596.4 987.853 598.4C985.986 600.333 983.853 602.1 981.453 603.7C979.12 605.3 976.753 606.9 974.353 608.5C971.953 610.033 969.62 611.7 967.353 613.5C965.086 615.3 963.086 617.4 961.353 619.8H994.453V632H943.053C943.053 627.933 943.62 624.4 944.753 621.4C945.953 618.4 947.553 615.733 949.553 613.4C951.553 611 953.886 608.8 956.553 606.8C959.286 604.8 962.153 602.767 965.153 600.7C966.686 599.633 968.32 598.567 970.053 597.5C971.786 596.367 973.353 595.133 974.753 593.8C976.22 592.467 977.42 590.967 978.353 589.3C979.353 587.633 979.853 585.733 979.853 583.6C979.853 580.2 978.853 577.567 976.853 575.7C974.92 573.767 972.42 572.8 969.353 572.8C967.286 572.8 965.52 573.3 964.053 574.3C962.653 575.233 961.52 576.5 960.653 578.1C959.786 579.633 959.153 581.367 958.753 583.3C958.42 585.167 958.253 587.033 958.253 588.9H944.653Z" fill="url(#paint0_radial_250_47)"/>
<rect x="580.108" y="164" width="327.786" height="339" rx="128" fill="url(#paint1_radial_250_47)"/>
<g filter="url(#filter4_i_250_47)">
<rect x="594.772" y="179.527" width="298.458" height="307.947" rx="128" fill="url(#paint2_linear_250_47)"/>
</g>
<g clip-path="url(#clip1_250_47)">
<g filter="url(#filter5_d_250_47)">
<path d="M739.995 366.597L732.322 384.173C729.372 390.929 720.023 390.929 717.073 384.173L709.399 366.597C702.57 350.956 690.278 338.506 674.946 331.7L653.824 322.324C647.108 319.343 647.108 309.574 653.824 306.593L674.286 297.51C690.013 290.529 702.525 277.617 709.238 261.442L717.011 242.712C719.896 235.761 729.499 235.761 732.384 242.712L740.157 261.442C746.87 277.617 759.382 290.529 775.109 297.51L795.571 306.593C802.287 309.574 802.287 319.343 795.571 322.324L774.449 331.7C759.117 338.506 746.825 350.956 739.995 366.597Z" fill="url(#paint3_radial_250_47)"/>
</g>
<g filter="url(#filter6_d_250_47)">
<path d="M811.31 422.017L809.152 426.963C807.572 430.584 802.558 430.584 800.979 426.963L798.821 422.017C794.974 413.198 788.045 406.176 779.399 402.335L772.75 399.381C769.154 397.784 769.154 392.557 772.75 390.96L779.027 388.171C787.895 384.231 794.949 376.949 798.729 367.831L800.946 362.486C802.49 358.761 807.64 358.761 809.185 362.486L811.401 367.831C815.182 376.949 822.235 384.231 831.104 388.171L837.381 390.96C840.977 392.557 840.977 397.784 837.381 399.381L830.732 402.335C822.086 406.176 815.157 413.198 811.31 422.017Z" fill="url(#paint4_radial_250_47)"/>
</g>
</g>
</g>
<defs>
<filter id="filter0_f_250_47" x="322.981" y="-20.4733" width="686.453" height="546.415" filterUnits="userSpaceOnUse" color-interpolation-filters="sRGB">
<feFlood flood-opacity="0" result="BackgroundImageFix"/>
<feBlend mode="normal" in="SourceGraphic" in2="BackgroundImageFix" result="shape"/>
<feGaussianBlur stdDeviation="100" result="effect1_foregroundBlur_250_47"/>
</filter>
<filter id="filter1_f_250_47" x="525.112" y="-5.29616" width="625.853" height="501.776" filterUnits="userSpaceOnUse" color-interpolation-filters="sRGB">
<feFlood flood-opacity="0" result="BackgroundImageFix"/>
<feBlend mode="normal" in="SourceGraphic" in2="BackgroundImageFix" result="shape"/>
<feGaussianBlur stdDeviation="100" result="effect1_foregroundBlur_250_47"/>
</filter>
<filter id="filter2_f_250_47" x="320.589" y="96.4799" width="744.262" height="577.364" filterUnits="userSpaceOnUse" color-interpolation-filters="sRGB">
<feFlood flood-opacity="0" result="BackgroundImageFix"/>
<feBlend mode="normal" in="SourceGraphic" in2="BackgroundImageFix" result="shape"/>
<feGaussianBlur stdDeviation="100" result="effect1_foregroundBlur_250_47"/>
</filter>
<filter id="filter3_f_250_47" x="525.428" y="87.4923" width="642" height="599.981" filterUnits="userSpaceOnUse" color-interpolation-filters="sRGB">
<feFlood flood-opacity="0" result="BackgroundImageFix"/>
<feBlend mode="normal" in="SourceGraphic" in2="BackgroundImageFix" result="shape"/>
<feGaussianBlur stdDeviation="100" result="effect1_foregroundBlur_250_47"/>
</filter>
<filter id="filter4_i_250_47" x="594.772" y="179.527" width="298.458" height="311.947" filterUnits="userSpaceOnUse" color-interpolation-filters="sRGB">
<feFlood flood-opacity="0" result="BackgroundImageFix"/>
<feBlend mode="normal" in="SourceGraphic" in2="BackgroundImageFix" result="shape"/>
<feColorMatrix in="SourceAlpha" type="matrix" values="0 0 0 0 0 0 0 0 0 0 0 0 0 0 0 0 0 0 127 0" result="hardAlpha"/>
<feOffset dy="4"/>
<feGaussianBlur stdDeviation="5"/>
<feComposite in2="hardAlpha" operator="arithmetic" k2="-1" k3="1"/>
<feColorMatrix type="matrix" values="0 0 0 0 0 0 0 0 0 0 0 0 0 0 0 0 0 0 0.25 0"/>
<feBlend mode="normal" in2="shape" result="effect1_innerShadow_250_47"/>
</filter>
<filter id="filter5_d_250_47" x="644.787" y="233.499" width="159.821" height="159.741" filterUnits="userSpaceOnUse" color-interpolation-filters="sRGB">
<feFlood flood-opacity="0" result="BackgroundImageFix"/>
<feColorMatrix in="SourceAlpha" type="matrix" values="0 0 0 0 0 0 0 0 0 0 0 0 0 0 0 0 0 0 127 0" result="hardAlpha"/>
<feOffset/>
<feGaussianBlur stdDeviation="2"/>
<feComposite in2="hardAlpha" operator="out"/>
<feColorMatrix type="matrix" values="0 0 0 0 0 0 0 0 0 0 0 0 0 0 0 0 0 0 0.25 0"/>
<feBlend mode="normal" in2="BackgroundImageFix" result="effect1_dropShadow_250_47"/>
<feBlend mode="normal" in="SourceGraphic" in2="effect1_dropShadow_250_47" result="shape"/>
</filter>
<filter id="filter6_d_250_47" x="766.053" y="355.692" width="78.0249" height="77.987" filterUnits="userSpaceOnUse" color-interpolation-filters="sRGB">
<feFlood flood-opacity="0" result="BackgroundImageFix"/>
<feColorMatrix in="SourceAlpha" type="matrix" values="0 0 0 0 0 0 0 0 0 0 0 0 0 0 0 0 0 0 127 0" result="hardAlpha"/>
<feOffset/>
<feGaussianBlur stdDeviation="2"/>
<feComposite in2="hardAlpha" operator="out"/>
<feColorMatrix type="matrix" values="0 0 0 0 0 0 0 0 0 0 0 0 0 0 0 0 0 0 0.25 0"/>
<feBlend mode="normal" in2="BackgroundImageFix" result="effect1_dropShadow_250_47"/>
<feBlend mode="normal" in="SourceGraphic" in2="effect1_dropShadow_250_47" result="shape"/>
</filter>
<radialGradient id="paint0_radial_250_47" cx="0" cy="0" r="1" gradientUnits="userSpaceOnUse" gradientTransform="translate(889 551.5) rotate(45.7004) scale(144.614 248.943)">
<stop stop-color="#1BA1E3"/>
<stop offset="0.0001" stop-color="#1BA1E3"/>
<stop offset="0.300221" stop-color="#5489D6"/>
<stop offset="0.545524" stop-color="#9B72CB"/>
<stop offset="0.825372" stop-color="#D96570"/>
<stop offset="1" stop-color="#F49C46"/>
</radialGradient>
<radialGradient id="paint1_radial_250_47" cx="0" cy="0" r="1" gradientUnits="userSpaceOnUse" gradientTransform="translate(568.935 -19.8016) rotate(79.2234) scale(573.432 555.807)">
<stop stop-color="#1BA1E3"/>
<stop offset="0.0001" stop-color="#1BA1E3"/>
<stop offset="0.300221" stop-color="#5489D6"/>
<stop offset="0.545524" stop-color="#9B72CB"/>
<stop offset="0.825372" stop-color="#D96570"/>
<stop offset="1" stop-color="#F49C46"/>
</radialGradient>
<linearGradient id="paint2_linear_250_47" x1="594.772" y1="179.527" x2="902.568" y2="477.839" gradientUnits="userSpaceOnUse">
<stop stop-color="white"/>
<stop offset="1" stop-color="#E3E3E3"/>
</linearGradient>
<radialGradient id="paint3_radial_250_47" cx="0" cy="0" r="1" gradientUnits="userSpaceOnUse" gradientTransform="translate(767.666 321.746) rotate(78.858) scale(118.532 118.59)">
<stop stop-color="#1BA1E3"/>
<stop offset="0.0001" stop-color="#1BA1E3"/>
<stop offset="0.300221" stop-color="#5489D6"/>
<stop offset="0.545524" stop-color="#9B72CB"/>
<stop offset="0.825372" stop-color="#D96570"/>
<stop offset="1" stop-color="#F49C46"/>
</radialGradient>
<radialGradient id="paint4_radial_250_47" cx="0" cy="0" r="1" gradientUnits="userSpaceOnUse" gradientTransform="translate(767.666 321.746) rotate(78.858) scale(118.532 118.59)">
<stop stop-color="#1BA1E3"/>
<stop offset="0.0001" stop-color="#1BA1E3"/>
<stop offset="0.300221" stop-color="#5489D6"/>
<stop offset="0.545524" stop-color="#9B72CB"/>
<stop offset="0.825372" stop-color="#D96570"/>
<stop offset="1" stop-color="#F49C46"/>
</radialGradient>
<clipPath id="clip0_250_47">
<rect width="1538" height="760" rx="50" fill="white"/>
</clipPath>
<clipPath id="clip1_250_47">
<rect width="192.359" height="192.359" fill="white" transform="translate(648.253 237.321)"/>
</clipPath>
</defs>
</svg>
