<svg width="1538" height="809" viewBox="0 0 1538 809" fill="none" xmlns="http://www.w3.org/2000/svg">
<g filter="url(#filter0_f_250_47)">
<path d="M522.981 353.251L544.801 269.36L660.758 230.527L782.949 243.273C782.949 243.273 837.187 261.949 790.43 306.71C743.673 351.472 721.854 331.907 684.448 364.812C647.043 397.716 522.981 353.251 522.981 353.251Z" fill="#BF6B97"/>
</g>
<g filter="url(#filter1_f_250_47)">
<path d="M770.607 327.157C715.865 323.04 731.994 308.337 726.618 273.933C721.241 239.529 731.994 255.408 731.994 255.408L833.66 245.704L936.302 283.637L950.966 331.567C950.966 331.567 936.302 348.328 875.694 347.446C815.086 346.564 825.35 331.273 770.607 327.157Z" fill="#B26EAA"/>
</g>
<g filter="url(#filter2_f_250_47)">
<path d="M619.192 356.631C548.901 339.815 533.768 351.321 533.768 351.321L520.589 484.083L703.639 505.62C751.638 488.705 711.265 544.564 747.083 517.126C789.062 484.968 808.587 509.456 850.567 484.083C892.546 458.711 831.529 417.112 801.753 406.786C771.977 396.46 713.401 418.292 688.995 402.656C664.588 387.019 689.483 373.448 619.192 356.631Z" fill="#2B9BE0"/>
</g>
<g filter="url(#filter3_f_250_47)">
<path d="M888.875 346.35C914.734 330.168 967.428 343.996 967.428 343.996L927.42 538.473L725.428 524.939C725.428 524.939 738.601 468.744 758.605 444.618C778.609 420.492 796.662 419.021 824.96 410.195C853.258 401.368 863.016 362.532 888.875 346.35Z" fill="#F49B48"/>
</g>
<path d="M486.155 730.44H494.995L501.675 750.08H501.755L508.075 730.44H516.915V759H511.035V738.76H510.955L503.955 759H499.115L492.115 738.96H492.035V759H486.155V730.44ZM526.884 748.68C526.884 749.507 526.964 750.32 527.124 751.12C527.284 751.893 527.55 752.6 527.924 753.24C528.324 753.853 528.844 754.347 529.484 754.72C530.124 755.093 530.924 755.28 531.884 755.28C532.844 755.28 533.644 755.093 534.284 754.72C534.95 754.347 535.47 753.853 535.844 753.24C536.244 752.6 536.524 751.893 536.684 751.12C536.844 750.32 536.924 749.507 536.924 748.68C536.924 747.853 536.844 747.04 536.684 746.24C536.524 745.44 536.244 744.733 535.844 744.12C535.47 743.507 534.95 743.013 534.284 742.64C533.644 742.24 532.844 742.04 531.884 742.04C530.924 742.04 530.124 742.24 529.484 742.64C528.844 743.013 528.324 743.507 527.924 744.12C527.55 744.733 527.284 745.44 527.124 746.24C526.964 747.04 526.884 747.853 526.884 748.68ZM521.204 748.68C521.204 747.027 521.457 745.533 521.964 744.2C522.47 742.84 523.19 741.693 524.124 740.76C525.057 739.8 526.177 739.067 527.484 738.56C528.79 738.027 530.257 737.76 531.884 737.76C533.51 737.76 534.977 738.027 536.284 738.56C537.617 739.067 538.75 739.8 539.684 740.76C540.617 741.693 541.337 742.84 541.844 744.2C542.35 745.533 542.604 747.027 542.604 748.68C542.604 750.333 542.35 751.827 541.844 753.16C541.337 754.493 540.617 755.64 539.684 756.6C538.75 757.533 537.617 758.253 536.284 758.76C534.977 759.267 533.51 759.52 531.884 759.52C530.257 759.52 528.79 759.267 527.484 758.76C526.177 758.253 525.057 757.533 524.124 756.6C523.19 755.64 522.47 754.493 521.964 753.16C521.457 751.827 521.204 750.333 521.204 748.68ZM546.297 738.32H551.697V742.16H551.777C552.043 741.52 552.403 740.933 552.857 740.4C553.31 739.84 553.83 739.373 554.417 739C555.003 738.6 555.63 738.293 556.297 738.08C556.963 737.867 557.657 737.76 558.377 737.76C558.75 737.76 559.163 737.827 559.617 737.96V743.24C559.35 743.187 559.03 743.147 558.657 743.12C558.283 743.067 557.923 743.04 557.577 743.04C556.537 743.04 555.657 743.213 554.937 743.56C554.217 743.907 553.63 744.387 553.177 745C552.75 745.587 552.443 746.28 552.257 747.08C552.07 747.88 551.977 748.747 551.977 749.68V759H546.297V738.32ZM575.06 746.44C574.794 745 574.314 743.907 573.62 743.16C572.954 742.413 571.927 742.04 570.54 742.04C569.634 742.04 568.874 742.2 568.26 742.52C567.674 742.813 567.194 743.187 566.82 743.64C566.474 744.093 566.22 744.573 566.06 745.08C565.927 745.587 565.847 746.04 565.82 746.44H575.06ZM565.82 750.04C565.9 751.88 566.367 753.213 567.22 754.04C568.074 754.867 569.3 755.28 570.9 755.28C572.047 755.28 573.034 755 573.86 754.44C574.687 753.853 575.194 753.24 575.38 752.6H580.38C579.58 755.08 578.354 756.853 576.7 757.92C575.047 758.987 573.047 759.52 570.7 759.52C569.074 759.52 567.607 759.267 566.3 758.76C564.994 758.227 563.887 757.48 562.98 756.52C562.074 755.56 561.367 754.413 560.86 753.08C560.38 751.747 560.14 750.28 560.14 748.68C560.14 747.133 560.394 745.693 560.9 744.36C561.407 743.027 562.127 741.88 563.06 740.92C563.994 739.933 565.1 739.16 566.38 738.6C567.687 738.04 569.127 737.76 570.7 737.76C572.46 737.76 573.994 738.107 575.3 738.8C576.607 739.467 577.674 740.373 578.5 741.52C579.354 742.667 579.967 743.973 580.34 745.44C580.714 746.907 580.847 748.44 580.74 750.04H565.82ZM609.322 745.6C608.949 743.227 607.549 742.04 605.122 742.04C604.215 742.04 603.455 742.253 602.842 742.68C602.229 743.08 601.722 743.613 601.322 744.28C600.949 744.92 600.682 745.64 600.522 746.44C600.362 747.213 600.282 747.987 600.282 748.76C600.282 749.507 600.362 750.267 600.522 751.04C600.682 751.813 600.935 752.52 601.282 753.16C601.655 753.773 602.149 754.28 602.762 754.68C603.375 755.08 604.122 755.28 605.002 755.28C606.362 755.28 607.402 754.907 608.122 754.16C608.869 753.387 609.335 752.36 609.522 751.08H615.002C614.629 753.827 613.562 755.92 611.802 757.36C610.042 758.8 607.789 759.52 605.042 759.52C603.495 759.52 602.069 759.267 600.762 758.76C599.482 758.227 598.389 757.493 597.482 756.56C596.575 755.627 595.869 754.52 595.362 753.24C594.855 751.933 594.602 750.507 594.602 748.96C594.602 747.36 594.829 745.88 595.282 744.52C595.762 743.133 596.455 741.947 597.362 740.96C598.269 739.947 599.375 739.16 600.682 738.6C601.989 738.04 603.482 737.76 605.162 737.76C606.389 737.76 607.562 737.92 608.682 738.24C609.829 738.56 610.842 739.053 611.722 739.72C612.629 740.36 613.362 741.173 613.922 742.16C614.482 743.12 614.802 744.267 614.882 745.6H609.322ZM617.971 744.68C618.051 743.347 618.384 742.24 618.971 741.36C619.557 740.48 620.304 739.773 621.211 739.24C622.117 738.707 623.131 738.333 624.251 738.12C625.397 737.88 626.544 737.76 627.691 737.76C628.731 737.76 629.784 737.84 630.851 738C631.917 738.133 632.891 738.413 633.771 738.84C634.651 739.267 635.371 739.867 635.931 740.64C636.491 741.387 636.771 742.387 636.771 743.64V754.4C636.771 755.333 636.824 756.227 636.931 757.08C637.037 757.933 637.224 758.573 637.491 759H631.731C631.624 758.68 631.531 758.36 631.451 758.04C631.397 757.693 631.357 757.347 631.331 757C630.424 757.933 629.357 758.587 628.131 758.96C626.904 759.333 625.651 759.52 624.371 759.52C623.384 759.52 622.464 759.4 621.611 759.16C620.757 758.92 620.011 758.547 619.371 758.04C618.731 757.533 618.224 756.893 617.851 756.12C617.504 755.347 617.331 754.427 617.331 753.36C617.331 752.187 617.531 751.227 617.931 750.48C618.357 749.707 618.891 749.093 619.531 748.64C620.197 748.187 620.944 747.853 621.771 747.64C622.624 747.4 623.477 747.213 624.331 747.08C625.184 746.947 626.024 746.84 626.851 746.76C627.677 746.68 628.411 746.56 629.051 746.4C629.691 746.24 630.197 746.013 630.571 745.72C630.944 745.4 631.117 744.947 631.091 744.36C631.091 743.747 630.984 743.267 630.771 742.92C630.584 742.547 630.317 742.267 629.971 742.08C629.651 741.867 629.264 741.733 628.811 741.68C628.384 741.6 627.917 741.56 627.411 741.56C626.291 741.56 625.411 741.8 624.771 742.28C624.131 742.76 623.757 743.56 623.651 744.68H617.971ZM631.091 748.88C630.851 749.093 630.544 749.267 630.171 749.4C629.824 749.507 629.437 749.6 629.011 749.68C628.611 749.76 628.184 749.827 627.731 749.88C627.277 749.933 626.824 750 626.371 750.08C625.944 750.16 625.517 750.267 625.091 750.4C624.691 750.533 624.331 750.72 624.011 750.96C623.717 751.173 623.477 751.453 623.291 751.8C623.104 752.147 623.011 752.587 623.011 753.12C623.011 753.627 623.104 754.053 623.291 754.4C623.477 754.747 623.731 755.027 624.051 755.24C624.371 755.427 624.744 755.56 625.171 755.64C625.597 755.72 626.037 755.76 626.491 755.76C627.611 755.76 628.477 755.573 629.091 755.2C629.704 754.827 630.157 754.387 630.451 753.88C630.744 753.347 630.917 752.813 630.971 752.28C631.051 751.747 631.091 751.32 631.091 751V748.88ZM651.62 755.28C652.553 755.28 653.326 755.093 653.94 754.72C654.58 754.347 655.086 753.867 655.46 753.28C655.86 752.667 656.14 751.96 656.3 751.16C656.46 750.36 656.54 749.547 656.54 748.72C656.54 747.893 656.446 747.08 656.26 746.28C656.1 745.48 655.82 744.773 655.42 744.16C655.02 743.52 654.5 743.013 653.86 742.64C653.246 742.24 652.486 742.04 651.58 742.04C650.646 742.04 649.86 742.24 649.22 742.64C648.606 743.013 648.1 743.507 647.7 744.12C647.326 744.733 647.06 745.44 646.9 746.24C646.74 747.04 646.66 747.867 646.66 748.72C646.66 749.547 646.74 750.36 646.9 751.16C647.086 751.96 647.366 752.667 647.74 753.28C648.14 753.867 648.66 754.347 649.3 754.72C649.94 755.093 650.713 755.28 651.62 755.28ZM641.18 738.32H646.58V740.96H646.66C647.353 739.84 648.233 739.027 649.3 738.52C650.366 738.013 651.54 737.76 652.82 737.76C654.446 737.76 655.846 738.067 657.02 738.68C658.193 739.293 659.166 740.107 659.94 741.12C660.713 742.133 661.286 743.32 661.66 744.68C662.033 746.013 662.22 747.413 662.22 748.88C662.22 750.267 662.033 751.6 661.66 752.88C661.286 754.16 660.713 755.293 659.94 756.28C659.193 757.267 658.246 758.053 657.1 758.64C655.98 759.227 654.66 759.52 653.14 759.52C651.86 759.52 650.673 759.267 649.58 758.76C648.513 758.227 647.633 757.453 646.94 756.44H646.86V766.24H641.18V738.32ZM665.393 744.68C665.473 743.347 665.806 742.24 666.393 741.36C666.979 740.48 667.726 739.773 668.633 739.24C669.539 738.707 670.553 738.333 671.673 738.12C672.819 737.88 673.966 737.76 675.113 737.76C676.153 737.76 677.206 737.84 678.273 738C679.339 738.133 680.313 738.413 681.193 738.84C682.073 739.267 682.793 739.867 683.353 740.64C683.913 741.387 684.193 742.387 684.193 743.64V754.4C684.193 755.333 684.246 756.227 684.353 757.08C684.459 757.933 684.646 758.573 684.913 759H679.153C679.046 758.68 678.953 758.36 678.873 758.04C678.819 757.693 678.779 757.347 678.753 757C677.846 757.933 676.779 758.587 675.553 758.96C674.326 759.333 673.073 759.52 671.793 759.52C670.806 759.52 669.886 759.4 669.033 759.16C668.179 758.92 667.433 758.547 666.793 758.04C666.153 757.533 665.646 756.893 665.273 756.12C664.926 755.347 664.753 754.427 664.753 753.36C664.753 752.187 664.953 751.227 665.353 750.48C665.779 749.707 666.313 749.093 666.953 748.64C667.619 748.187 668.366 747.853 669.193 747.64C670.046 747.4 670.899 747.213 671.753 747.08C672.606 746.947 673.446 746.84 674.273 746.76C675.099 746.68 675.833 746.56 676.473 746.4C677.113 746.24 677.619 746.013 677.993 745.72C678.366 745.4 678.539 744.947 678.513 744.36C678.513 743.747 678.406 743.267 678.193 742.92C678.006 742.547 677.739 742.267 677.393 742.08C677.073 741.867 676.686 741.733 676.233 741.68C675.806 741.6 675.339 741.56 674.833 741.56C673.713 741.56 672.833 741.8 672.193 742.28C671.553 742.76 671.179 743.56 671.073 744.68H665.393ZM678.513 748.88C678.273 749.093 677.966 749.267 677.593 749.4C677.246 749.507 676.859 749.6 676.433 749.68C676.033 749.76 675.606 749.827 675.153 749.88C674.699 749.933 674.246 750 673.793 750.08C673.366 750.16 672.939 750.267 672.513 750.4C672.113 750.533 671.753 750.72 671.433 750.96C671.139 751.173 670.899 751.453 670.713 751.8C670.526 752.147 670.433 752.587 670.433 753.12C670.433 753.627 670.526 754.053 670.713 754.4C670.899 754.747 671.153 755.027 671.473 755.24C671.793 755.427 672.166 755.56 672.593 755.64C673.019 755.72 673.459 755.76 673.913 755.76C675.033 755.76 675.899 755.573 676.513 755.2C677.126 754.827 677.579 754.387 677.873 753.88C678.166 753.347 678.339 752.813 678.393 752.28C678.473 751.747 678.513 751.32 678.513 751V748.88ZM703.761 748.68C703.761 747.8 703.668 746.96 703.481 746.16C703.295 745.36 703.001 744.653 702.601 744.04C702.201 743.427 701.695 742.947 701.081 742.6C700.495 742.227 699.775 742.04 698.921 742.04C698.095 742.04 697.375 742.227 696.761 742.6C696.148 742.947 695.641 743.427 695.241 744.04C694.841 744.653 694.548 745.36 694.361 746.16C694.175 746.96 694.081 747.8 694.081 748.68C694.081 749.533 694.175 750.36 694.361 751.16C694.548 751.96 694.841 752.667 695.241 753.28C695.641 753.893 696.148 754.387 696.761 754.76C697.375 755.107 698.095 755.28 698.921 755.28C699.775 755.28 700.495 755.107 701.081 754.76C701.695 754.387 702.201 753.893 702.601 753.28C703.001 752.667 703.295 751.96 703.481 751.16C703.668 750.36 703.761 749.533 703.761 748.68ZM688.601 730.44H694.281V740.84H694.361C695.055 739.773 695.988 739 697.161 738.52C698.361 738.013 699.601 737.76 700.881 737.76C701.921 737.76 702.948 737.973 703.961 738.4C704.975 738.827 705.881 739.48 706.681 740.36C707.508 741.24 708.175 742.373 708.681 743.76C709.188 745.12 709.441 746.747 709.441 748.64C709.441 750.533 709.188 752.173 708.681 753.56C708.175 754.92 707.508 756.04 706.681 756.92C705.881 757.8 704.975 758.453 703.961 758.88C702.948 759.307 701.921 759.52 700.881 759.52C699.361 759.52 698.001 759.28 696.801 758.8C695.601 758.32 694.695 757.507 694.081 756.36H694.001V759H688.601V730.44ZM713.215 730.44H718.895V759H713.215V730.44ZM737.287 746.44C737.02 745 736.54 743.907 735.847 743.16C735.18 742.413 734.154 742.04 732.767 742.04C731.86 742.04 731.1 742.2 730.487 742.52C729.9 742.813 729.42 743.187 729.047 743.64C728.7 744.093 728.447 744.573 728.287 745.08C728.154 745.587 728.074 746.04 728.047 746.44H737.287ZM728.047 750.04C728.127 751.88 728.594 753.213 729.447 754.04C730.3 754.867 731.527 755.28 733.127 755.28C734.274 755.28 735.26 755 736.087 754.44C736.914 753.853 737.42 753.24 737.607 752.6H742.607C741.807 755.08 740.58 756.853 738.927 757.92C737.274 758.987 735.274 759.52 732.927 759.52C731.3 759.52 729.834 759.267 728.527 758.76C727.22 758.227 726.114 757.48 725.207 756.52C724.3 755.56 723.594 754.413 723.087 753.08C722.607 751.747 722.367 750.28 722.367 748.68C722.367 747.133 722.62 745.693 723.127 744.36C723.634 743.027 724.354 741.88 725.287 740.92C726.22 739.933 727.327 739.16 728.607 738.6C729.914 738.04 731.354 737.76 732.927 737.76C734.687 737.76 736.22 738.107 737.527 738.8C738.834 739.467 739.9 740.373 740.727 741.52C741.58 742.667 742.194 743.973 742.567 745.44C742.94 746.907 743.074 748.44 742.967 750.04H728.047ZM746.576 752.84H752.856V759H746.576V752.84ZM769.201 730.44H778.041L784.721 750.08H784.801L791.121 730.44H799.961V759H794.081V738.76H794.001L787.001 759H782.161L775.161 738.96H775.081V759H769.201V730.44ZM809.93 748.68C809.93 749.507 810.01 750.32 810.17 751.12C810.33 751.893 810.597 752.6 810.97 753.24C811.37 753.853 811.89 754.347 812.53 754.72C813.17 755.093 813.97 755.28 814.93 755.28C815.89 755.28 816.69 755.093 817.33 754.72C817.997 754.347 818.517 753.853 818.89 753.24C819.29 752.6 819.57 751.893 819.73 751.12C819.89 750.32 819.97 749.507 819.97 748.68C819.97 747.853 819.89 747.04 819.73 746.24C819.57 745.44 819.29 744.733 818.89 744.12C818.517 743.507 817.997 743.013 817.33 742.64C816.69 742.24 815.89 742.04 814.93 742.04C813.97 742.04 813.17 742.24 812.53 742.64C811.89 743.013 811.37 743.507 810.97 744.12C810.597 744.733 810.33 745.44 810.17 746.24C810.01 747.04 809.93 747.853 809.93 748.68ZM804.25 748.68C804.25 747.027 804.504 745.533 805.01 744.2C805.517 742.84 806.237 741.693 807.17 740.76C808.104 739.8 809.224 739.067 810.53 738.56C811.837 738.027 813.304 737.76 814.93 737.76C816.557 737.76 818.024 738.027 819.33 738.56C820.664 739.067 821.797 739.8 822.73 740.76C823.664 741.693 824.384 742.84 824.89 744.2C825.397 745.533 825.65 747.027 825.65 748.68C825.65 750.333 825.397 751.827 824.89 753.16C824.384 754.493 823.664 755.64 822.73 756.6C821.797 757.533 820.664 758.253 819.33 758.76C818.024 759.267 816.557 759.52 814.93 759.52C813.304 759.52 811.837 759.267 810.53 758.76C809.224 758.253 808.104 757.533 807.17 756.6C806.237 755.64 805.517 754.493 805.01 753.16C804.504 751.827 804.25 750.333 804.25 748.68ZM829.344 738.32H834.744V742.16H834.824C835.09 741.52 835.45 740.933 835.904 740.4C836.357 739.84 836.877 739.373 837.464 739C838.05 738.6 838.677 738.293 839.344 738.08C840.01 737.867 840.704 737.76 841.424 737.76C841.797 737.76 842.21 737.827 842.664 737.96V743.24C842.397 743.187 842.077 743.147 841.704 743.12C841.33 743.067 840.97 743.04 840.624 743.04C839.584 743.04 838.704 743.213 837.984 743.56C837.264 743.907 836.677 744.387 836.224 745C835.797 745.587 835.49 746.28 835.304 747.08C835.117 747.88 835.024 748.747 835.024 749.68V759H829.344V738.32ZM858.107 746.44C857.841 745 857.361 743.907 856.667 743.16C856.001 742.413 854.974 742.04 853.587 742.04C852.681 742.04 851.921 742.2 851.307 742.52C850.721 742.813 850.241 743.187 849.867 743.64C849.521 744.093 849.267 744.573 849.107 745.08C848.974 745.587 848.894 746.04 848.867 746.44H858.107ZM848.867 750.04C848.947 751.88 849.414 753.213 850.267 754.04C851.121 754.867 852.347 755.28 853.947 755.28C855.094 755.28 856.081 755 856.907 754.44C857.734 753.853 858.241 753.24 858.427 752.6H863.427C862.627 755.08 861.401 756.853 859.747 757.92C858.094 758.987 856.094 759.52 853.747 759.52C852.121 759.52 850.654 759.267 849.347 758.76C848.041 758.227 846.934 757.48 846.027 756.52C845.121 755.56 844.414 754.413 843.907 753.08C843.427 751.747 843.187 750.28 843.187 748.68C843.187 747.133 843.441 745.693 843.947 744.36C844.454 743.027 845.174 741.88 846.107 740.92C847.041 739.933 848.147 739.16 849.427 738.6C850.734 738.04 852.174 737.76 853.747 737.76C855.507 737.76 857.041 738.107 858.347 738.8C859.654 739.467 860.721 740.373 861.547 741.52C862.401 742.667 863.014 743.973 863.387 745.44C863.761 746.907 863.894 748.44 863.787 750.04H848.867ZM888.729 755.28C889.662 755.28 890.436 755.093 891.049 754.72C891.689 754.347 892.196 753.867 892.569 753.28C892.969 752.667 893.249 751.96 893.409 751.16C893.569 750.36 893.649 749.547 893.649 748.72C893.649 747.893 893.556 747.08 893.369 746.28C893.209 745.48 892.929 744.773 892.529 744.16C892.129 743.52 891.609 743.013 890.969 742.64C890.356 742.24 889.596 742.04 888.689 742.04C887.756 742.04 886.969 742.24 886.329 742.64C885.716 743.013 885.209 743.507 884.809 744.12C884.436 744.733 884.169 745.44 884.009 746.24C883.849 747.04 883.769 747.867 883.769 748.72C883.769 749.547 883.849 750.36 884.009 751.16C884.196 751.96 884.476 752.667 884.849 753.28C885.249 753.867 885.769 754.347 886.409 754.72C887.049 755.093 887.822 755.28 888.729 755.28ZM878.289 738.32H883.689V740.96H883.769C884.462 739.84 885.342 739.027 886.409 738.52C887.476 738.013 888.649 737.76 889.929 737.76C891.556 737.76 892.956 738.067 894.129 738.68C895.302 739.293 896.276 740.107 897.049 741.12C897.822 742.133 898.396 743.32 898.769 744.68C899.142 746.013 899.329 747.413 899.329 748.88C899.329 750.267 899.142 751.6 898.769 752.88C898.396 754.16 897.822 755.293 897.049 756.28C896.302 757.267 895.356 758.053 894.209 758.64C893.089 759.227 891.769 759.52 890.249 759.52C888.969 759.52 887.782 759.267 886.689 758.76C885.622 758.227 884.742 757.453 884.049 756.44H883.969V766.24H878.289V738.32ZM907.782 748.68C907.782 749.507 907.862 750.32 908.022 751.12C908.182 751.893 908.449 752.6 908.822 753.24C909.222 753.853 909.742 754.347 910.382 754.72C911.022 755.093 911.822 755.28 912.782 755.28C913.742 755.28 914.542 755.093 915.182 754.72C915.849 754.347 916.369 753.853 916.742 753.24C917.142 752.6 917.422 751.893 917.582 751.12C917.742 750.32 917.822 749.507 917.822 748.68C917.822 747.853 917.742 747.04 917.582 746.24C917.422 745.44 917.142 744.733 916.742 744.12C916.369 743.507 915.849 743.013 915.182 742.64C914.542 742.24 913.742 742.04 912.782 742.04C911.822 742.04 911.022 742.24 910.382 742.64C909.742 743.013 909.222 743.507 908.822 744.12C908.449 744.733 908.182 745.44 908.022 746.24C907.862 747.04 907.782 747.853 907.782 748.68ZM902.102 748.68C902.102 747.027 902.355 745.533 902.862 744.2C903.369 742.84 904.089 741.693 905.022 740.76C905.955 739.8 907.075 739.067 908.382 738.56C909.689 738.027 911.155 737.76 912.782 737.76C914.409 737.76 915.875 738.027 917.182 738.56C918.515 739.067 919.649 739.8 920.582 740.76C921.515 741.693 922.235 742.84 922.742 744.2C923.249 745.533 923.502 747.027 923.502 748.68C923.502 750.333 923.249 751.827 922.742 753.16C922.235 754.493 921.515 755.64 920.582 756.6C919.649 757.533 918.515 758.253 917.182 758.76C915.875 759.267 914.409 759.52 912.782 759.52C911.155 759.52 909.689 759.267 908.382 758.76C907.075 758.253 905.955 757.533 905.022 756.6C904.089 755.64 903.369 754.493 902.862 753.16C902.355 751.827 902.102 750.333 902.102 748.68ZM950.835 759H944.995L941.315 745.12H941.235L937.715 759H931.835L925.275 738.32H931.275L935.075 752.36H935.155L938.595 738.32H944.115L947.635 752.32H947.715L951.515 738.32H957.355L950.835 759ZM973.693 746.44C973.427 745 972.947 743.907 972.253 743.16C971.587 742.413 970.56 742.04 969.173 742.04C968.267 742.04 967.507 742.2 966.893 742.52C966.307 742.813 965.827 743.187 965.453 743.64C965.107 744.093 964.853 744.573 964.693 745.08C964.56 745.587 964.48 746.04 964.453 746.44H973.693ZM964.453 750.04C964.533 751.88 965 753.213 965.853 754.04C966.707 754.867 967.933 755.28 969.533 755.28C970.68 755.28 971.667 755 972.493 754.44C973.32 753.853 973.827 753.24 974.013 752.6H979.013C978.213 755.08 976.987 756.853 975.333 757.92C973.68 758.987 971.68 759.52 969.333 759.52C967.707 759.52 966.24 759.267 964.933 758.76C963.627 758.227 962.52 757.48 961.613 756.52C960.707 755.56 960 754.413 959.493 753.08C959.013 751.747 958.773 750.28 958.773 748.68C958.773 747.133 959.027 745.693 959.533 744.36C960.04 743.027 960.76 741.88 961.693 740.92C962.627 739.933 963.733 739.16 965.013 738.6C966.32 738.04 967.76 737.76 969.333 737.76C971.093 737.76 972.627 738.107 973.933 738.8C975.24 739.467 976.307 740.373 977.133 741.52C977.987 742.667 978.6 743.973 978.973 745.44C979.347 746.907 979.48 748.44 979.373 750.04H964.453ZM982.742 738.32H988.142V742.16H988.222C988.489 741.52 988.849 740.933 989.302 740.4C989.755 739.84 990.275 739.373 990.862 739C991.449 738.6 992.075 738.293 992.742 738.08C993.409 737.867 994.102 737.76 994.822 737.76C995.195 737.76 995.609 737.827 996.062 737.96V743.24C995.795 743.187 995.475 743.147 995.102 743.12C994.729 743.067 994.369 743.04 994.022 743.04C992.982 743.04 992.102 743.213 991.382 743.56C990.662 743.907 990.075 744.387 989.622 745C989.195 745.587 988.889 746.28 988.702 747.08C988.515 747.88 988.422 748.747 988.422 749.68V759H982.742V738.32ZM999.529 742.12H996.129V738.32H999.529V736.72C999.529 734.88 1000.1 733.373 1001.25 732.2C1002.4 731.027 1004.13 730.44 1006.45 730.44C1006.96 730.44 1007.46 730.467 1007.97 730.52C1008.48 730.547 1008.97 730.573 1009.45 730.6V734.84C1008.78 734.76 1008.09 734.72 1007.37 734.72C1006.6 734.72 1006.04 734.907 1005.69 735.28C1005.37 735.627 1005.21 736.227 1005.21 737.08V738.32H1009.13V742.12H1005.21V759H999.529V742.12ZM1031.01 759H1025.61V756.12H1025.49C1024.77 757.32 1023.84 758.187 1022.69 758.72C1021.54 759.253 1020.37 759.52 1019.17 759.52C1017.65 759.52 1016.4 759.32 1015.41 758.92C1014.45 758.52 1013.69 757.96 1013.13 757.24C1012.57 756.493 1012.17 755.6 1011.93 754.56C1011.72 753.493 1011.61 752.32 1011.61 751.04V738.32H1017.29V750C1017.29 751.707 1017.56 752.987 1018.09 753.84C1018.62 754.667 1019.57 755.08 1020.93 755.08C1022.48 755.08 1023.6 754.627 1024.29 753.72C1024.98 752.787 1025.33 751.267 1025.33 749.16V738.32H1031.01V759ZM1035.48 730.44H1041.16V759H1035.48V730.44ZM1045.87 752.84H1052.15V759H1045.87V752.84Z" fill="black"/>
<path d="M574.3 657.2C574.3 655 574.067 652.9 573.6 650.9C573.133 648.9 572.4 647.133 571.4 645.6C570.4 644.067 569.133 642.867 567.6 642C566.133 641.067 564.333 640.6 562.2 640.6C560.133 640.6 558.333 641.067 556.8 642C555.267 642.867 554 644.067 553 645.6C552 647.133 551.267 648.9 550.8 650.9C550.333 652.9 550.1 655 550.1 657.2C550.1 659.333 550.333 661.4 550.8 663.4C551.267 665.4 552 667.167 553 668.7C554 670.233 555.267 671.467 556.8 672.4C558.333 673.267 560.133 673.7 562.2 673.7C564.333 673.7 566.133 673.267 567.6 672.4C569.133 671.467 570.4 670.233 571.4 668.7C572.4 667.167 573.133 665.4 573.6 663.4C574.067 661.4 574.3 659.333 574.3 657.2ZM536.4 611.6H550.6V637.6H550.8C552.533 634.933 554.867 633 557.8 631.8C560.8 630.533 563.9 629.9 567.1 629.9C569.7 629.9 572.267 630.433 574.8 631.5C577.333 632.567 579.6 634.2 581.6 636.4C583.667 638.6 585.333 641.433 586.6 644.9C587.867 648.3 588.5 652.367 588.5 657.1C588.5 661.833 587.867 665.933 586.6 669.4C585.333 672.8 583.667 675.6 581.6 677.8C579.6 680 577.333 681.633 574.8 682.7C572.267 683.767 569.7 684.3 567.1 684.3C563.3 684.3 559.9 683.7 556.9 682.5C553.9 681.3 551.633 679.267 550.1 676.4H549.9V683H536.4V611.6ZM596.933 647.2C597.133 643.867 597.966 641.1 599.433 638.9C600.899 636.7 602.766 634.933 605.033 633.6C607.299 632.267 609.833 631.333 612.633 630.8C615.499 630.2 618.366 629.9 621.233 629.9C623.833 629.9 626.466 630.1 629.133 630.5C631.799 630.833 634.233 631.533 636.433 632.6C638.633 633.667 640.433 635.167 641.833 637.1C643.233 638.967 643.933 641.467 643.933 644.6V671.5C643.933 673.833 644.066 676.067 644.333 678.2C644.599 680.333 645.066 681.933 645.733 683H631.333C631.066 682.2 630.833 681.4 630.633 680.6C630.499 679.733 630.399 678.867 630.333 678C628.066 680.333 625.399 681.967 622.333 682.9C619.266 683.833 616.133 684.3 612.933 684.3C610.466 684.3 608.166 684 606.033 683.4C603.899 682.8 602.033 681.867 600.433 680.6C598.833 679.333 597.566 677.733 596.633 675.8C595.766 673.867 595.333 671.567 595.333 668.9C595.333 665.967 595.833 663.567 596.833 661.7C597.899 659.767 599.233 658.233 600.833 657.1C602.499 655.967 604.366 655.133 606.433 654.6C608.566 654 610.699 653.533 612.833 653.2C614.966 652.867 617.066 652.6 619.133 652.4C621.199 652.2 623.033 651.9 624.633 651.5C626.233 651.1 627.499 650.533 628.433 649.8C629.366 649 629.799 647.867 629.733 646.4C629.733 644.867 629.466 643.667 628.933 642.8C628.466 641.867 627.799 641.167 626.933 640.7C626.133 640.167 625.166 639.833 624.033 639.7C622.966 639.5 621.799 639.4 620.533 639.4C617.733 639.4 615.533 640 613.933 641.2C612.333 642.4 611.399 644.4 611.133 647.2H596.933ZM629.733 657.7C629.133 658.233 628.366 658.667 627.433 659C626.566 659.267 625.599 659.5 624.533 659.7C623.533 659.9 622.466 660.067 621.333 660.2C620.199 660.333 619.066 660.5 617.933 660.7C616.866 660.9 615.799 661.167 614.733 661.5C613.733 661.833 612.833 662.3 612.033 662.9C611.299 663.433 610.699 664.133 610.233 665C609.766 665.867 609.533 666.967 609.533 668.3C609.533 669.567 609.766 670.633 610.233 671.5C610.699 672.367 611.333 673.067 612.133 673.6C612.933 674.067 613.866 674.4 614.933 674.6C615.999 674.8 617.099 674.9 618.233 674.9C621.033 674.9 623.199 674.433 624.733 673.5C626.266 672.567 627.399 671.467 628.133 670.2C628.866 668.867 629.299 667.533 629.433 666.2C629.633 664.867 629.733 663.8 629.733 663V657.7ZM654.955 631.3H668.455V640.9H668.655C669.321 639.3 670.221 637.833 671.355 636.5C672.488 635.1 673.788 633.933 675.255 633C676.721 632 678.288 631.233 679.955 630.7C681.621 630.167 683.355 629.9 685.155 629.9C686.088 629.9 687.121 630.067 688.255 630.4V643.6C687.588 643.467 686.788 643.367 685.855 643.3C684.921 643.167 684.021 643.1 683.155 643.1C680.555 643.1 678.355 643.533 676.555 644.4C674.755 645.267 673.288 646.467 672.155 648C671.088 649.467 670.321 651.2 669.855 653.2C669.388 655.2 669.155 657.367 669.155 659.7V683H654.955V631.3ZM728.764 657C728.764 654.867 728.564 652.833 728.164 650.9C727.764 648.9 727.064 647.167 726.064 645.7C725.131 644.167 723.897 642.933 722.364 642C720.831 641.067 718.897 640.6 716.564 640.6C714.231 640.6 712.264 641.067 710.664 642C709.064 642.933 707.764 644.167 706.764 645.7C705.831 647.233 705.131 649 704.664 651C704.264 652.933 704.064 654.967 704.064 657.1C704.064 659.1 704.297 661.1 704.764 663.1C705.231 665.1 705.964 666.9 706.964 668.5C708.031 670.033 709.331 671.3 710.864 672.3C712.464 673.233 714.364 673.7 716.564 673.7C718.897 673.7 720.831 673.233 722.364 672.3C723.964 671.367 725.231 670.133 726.164 668.6C727.097 667 727.764 665.2 728.164 663.2C728.564 661.2 728.764 659.133 728.764 657ZM728.964 676.4H728.764C727.097 679.2 724.897 681.233 722.164 682.5C719.497 683.7 716.464 684.3 713.064 684.3C709.197 684.3 705.797 683.567 702.864 682.1C699.931 680.567 697.497 678.533 695.564 676C693.697 673.4 692.264 670.433 691.264 667.1C690.331 663.767 689.864 660.3 689.864 656.7C689.864 653.233 690.331 649.9 691.264 646.7C692.264 643.433 693.697 640.567 695.564 638.1C697.497 635.633 699.897 633.667 702.764 632.2C705.631 630.667 708.964 629.9 712.764 629.9C715.831 629.9 718.731 630.567 721.464 631.9C724.264 633.167 726.464 635.067 728.064 637.6H728.264V611.6H742.464V683H728.964V676.4ZM753.097 649.6H783.197V661.8H753.097V649.6ZM793.32 647.2C793.52 643.867 794.353 641.1 795.82 638.9C797.286 636.7 799.153 634.933 801.42 633.6C803.686 632.267 806.22 631.333 809.02 630.8C811.886 630.2 814.753 629.9 817.62 629.9C820.22 629.9 822.853 630.1 825.52 630.5C828.186 630.833 830.62 631.533 832.82 632.6C835.02 633.667 836.82 635.167 838.22 637.1C839.62 638.967 840.32 641.467 840.32 644.6V671.5C840.32 673.833 840.453 676.067 840.72 678.2C840.986 680.333 841.453 681.933 842.12 683H827.72C827.453 682.2 827.22 681.4 827.02 680.6C826.886 679.733 826.786 678.867 826.72 678C824.453 680.333 821.786 681.967 818.72 682.9C815.653 683.833 812.52 684.3 809.32 684.3C806.853 684.3 804.553 684 802.42 683.4C800.286 682.8 798.42 681.867 796.82 680.6C795.22 679.333 793.953 677.733 793.02 675.8C792.153 673.867 791.72 671.567 791.72 668.9C791.72 665.967 792.22 663.567 793.22 661.7C794.286 659.767 795.62 658.233 797.22 657.1C798.886 655.967 800.753 655.133 802.82 654.6C804.953 654 807.086 653.533 809.22 653.2C811.353 652.867 813.453 652.6 815.52 652.4C817.586 652.2 819.42 651.9 821.02 651.5C822.62 651.1 823.886 650.533 824.82 649.8C825.753 649 826.186 647.867 826.12 646.4C826.12 644.867 825.853 643.667 825.32 642.8C824.853 641.867 824.186 641.167 823.32 640.7C822.52 640.167 821.553 639.833 820.42 639.7C819.353 639.5 818.186 639.4 816.92 639.4C814.12 639.4 811.92 640 810.32 641.2C808.72 642.4 807.786 644.4 807.52 647.2H793.32ZM826.12 657.7C825.52 658.233 824.753 658.667 823.82 659C822.953 659.267 821.986 659.5 820.92 659.7C819.92 659.9 818.853 660.067 817.72 660.2C816.586 660.333 815.453 660.5 814.32 660.7C813.253 660.9 812.186 661.167 811.12 661.5C810.12 661.833 809.22 662.3 808.42 662.9C807.686 663.433 807.086 664.133 806.62 665C806.153 665.867 805.92 666.967 805.92 668.3C805.92 669.567 806.153 670.633 806.62 671.5C807.086 672.367 807.72 673.067 808.52 673.6C809.32 674.067 810.253 674.4 811.32 674.6C812.386 674.8 813.486 674.9 814.62 674.9C817.42 674.9 819.586 674.433 821.12 673.5C822.653 672.567 823.786 671.467 824.52 670.2C825.253 668.867 825.686 667.533 825.82 666.2C826.02 664.867 826.12 663.8 826.12 663V657.7ZM865.941 623.3H851.741V611.6H865.941V623.3ZM851.741 631.3H865.941V683H851.741V631.3Z" fill="black"/>
<path d="M923 683H907.2L889.5 631.3H904.4L915.3 666.6H915.5L926.4 631.3H940.5L923 683ZM944.653 639.9C944.52 635.9 944.986 632.2 946.053 628.8C947.12 625.333 948.72 622.333 950.853 619.8C952.986 617.2 955.653 615.2 958.853 613.8C962.12 612.333 965.853 611.6 970.053 611.6C973.253 611.6 976.286 612.1 979.153 613.1C982.086 614.1 984.653 615.533 986.853 617.4C989.053 619.267 990.786 621.567 992.053 624.3C993.386 627.033 994.053 630.1 994.053 633.5C994.053 637.033 993.486 640.067 992.353 642.6C991.22 645.133 989.72 647.4 987.853 649.4C985.986 651.333 983.853 653.1 981.453 654.7C979.12 656.3 976.753 657.9 974.353 659.5C971.953 661.033 969.62 662.7 967.353 664.5C965.086 666.3 963.086 668.4 961.353 670.8H994.453V683H943.053C943.053 678.933 943.62 675.4 944.753 672.4C945.953 669.4 947.553 666.733 949.553 664.4C951.553 662 953.886 659.8 956.553 657.8C959.286 655.8 962.153 653.767 965.153 651.7C966.686 650.633 968.32 649.567 970.053 648.5C971.786 647.367 973.353 646.133 974.753 644.8C976.22 643.467 977.42 641.967 978.353 640.3C979.353 638.633 979.853 636.733 979.853 634.6C979.853 631.2 978.853 628.567 976.853 626.7C974.92 624.767 972.42 623.8 969.353 623.8C967.286 623.8 965.52 624.3 964.053 625.3C962.653 626.233 961.52 627.5 960.653 629.1C959.786 630.633 959.153 632.367 958.753 634.3C958.42 636.167 958.253 638.033 958.253 639.9H944.653Z" fill="url(#paint0_radial_250_47)"/>
<rect x="580.108" y="215" width="327.786" height="339" rx="128" fill="url(#paint1_radial_250_47)"/>
<g filter="url(#filter4_i_250_47)">
<rect x="594.772" y="230.527" width="298.458" height="307.947" rx="128" fill="url(#paint2_linear_250_47)"/>
</g>
<g clip-path="url(#clip0_250_47)">
<g filter="url(#filter5_d_250_47)">
<path d="M739.995 417.597L732.322 435.173C729.372 441.929 720.023 441.929 717.073 435.173L709.399 417.597C702.57 401.956 690.278 389.506 674.946 382.7L653.824 373.324C647.108 370.343 647.108 360.574 653.824 357.593L674.286 348.51C690.013 341.529 702.525 328.617 709.238 312.442L717.011 293.712C719.896 286.761 729.499 286.761 732.384 293.712L740.157 312.442C746.87 328.617 759.382 341.529 775.109 348.51L795.571 357.593C802.287 360.574 802.287 370.343 795.571 373.324L774.449 382.7C759.117 389.506 746.825 401.956 739.995 417.597Z" fill="url(#paint3_radial_250_47)"/>
</g>
<g filter="url(#filter6_d_250_47)">
<path d="M811.31 473.017L809.152 477.963C807.572 481.584 802.558 481.584 800.979 477.963L798.821 473.017C794.974 464.198 788.045 457.176 779.399 453.335L772.75 450.381C769.154 448.784 769.154 443.557 772.75 441.96L779.027 439.171C787.895 435.231 794.949 427.949 798.729 418.831L800.946 413.486C802.49 409.761 807.64 409.761 809.185 413.486L811.401 418.831C815.182 427.949 822.235 435.231 831.104 439.171L837.381 441.96C840.977 443.557 840.977 448.784 837.381 450.381L830.732 453.335C822.086 457.176 815.157 464.198 811.31 473.017Z" fill="url(#paint4_radial_250_47)"/>
</g>
</g>
<defs>
<filter id="filter0_f_250_47" x="322.981" y="30.5267" width="686.453" height="546.415" filterUnits="userSpaceOnUse" color-interpolation-filters="sRGB">
<feFlood flood-opacity="0" result="BackgroundImageFix"/>
<feBlend mode="normal" in="SourceGraphic" in2="BackgroundImageFix" result="shape"/>
<feGaussianBlur stdDeviation="100" result="effect1_foregroundBlur_250_47"/>
</filter>
<filter id="filter1_f_250_47" x="525.112" y="45.7038" width="625.853" height="501.776" filterUnits="userSpaceOnUse" color-interpolation-filters="sRGB">
<feFlood flood-opacity="0" result="BackgroundImageFix"/>
<feBlend mode="normal" in="SourceGraphic" in2="BackgroundImageFix" result="shape"/>
<feGaussianBlur stdDeviation="100" result="effect1_foregroundBlur_250_47"/>
</filter>
<filter id="filter2_f_250_47" x="320.589" y="147.48" width="744.262" height="577.364" filterUnits="userSpaceOnUse" color-interpolation-filters="sRGB">
<feFlood flood-opacity="0" result="BackgroundImageFix"/>
<feBlend mode="normal" in="SourceGraphic" in2="BackgroundImageFix" result="shape"/>
<feGaussianBlur stdDeviation="100" result="effect1_foregroundBlur_250_47"/>
</filter>
<filter id="filter3_f_250_47" x="525.428" y="138.492" width="642" height="599.981" filterUnits="userSpaceOnUse" color-interpolation-filters="sRGB">
<feFlood flood-opacity="0" result="BackgroundImageFix"/>
<feBlend mode="normal" in="SourceGraphic" in2="BackgroundImageFix" result="shape"/>
<feGaussianBlur stdDeviation="100" result="effect1_foregroundBlur_250_47"/>
</filter>
<filter id="filter4_i_250_47" x="594.772" y="230.527" width="298.458" height="311.947" filterUnits="userSpaceOnUse" color-interpolation-filters="sRGB">
<feFlood flood-opacity="0" result="BackgroundImageFix"/>
<feBlend mode="normal" in="SourceGraphic" in2="BackgroundImageFix" result="shape"/>
<feColorMatrix in="SourceAlpha" type="matrix" values="0 0 0 0 0 0 0 0 0 0 0 0 0 0 0 0 0 0 127 0" result="hardAlpha"/>
<feOffset dy="4"/>
<feGaussianBlur stdDeviation="5"/>
<feComposite in2="hardAlpha" operator="arithmetic" k2="-1" k3="1"/>
<feColorMatrix type="matrix" values="0 0 0 0 0 0 0 0 0 0 0 0 0 0 0 0 0 0 0.25 0"/>
<feBlend mode="normal" in2="shape" result="effect1_innerShadow_250_47"/>
</filter>
<filter id="filter5_d_250_47" x="644.787" y="284.499" width="159.821" height="159.741" filterUnits="userSpaceOnUse" color-interpolation-filters="sRGB">
<feFlood flood-opacity="0" result="BackgroundImageFix"/>
<feColorMatrix in="SourceAlpha" type="matrix" values="0 0 0 0 0 0 0 0 0 0 0 0 0 0 0 0 0 0 127 0" result="hardAlpha"/>
<feOffset/>
<feGaussianBlur stdDeviation="2"/>
<feComposite in2="hardAlpha" operator="out"/>
<feColorMatrix type="matrix" values="0 0 0 0 0 0 0 0 0 0 0 0 0 0 0 0 0 0 0.25 0"/>
<feBlend mode="normal" in2="BackgroundImageFix" result="effect1_dropShadow_250_47"/>
<feBlend mode="normal" in="SourceGraphic" in2="effect1_dropShadow_250_47" result="shape"/>
</filter>
<filter id="filter6_d_250_47" x="766.053" y="406.692" width="78.0249" height="77.987" filterUnits="userSpaceOnUse" color-interpolation-filters="sRGB">
<feFlood flood-opacity="0" result="BackgroundImageFix"/>
<feColorMatrix in="SourceAlpha" type="matrix" values="0 0 0 0 0 0 0 0 0 0 0 0 0 0 0 0 0 0 127 0" result="hardAlpha"/>
<feOffset/>
<feGaussianBlur stdDeviation="2"/>
<feComposite in2="hardAlpha" operator="out"/>
<feColorMatrix type="matrix" values="0 0 0 0 0 0 0 0 0 0 0 0 0 0 0 0 0 0 0.25 0"/>
<feBlend mode="normal" in2="BackgroundImageFix" result="effect1_dropShadow_250_47"/>
<feBlend mode="normal" in="SourceGraphic" in2="effect1_dropShadow_250_47" result="shape"/>
</filter>
<radialGradient id="paint0_radial_250_47" cx="0" cy="0" r="1" gradientUnits="userSpaceOnUse" gradientTransform="translate(889 602.5) rotate(45.7004) scale(144.614 248.943)">
<stop stop-color="#1BA1E3"/>
<stop offset="0.0001" stop-color="#1BA1E3"/>
<stop offset="0.300221" stop-color="#5489D6"/>
<stop offset="0.545524" stop-color="#9B72CB"/>
<stop offset="0.825372" stop-color="#D96570"/>
<stop offset="1" stop-color="#F49C46"/>
</radialGradient>
<radialGradient id="paint1_radial_250_47" cx="0" cy="0" r="1" gradientUnits="userSpaceOnUse" gradientTransform="translate(568.935 31.1984) rotate(79.2234) scale(573.432 555.807)">
<stop stop-color="#1BA1E3"/>
<stop offset="0.0001" stop-color="#1BA1E3"/>
<stop offset="0.300221" stop-color="#5489D6"/>
<stop offset="0.545524" stop-color="#9B72CB"/>
<stop offset="0.825372" stop-color="#D96570"/>
<stop offset="1" stop-color="#F49C46"/>
</radialGradient>
<linearGradient id="paint2_linear_250_47" x1="594.772" y1="230.527" x2="902.568" y2="528.839" gradientUnits="userSpaceOnUse">
<stop stop-color="white"/>
<stop offset="1" stop-color="#E3E3E3"/>
</linearGradient>
<radialGradient id="paint3_radial_250_47" cx="0" cy="0" r="1" gradientUnits="userSpaceOnUse" gradientTransform="translate(767.666 372.746) rotate(78.858) scale(118.532 118.59)">
<stop stop-color="#1BA1E3"/>
<stop offset="0.0001" stop-color="#1BA1E3"/>
<stop offset="0.300221" stop-color="#5489D6"/>
<stop offset="0.545524" stop-color="#9B72CB"/>
<stop offset="0.825372" stop-color="#D96570"/>
<stop offset="1" stop-color="#F49C46"/>
</radialGradient>
<radialGradient id="paint4_radial_250_47" cx="0" cy="0" r="1" gradientUnits="userSpaceOnUse" gradientTransform="translate(767.666 372.746) rotate(78.858) scale(118.532 118.59)">
<stop stop-color="#1BA1E3"/>
<stop offset="0.0001" stop-color="#1BA1E3"/>
<stop offset="0.300221" stop-color="#5489D6"/>
<stop offset="0.545524" stop-color="#9B72CB"/>
<stop offset="0.825372" stop-color="#D96570"/>
<stop offset="1" stop-color="#F49C46"/>
</radialGradient>
<clipPath id="clip0_250_47">
<rect width="192.359" height="192.359" fill="white" transform="translate(648.253 288.321)"/>
</clipPath>
</defs>
</svg>
