<svg width="1538" height="853" viewBox="0 0 1538 853" fill="none" xmlns="http://www.w3.org/2000/svg">
<g clip-path="url(#clip0_250_47)">
<g filter="url(#filter0_f_250_47)">
<path d="M481.235 356.957L510.741 243.513L667.548 191L832.785 208.237C832.785 208.237 906.13 233.491 842.901 294.022C779.673 354.552 750.166 328.095 699.584 372.591C649.001 417.087 481.235 356.957 481.235 356.957Z" fill="#BF6B97"/>
</g>
<g filter="url(#filter1_f_250_47)">
<path d="M816.096 321.671C742.068 316.104 763.88 296.222 756.609 249.697C749.339 203.173 763.88 224.646 763.88 224.646L901.36 211.524L1040.16 262.82L1059.99 327.635C1059.99 327.635 1040.16 350.301 958.203 349.108C876.244 347.915 890.124 327.238 816.096 321.671Z" fill="#B26EAA"/>
</g>
<g filter="url(#filter2_f_250_47)">
<path d="M611.339 361.529C516.285 338.788 495.823 354.348 495.823 354.348L478 533.88L725.535 563.004C790.444 540.131 735.848 615.667 784.283 578.564C841.051 535.077 867.455 568.191 924.223 533.88C980.991 499.57 898.48 443.316 858.214 429.353C817.948 415.389 738.737 444.912 705.732 423.767C672.728 402.622 706.392 384.27 611.339 361.529Z" fill="#2B9BE0"/>
</g>
<g filter="url(#filter3_f_250_47)">
<path d="M976.027 347.625C1011 325.743 1082.25 344.442 1082.25 344.442L1028.15 607.431L755 589.129C755 589.129 772.814 513.137 799.865 480.512C826.916 447.887 851.328 445.898 889.596 433.962C927.863 422.026 941.059 369.508 976.027 347.625Z" fill="#F49B48"/>
</g>
<path d="M574.3 652.2C574.3 650 574.067 647.9 573.6 645.9C573.133 643.9 572.4 642.133 571.4 640.6C570.4 639.067 569.133 637.867 567.6 637C566.133 636.067 564.333 635.6 562.2 635.6C560.133 635.6 558.333 636.067 556.8 637C555.267 637.867 554 639.067 553 640.6C552 642.133 551.267 643.9 550.8 645.9C550.333 647.9 550.1 650 550.1 652.2C550.1 654.333 550.333 656.4 550.8 658.4C551.267 660.4 552 662.167 553 663.7C554 665.233 555.267 666.467 556.8 667.4C558.333 668.267 560.133 668.7 562.2 668.7C564.333 668.7 566.133 668.267 567.6 667.4C569.133 666.467 570.4 665.233 571.4 663.7C572.4 662.167 573.133 660.4 573.6 658.4C574.067 656.4 574.3 654.333 574.3 652.2ZM536.4 606.6H550.6V632.6H550.8C552.533 629.933 554.867 628 557.8 626.8C560.8 625.533 563.9 624.9 567.1 624.9C569.7 624.9 572.267 625.433 574.8 626.5C577.333 627.567 579.6 629.2 581.6 631.4C583.667 633.6 585.333 636.433 586.6 639.9C587.867 643.3 588.5 647.367 588.5 652.1C588.5 656.833 587.867 660.933 586.6 664.4C585.333 667.8 583.667 670.6 581.6 672.8C579.6 675 577.333 676.633 574.8 677.7C572.267 678.767 569.7 679.3 567.1 679.3C563.3 679.3 559.9 678.7 556.9 677.5C553.9 676.3 551.633 674.267 550.1 671.4H549.9V678H536.4V606.6ZM596.933 642.2C597.133 638.867 597.966 636.1 599.433 633.9C600.899 631.7 602.766 629.933 605.033 628.6C607.299 627.267 609.833 626.333 612.633 625.8C615.499 625.2 618.366 624.9 621.233 624.9C623.833 624.9 626.466 625.1 629.133 625.5C631.799 625.833 634.233 626.533 636.433 627.6C638.633 628.667 640.433 630.167 641.833 632.1C643.233 633.967 643.933 636.467 643.933 639.6V666.5C643.933 668.833 644.066 671.067 644.333 673.2C644.599 675.333 645.066 676.933 645.733 678H631.333C631.066 677.2 630.833 676.4 630.633 675.6C630.499 674.733 630.399 673.867 630.333 673C628.066 675.333 625.399 676.967 622.333 677.9C619.266 678.833 616.133 679.3 612.933 679.3C610.466 679.3 608.166 679 606.033 678.4C603.899 677.8 602.033 676.867 600.433 675.6C598.833 674.333 597.566 672.733 596.633 670.8C595.766 668.867 595.333 666.567 595.333 663.9C595.333 660.967 595.833 658.567 596.833 656.7C597.899 654.767 599.233 653.233 600.833 652.1C602.499 650.967 604.366 650.133 606.433 649.6C608.566 649 610.699 648.533 612.833 648.2C614.966 647.867 617.066 647.6 619.133 647.4C621.199 647.2 623.033 646.9 624.633 646.5C626.233 646.1 627.499 645.533 628.433 644.8C629.366 644 629.799 642.867 629.733 641.4C629.733 639.867 629.466 638.667 628.933 637.8C628.466 636.867 627.799 636.167 626.933 635.7C626.133 635.167 625.166 634.833 624.033 634.7C622.966 634.5 621.799 634.4 620.533 634.4C617.733 634.4 615.533 635 613.933 636.2C612.333 637.4 611.399 639.4 611.133 642.2H596.933ZM629.733 652.7C629.133 653.233 628.366 653.667 627.433 654C626.566 654.267 625.599 654.5 624.533 654.7C623.533 654.9 622.466 655.067 621.333 655.2C620.199 655.333 619.066 655.5 617.933 655.7C616.866 655.9 615.799 656.167 614.733 656.5C613.733 656.833 612.833 657.3 612.033 657.9C611.299 658.433 610.699 659.133 610.233 660C609.766 660.867 609.533 661.967 609.533 663.3C609.533 664.567 609.766 665.633 610.233 666.5C610.699 667.367 611.333 668.067 612.133 668.6C612.933 669.067 613.866 669.4 614.933 669.6C615.999 669.8 617.099 669.9 618.233 669.9C621.033 669.9 623.199 669.433 624.733 668.5C626.266 667.567 627.399 666.467 628.133 665.2C628.866 663.867 629.299 662.533 629.433 661.2C629.633 659.867 629.733 658.8 629.733 658V652.7ZM654.955 626.3H668.455V635.9H668.655C669.321 634.3 670.221 632.833 671.355 631.5C672.488 630.1 673.788 628.933 675.255 628C676.721 627 678.288 626.233 679.955 625.7C681.621 625.167 683.355 624.9 685.155 624.9C686.088 624.9 687.121 625.067 688.255 625.4V638.6C687.588 638.467 686.788 638.367 685.855 638.3C684.921 638.167 684.021 638.1 683.155 638.1C680.555 638.1 678.355 638.533 676.555 639.4C674.755 640.267 673.288 641.467 672.155 643C671.088 644.467 670.321 646.2 669.855 648.2C669.388 650.2 669.155 652.367 669.155 654.7V678H654.955V626.3ZM728.764 652C728.764 649.867 728.564 647.833 728.164 645.9C727.764 643.9 727.064 642.167 726.064 640.7C725.131 639.167 723.897 637.933 722.364 637C720.831 636.067 718.897 635.6 716.564 635.6C714.231 635.6 712.264 636.067 710.664 637C709.064 637.933 707.764 639.167 706.764 640.7C705.831 642.233 705.131 644 704.664 646C704.264 647.933 704.064 649.967 704.064 652.1C704.064 654.1 704.297 656.1 704.764 658.1C705.231 660.1 705.964 661.9 706.964 663.5C708.031 665.033 709.331 666.3 710.864 667.3C712.464 668.233 714.364 668.7 716.564 668.7C718.897 668.7 720.831 668.233 722.364 667.3C723.964 666.367 725.231 665.133 726.164 663.6C727.097 662 727.764 660.2 728.164 658.2C728.564 656.2 728.764 654.133 728.764 652ZM728.964 671.4H728.764C727.097 674.2 724.897 676.233 722.164 677.5C719.497 678.7 716.464 679.3 713.064 679.3C709.197 679.3 705.797 678.567 702.864 677.1C699.931 675.567 697.497 673.533 695.564 671C693.697 668.4 692.264 665.433 691.264 662.1C690.331 658.767 689.864 655.3 689.864 651.7C689.864 648.233 690.331 644.9 691.264 641.7C692.264 638.433 693.697 635.567 695.564 633.1C697.497 630.633 699.897 628.667 702.764 627.2C705.631 625.667 708.964 624.9 712.764 624.9C715.831 624.9 718.731 625.567 721.464 626.9C724.264 628.167 726.464 630.067 728.064 632.6H728.264V606.6H742.464V678H728.964V671.4ZM753.097 644.6H783.197V656.8H753.097V644.6ZM793.32 642.2C793.52 638.867 794.353 636.1 795.82 633.9C797.286 631.7 799.153 629.933 801.42 628.6C803.686 627.267 806.22 626.333 809.02 625.8C811.886 625.2 814.753 624.9 817.62 624.9C820.22 624.9 822.853 625.1 825.52 625.5C828.186 625.833 830.62 626.533 832.82 627.6C835.02 628.667 836.82 630.167 838.22 632.1C839.62 633.967 840.32 636.467 840.32 639.6V666.5C840.32 668.833 840.453 671.067 840.72 673.2C840.986 675.333 841.453 676.933 842.12 678H827.72C827.453 677.2 827.22 676.4 827.02 675.6C826.886 674.733 826.786 673.867 826.72 673C824.453 675.333 821.786 676.967 818.72 677.9C815.653 678.833 812.52 679.3 809.32 679.3C806.853 679.3 804.553 679 802.42 678.4C800.286 677.8 798.42 676.867 796.82 675.6C795.22 674.333 793.953 672.733 793.02 670.8C792.153 668.867 791.72 666.567 791.72 663.9C791.72 660.967 792.22 658.567 793.22 656.7C794.286 654.767 795.62 653.233 797.22 652.1C798.886 650.967 800.753 650.133 802.82 649.6C804.953 649 807.086 648.533 809.22 648.2C811.353 647.867 813.453 647.6 815.52 647.4C817.586 647.2 819.42 646.9 821.02 646.5C822.62 646.1 823.886 645.533 824.82 644.8C825.753 644 826.186 642.867 826.12 641.4C826.12 639.867 825.853 638.667 825.32 637.8C824.853 636.867 824.186 636.167 823.32 635.7C822.52 635.167 821.553 634.833 820.42 634.7C819.353 634.5 818.186 634.4 816.92 634.4C814.12 634.4 811.92 635 810.32 636.2C808.72 637.4 807.786 639.4 807.52 642.2H793.32ZM826.12 652.7C825.52 653.233 824.753 653.667 823.82 654C822.953 654.267 821.986 654.5 820.92 654.7C819.92 654.9 818.853 655.067 817.72 655.2C816.586 655.333 815.453 655.5 814.32 655.7C813.253 655.9 812.186 656.167 811.12 656.5C810.12 656.833 809.22 657.3 808.42 657.9C807.686 658.433 807.086 659.133 806.62 660C806.153 660.867 805.92 661.967 805.92 663.3C805.92 664.567 806.153 665.633 806.62 666.5C807.086 667.367 807.72 668.067 808.52 668.6C809.32 669.067 810.253 669.4 811.32 669.6C812.386 669.8 813.486 669.9 814.62 669.9C817.42 669.9 819.586 669.433 821.12 668.5C822.653 667.567 823.786 666.467 824.52 665.2C825.253 663.867 825.686 662.533 825.82 661.2C826.02 659.867 826.12 658.8 826.12 658V652.7ZM865.941 618.3H851.741V606.6H865.941V618.3ZM851.741 626.3H865.941V678H851.741V626.3Z" fill="black"/>
<path d="M923 678H907.2L889.5 626.3H904.4L915.3 661.6H915.5L926.4 626.3H940.5L923 678ZM944.653 634.9C944.52 630.9 944.986 627.2 946.053 623.8C947.12 620.333 948.72 617.333 950.853 614.8C952.986 612.2 955.653 610.2 958.853 608.8C962.12 607.333 965.853 606.6 970.053 606.6C973.253 606.6 976.286 607.1 979.153 608.1C982.086 609.1 984.653 610.533 986.853 612.4C989.053 614.267 990.786 616.567 992.053 619.3C993.386 622.033 994.053 625.1 994.053 628.5C994.053 632.033 993.486 635.067 992.353 637.6C991.22 640.133 989.72 642.4 987.853 644.4C985.986 646.333 983.853 648.1 981.453 649.7C979.12 651.3 976.753 652.9 974.353 654.5C971.953 656.033 969.62 657.7 967.353 659.5C965.086 661.3 963.086 663.4 961.353 665.8H994.453V678H943.053C943.053 673.933 943.62 670.4 944.753 667.4C945.953 664.4 947.553 661.733 949.553 659.4C951.553 657 953.886 654.8 956.553 652.8C959.286 650.8 962.153 648.767 965.153 646.7C966.686 645.633 968.32 644.567 970.053 643.5C971.786 642.367 973.353 641.133 974.753 639.8C976.22 638.467 977.42 636.967 978.353 635.3C979.353 633.633 979.853 631.733 979.853 629.6C979.853 626.2 978.853 623.567 976.853 621.7C974.92 619.767 972.42 618.8 969.353 618.8C967.286 618.8 965.52 619.3 964.053 620.3C962.653 621.233 961.52 622.5 960.653 624.1C959.786 625.633 959.153 627.367 958.753 629.3C958.42 631.167 958.253 633.033 958.253 634.9H944.653Z" fill="url(#paint0_radial_250_47)"/>
<rect x="579" y="173" width="380" height="393" rx="128" fill="url(#paint1_radial_250_47)"/>
<g filter="url(#filter4_i_250_47)">
<rect x="596" y="191" width="346" height="357" rx="128" fill="url(#paint2_linear_250_47)"/>
</g>
<g clip-path="url(#clip1_250_47)">
<g filter="url(#filter5_d_250_47)">
<path d="M764.357 407.869L755.461 428.245C752.041 436.077 741.203 436.077 737.783 428.245L728.887 407.869C720.97 389.736 706.72 375.303 688.945 367.413L664.458 356.543C656.673 353.088 656.673 341.762 664.458 338.307L688.18 327.777C706.412 319.684 720.918 304.715 728.7 285.964L737.711 264.25C741.055 256.192 752.189 256.192 755.533 264.25L764.544 285.964C772.326 304.715 786.831 319.684 805.063 327.777L828.785 338.307C836.571 341.762 836.571 353.088 828.785 356.543L804.299 367.413C786.524 375.303 772.274 389.736 764.357 407.869Z" fill="url(#paint3_radial_250_47)"/>
</g>
<g filter="url(#filter6_d_250_47)">
<path d="M847.031 472.117L844.529 477.851C842.698 482.049 836.885 482.049 835.054 477.851L832.552 472.117C828.092 461.893 820.06 453.753 810.036 449.3L802.328 445.875C798.16 444.023 798.16 437.965 802.328 436.113L809.605 432.88C819.886 428.312 828.063 419.871 832.446 409.299L835.015 403.103C836.806 398.784 842.777 398.784 844.567 403.103L847.137 409.299C851.52 419.871 859.697 428.312 869.978 432.88L877.255 436.113C881.423 437.965 881.423 444.023 877.255 445.875L869.547 449.3C859.523 453.753 851.49 461.893 847.031 472.117Z" fill="url(#paint4_radial_250_47)"/>
</g>
</g>
</g>
<defs>
<filter id="filter0_f_250_47" x="281.235" y="-9" width="787.365" height="597.994" filterUnits="userSpaceOnUse" color-interpolation-filters="sRGB">
<feFlood flood-opacity="0" result="BackgroundImageFix"/>
<feBlend mode="normal" in="SourceGraphic" in2="BackgroundImageFix" result="shape"/>
<feGaussianBlur stdDeviation="100" result="effect1_foregroundBlur_250_47"/>
</filter>
<filter id="filter1_f_250_47" x="554.574" y="11.5238" width="705.417" height="537.63" filterUnits="userSpaceOnUse" color-interpolation-filters="sRGB">
<feFlood flood-opacity="0" result="BackgroundImageFix"/>
<feBlend mode="normal" in="SourceGraphic" in2="BackgroundImageFix" result="shape"/>
<feGaussianBlur stdDeviation="100" result="effect1_foregroundBlur_250_47"/>
</filter>
<filter id="filter2_f_250_47" x="278" y="149.154" width="865.539" height="639.846" filterUnits="userSpaceOnUse" color-interpolation-filters="sRGB">
<feFlood flood-opacity="0" result="BackgroundImageFix"/>
<feBlend mode="normal" in="SourceGraphic" in2="BackgroundImageFix" result="shape"/>
<feGaussianBlur stdDeviation="100" result="effect1_foregroundBlur_250_47"/>
</filter>
<filter id="filter3_f_250_47" x="555" y="137" width="727.252" height="670.431" filterUnits="userSpaceOnUse" color-interpolation-filters="sRGB">
<feFlood flood-opacity="0" result="BackgroundImageFix"/>
<feBlend mode="normal" in="SourceGraphic" in2="BackgroundImageFix" result="shape"/>
<feGaussianBlur stdDeviation="100" result="effect1_foregroundBlur_250_47"/>
</filter>
<filter id="filter4_i_250_47" x="596" y="191" width="346" height="361" filterUnits="userSpaceOnUse" color-interpolation-filters="sRGB">
<feFlood flood-opacity="0" result="BackgroundImageFix"/>
<feBlend mode="normal" in="SourceGraphic" in2="BackgroundImageFix" result="shape"/>
<feColorMatrix in="SourceAlpha" type="matrix" values="0 0 0 0 0 0 0 0 0 0 0 0 0 0 0 0 0 0 127 0" result="hardAlpha"/>
<feOffset dy="4"/>
<feGaussianBlur stdDeviation="5"/>
<feComposite in2="hardAlpha" operator="arithmetic" k2="-1" k3="1"/>
<feColorMatrix type="matrix" values="0 0 0 0 0 0 0 0 0 0 0 0 0 0 0 0 0 0 0.25 0"/>
<feBlend mode="normal" in2="shape" result="effect1_innerShadow_250_47"/>
</filter>
<filter id="filter5_d_250_47" x="654.62" y="254.206" width="184.004" height="183.912" filterUnits="userSpaceOnUse" color-interpolation-filters="sRGB">
<feFlood flood-opacity="0" result="BackgroundImageFix"/>
<feColorMatrix in="SourceAlpha" type="matrix" values="0 0 0 0 0 0 0 0 0 0 0 0 0 0 0 0 0 0 127 0" result="hardAlpha"/>
<feOffset/>
<feGaussianBlur stdDeviation="2"/>
<feComposite in2="hardAlpha" operator="out"/>
<feColorMatrix type="matrix" values="0 0 0 0 0 0 0 0 0 0 0 0 0 0 0 0 0 0 0.25 0"/>
<feBlend mode="normal" in2="BackgroundImageFix" result="effect1_dropShadow_250_47"/>
<feBlend mode="normal" in="SourceGraphic" in2="effect1_dropShadow_250_47" result="shape"/>
</filter>
<filter id="filter6_d_250_47" x="795.202" y="395.864" width="89.1792" height="89.1354" filterUnits="userSpaceOnUse" color-interpolation-filters="sRGB">
<feFlood flood-opacity="0" result="BackgroundImageFix"/>
<feColorMatrix in="SourceAlpha" type="matrix" values="0 0 0 0 0 0 0 0 0 0 0 0 0 0 0 0 0 0 127 0" result="hardAlpha"/>
<feOffset/>
<feGaussianBlur stdDeviation="2"/>
<feComposite in2="hardAlpha" operator="out"/>
<feColorMatrix type="matrix" values="0 0 0 0 0 0 0 0 0 0 0 0 0 0 0 0 0 0 0.25 0"/>
<feBlend mode="normal" in2="BackgroundImageFix" result="effect1_dropShadow_250_47"/>
<feBlend mode="normal" in="SourceGraphic" in2="effect1_dropShadow_250_47" result="shape"/>
</filter>
<radialGradient id="paint0_radial_250_47" cx="0" cy="0" r="1" gradientUnits="userSpaceOnUse" gradientTransform="translate(889 597.5) rotate(45.7004) scale(144.614 248.943)">
<stop stop-color="#1BA1E3"/>
<stop offset="0.0001" stop-color="#1BA1E3"/>
<stop offset="0.300221" stop-color="#5489D6"/>
<stop offset="0.545524" stop-color="#9B72CB"/>
<stop offset="0.825372" stop-color="#D96570"/>
<stop offset="1" stop-color="#F49C46"/>
</radialGradient>
<radialGradient id="paint1_radial_250_47" cx="0" cy="0" r="1" gradientUnits="userSpaceOnUse" gradientTransform="translate(566.047 -40.0798) rotate(79.2234) scale(664.775 644.342)">
<stop stop-color="#1BA1E3"/>
<stop offset="0.0001" stop-color="#1BA1E3"/>
<stop offset="0.300221" stop-color="#5489D6"/>
<stop offset="0.545524" stop-color="#9B72CB"/>
<stop offset="0.825372" stop-color="#D96570"/>
<stop offset="1" stop-color="#F49C46"/>
</radialGradient>
<linearGradient id="paint2_linear_250_47" x1="596" y1="191" x2="952.825" y2="536.831" gradientUnits="userSpaceOnUse">
<stop stop-color="white"/>
<stop offset="1" stop-color="#E3E3E3"/>
</linearGradient>
<radialGradient id="paint3_radial_250_47" cx="0" cy="0" r="1" gradientUnits="userSpaceOnUse" gradientTransform="translate(796.435 355.873) rotate(78.858) scale(137.413 137.48)">
<stop stop-color="#1BA1E3"/>
<stop offset="0.0001" stop-color="#1BA1E3"/>
<stop offset="0.300221" stop-color="#5489D6"/>
<stop offset="0.545524" stop-color="#9B72CB"/>
<stop offset="0.825372" stop-color="#D96570"/>
<stop offset="1" stop-color="#F49C46"/>
</radialGradient>
<radialGradient id="paint4_radial_250_47" cx="0" cy="0" r="1" gradientUnits="userSpaceOnUse" gradientTransform="translate(796.435 355.873) rotate(78.858) scale(137.413 137.48)">
<stop stop-color="#1BA1E3"/>
<stop offset="0.0001" stop-color="#1BA1E3"/>
<stop offset="0.300221" stop-color="#5489D6"/>
<stop offset="0.545524" stop-color="#9B72CB"/>
<stop offset="0.825372" stop-color="#D96570"/>
<stop offset="1" stop-color="#F49C46"/>
</radialGradient>
<clipPath id="clip0_250_47">
<rect width="1538" height="853" rx="50" fill="white"/>
</clipPath>
<clipPath id="clip1_250_47">
<rect width="223" height="223" fill="white" transform="translate(658 258)"/>
</clipPath>
</defs>
</svg>
