<svg width="768" height="231" viewBox="0 0 768 231" fill="none" xmlns="http://www.w3.org/2000/svg">
<rect x="13" y="64" width="3" height="142" rx="1.5" fill="#B7B7B7"/>
<path d="M16 147H231C236.523 147 241 151.477 241 157V178C241 183.523 236.523 188 231 188H16V147Z" fill="#D8D8D8"/>
<path d="M16 81V81C18.9271 81 21.3 83.3729 21.3 86.3V116.7C21.3 119.627 18.9271 122 16 122V122V81Z" fill="url(#paint0_linear_6_2)"/>
<path d="M24.5046 134.831L24.8246 135.803C24.5456 135.889 24.2503 135.943 23.9385 135.963C23.6308 135.984 23.2944 135.994 22.9292 135.994C23.68 136.338 24.0554 136.882 24.0554 137.625C24.0554 138.265 23.84 138.792 23.4092 139.206C22.9826 139.621 22.3856 139.828 21.6185 139.828C21.401 139.828 21.2185 139.817 21.0708 139.797C20.9272 139.776 20.7877 139.746 20.6523 139.705C20.5538 139.774 20.4718 139.867 20.4062 139.982C20.3446 140.092 20.3138 140.209 20.3138 140.332C20.3138 140.488 20.3754 140.617 20.4985 140.72C20.6215 140.823 20.8492 140.874 21.1815 140.874H22.3508C22.7856 140.874 23.1754 140.952 23.52 141.108C23.8646 141.264 24.1374 141.475 24.3385 141.742C24.5395 142.004 24.64 142.302 24.64 142.634C24.64 143.27 24.3692 143.758 23.8277 144.098C23.2903 144.439 22.5292 144.609 21.5446 144.609C20.8554 144.609 20.3118 144.537 19.9138 144.394C19.5159 144.254 19.2308 144.039 19.0585 143.748C18.8903 143.461 18.8062 143.097 18.8062 142.658H19.7415C19.7415 142.909 19.7908 143.116 19.8892 143.28C19.9877 143.444 20.1662 143.565 20.4246 143.643C20.6831 143.725 21.0544 143.766 21.5385 143.766C22.2523 143.766 22.7733 143.676 23.1015 143.495C23.4297 143.319 23.5938 143.054 23.5938 142.702C23.5938 142.394 23.4544 142.162 23.1754 142.006C22.8964 141.85 22.5477 141.772 22.1292 141.772H20.9723C20.4103 141.772 19.9979 141.649 19.7354 141.403C19.4728 141.157 19.3415 140.874 19.3415 140.554C19.3415 140.111 19.5795 139.733 20.0554 139.422C19.3292 139.036 18.9662 138.439 18.9662 137.631C18.9662 137.192 19.0749 136.804 19.2923 136.468C19.5097 136.127 19.8133 135.861 20.2031 135.668C20.5928 135.475 21.0421 135.378 21.5508 135.378C22.0964 135.378 22.5395 135.356 22.88 135.311C23.2205 135.266 23.5118 135.202 23.7538 135.12C24 135.038 24.2503 134.942 24.5046 134.831ZM21.5508 136.135C21.0297 136.135 20.6441 136.277 20.3938 136.56C20.1477 136.843 20.0246 137.2 20.0246 137.631C20.0246 138.07 20.1497 138.431 20.4 138.714C20.6544 138.997 21.0462 139.138 21.5754 139.138C22.0308 139.138 22.3795 139.005 22.6215 138.738C22.8636 138.472 22.9846 138.101 22.9846 137.625C22.9846 136.632 22.5067 136.135 21.5508 136.135ZM29.0874 135.385C30.0023 135.385 30.6936 135.69 31.1613 136.302C31.629 136.913 31.8628 137.731 31.8628 138.757C31.8628 139.417 31.7561 140.002 31.5428 140.511C31.3295 141.019 31.0156 141.419 30.6013 141.711C30.1869 141.998 29.6782 142.142 29.0751 142.142C28.1602 142.142 27.4669 141.834 26.9951 141.218C26.5233 140.603 26.2874 139.787 26.2874 138.769C26.2874 138.105 26.3941 137.518 26.6074 137.009C26.8208 136.496 27.1346 136.098 27.549 135.815C27.9674 135.528 28.4802 135.385 29.0874 135.385ZM29.0874 136.228C28.5295 136.228 28.1069 136.435 27.8197 136.849C27.5367 137.264 27.3951 137.904 27.3951 138.769C27.3951 139.627 27.5346 140.263 27.8136 140.677C28.0967 141.087 28.5172 141.292 29.0751 141.292C29.6331 141.292 30.0515 141.085 30.3305 140.671C30.6136 140.256 30.7551 139.618 30.7551 138.757C30.7551 137.895 30.6156 137.259 30.3367 136.849C30.0577 136.435 29.6413 136.228 29.0874 136.228ZM36.4702 135.385C37.3851 135.385 38.0764 135.69 38.5441 136.302C39.0118 136.913 39.2456 137.731 39.2456 138.757C39.2456 139.417 39.139 140.002 38.9256 140.511C38.7123 141.019 38.3984 141.419 37.9841 141.711C37.5697 141.998 37.061 142.142 36.4579 142.142C35.5431 142.142 34.8497 141.834 34.3779 141.218C33.9061 140.603 33.6702 139.787 33.6702 138.769C33.6702 138.105 33.7769 137.518 33.9902 137.009C34.2036 136.496 34.5174 136.098 34.9318 135.815C35.3502 135.528 35.8631 135.385 36.4702 135.385ZM36.4702 136.228C35.9123 136.228 35.4897 136.435 35.2025 136.849C34.9195 137.264 34.7779 137.904 34.7779 138.769C34.7779 139.627 34.9174 140.263 35.1964 140.677C35.4795 141.087 35.9 141.292 36.4579 141.292C37.0159 141.292 37.4343 141.085 37.7133 140.671C37.9964 140.256 38.1379 139.618 38.1379 138.757C38.1379 137.895 37.9984 137.259 37.7195 136.849C37.4405 136.435 37.0241 136.228 36.4702 136.228ZM46.6531 134.831L46.9731 135.803C46.6941 135.889 46.3987 135.943 46.0869 135.963C45.7792 135.984 45.4428 135.994 45.0777 135.994C45.8284 136.338 46.2038 136.882 46.2038 137.625C46.2038 138.265 45.9884 138.792 45.5577 139.206C45.131 139.621 44.5341 139.828 43.7669 139.828C43.5495 139.828 43.3669 139.817 43.2192 139.797C43.0756 139.776 42.9361 139.746 42.8007 139.705C42.7023 139.774 42.6202 139.867 42.5546 139.982C42.4931 140.092 42.4623 140.209 42.4623 140.332C42.4623 140.488 42.5238 140.617 42.6469 140.72C42.77 140.823 42.9977 140.874 43.33 140.874H44.4992C44.9341 140.874 45.3238 140.952 45.6684 141.108C46.0131 141.264 46.2859 141.475 46.4869 141.742C46.6879 142.004 46.7884 142.302 46.7884 142.634C46.7884 143.27 46.5177 143.758 45.9761 144.098C45.4387 144.439 44.6777 144.609 43.6931 144.609C43.0038 144.609 42.4602 144.537 42.0623 144.394C41.6643 144.254 41.3792 144.039 41.2069 143.748C41.0387 143.461 40.9546 143.097 40.9546 142.658H41.89C41.89 142.909 41.9392 143.116 42.0377 143.28C42.1361 143.444 42.3146 143.565 42.5731 143.643C42.8315 143.725 43.2028 143.766 43.6869 143.766C44.4007 143.766 44.9218 143.676 45.25 143.495C45.5782 143.319 45.7423 143.054 45.7423 142.702C45.7423 142.394 45.6028 142.162 45.3238 142.006C45.0448 141.85 44.6961 141.772 44.2777 141.772H43.1207C42.5587 141.772 42.1464 141.649 41.8838 141.403C41.6213 141.157 41.49 140.874 41.49 140.554C41.49 140.111 41.7279 139.733 42.2038 139.422C41.4777 139.036 41.1146 138.439 41.1146 137.631C41.1146 137.192 41.2233 136.804 41.4407 136.468C41.6582 136.127 41.9618 135.861 42.3515 135.668C42.7413 135.475 43.1905 135.378 43.6992 135.378C44.2448 135.378 44.6879 135.356 45.0284 135.311C45.369 135.266 45.6602 135.202 45.9023 135.12C46.1484 135.038 46.3987 134.942 46.6531 134.831ZM43.6992 136.135C43.1782 136.135 42.7925 136.277 42.5423 136.56C42.2961 136.843 42.1731 137.2 42.1731 137.631C42.1731 138.07 42.2982 138.431 42.5484 138.714C42.8028 138.997 43.1946 139.138 43.7238 139.138C44.1792 139.138 44.5279 139.005 44.77 138.738C45.012 138.472 45.1331 138.101 45.1331 137.625C45.1331 136.632 44.6551 136.135 43.6992 136.135ZM51.2912 132.911V140.4C51.2912 140.72 51.3897 140.948 51.5866 141.083C51.7877 141.214 52.0461 141.28 52.362 141.28C52.5548 141.28 52.7395 141.259 52.9159 141.218C53.0964 141.177 53.2748 141.122 53.4512 141.052L53.7282 141.809C53.5518 141.895 53.3323 141.971 53.0697 142.037C52.8112 142.107 52.5179 142.142 52.1897 142.142C51.6154 142.142 51.1497 141.984 50.7928 141.668C50.4359 141.348 50.2574 140.907 50.2574 140.345V133.729H48.2697V132.911H51.2912ZM56.9633 139.126C56.992 139.877 57.1889 140.425 57.5541 140.769C57.9233 141.11 58.3582 141.28 58.8587 141.28C59.191 141.28 59.4905 141.231 59.7571 141.132C60.0238 141.034 60.3007 140.888 60.5879 140.695L61.0741 141.378C60.7746 141.616 60.43 141.803 60.0402 141.938C59.6505 142.074 59.2525 142.142 58.8464 142.142C58.2146 142.142 57.6771 142 57.2341 141.717C56.7951 141.434 56.4587 141.04 56.2248 140.535C55.9951 140.027 55.8802 139.438 55.8802 138.769C55.8802 138.113 55.9951 137.53 56.2248 137.022C56.4587 136.513 56.7869 136.113 57.2094 135.822C57.6361 135.53 58.1366 135.385 58.711 135.385C59.5274 135.385 60.1694 135.668 60.6371 136.234C61.1089 136.8 61.3448 137.575 61.3448 138.56C61.3448 138.671 61.3407 138.775 61.3325 138.874C61.3284 138.972 61.3243 139.056 61.3202 139.126H56.9633ZM58.7233 136.234C58.2433 136.234 57.8412 136.404 57.5171 136.745C57.193 137.085 57.0105 137.612 56.9694 138.326H60.3479C60.3356 137.633 60.1838 137.112 59.8925 136.763C59.6012 136.41 59.2115 136.234 58.7233 136.234ZM64.5676 136.363C64.8015 136.051 65.0743 135.811 65.3861 135.643C65.702 135.471 66.0446 135.385 66.4138 135.385C66.9923 135.385 67.46 135.524 67.8169 135.803C68.1738 136.082 68.4343 136.476 68.5984 136.985C68.7625 137.489 68.8446 138.08 68.8446 138.757C68.8446 139.409 68.7461 139.992 68.5492 140.505C68.3564 141.013 68.0692 141.413 67.6876 141.705C67.3061 141.996 66.8364 142.142 66.2784 142.142C65.5276 142.142 64.9389 141.871 64.5123 141.329L64.4384 142H63.5338V132.911L64.5676 132.782V136.363ZM66.0323 141.305C66.5738 141.305 66.9902 141.095 67.2815 140.677C67.5728 140.258 67.7184 139.616 67.7184 138.751C67.7184 137.061 67.2097 136.215 66.1923 136.215C65.8312 136.215 65.5133 136.324 65.2384 136.542C64.9635 136.755 64.74 136.993 64.5676 137.255V140.468C64.7358 140.726 64.9471 140.931 65.2015 141.083C65.46 141.231 65.7369 141.305 66.0323 141.305ZM75.5566 140.585C75.5566 140.847 75.5997 141.038 75.6858 141.157C75.772 141.276 75.9053 141.362 76.0858 141.415L75.8335 142.142C75.5546 142.105 75.3105 142.016 75.1012 141.877C74.892 141.733 74.7402 141.518 74.6458 141.231C74.412 141.53 74.1187 141.758 73.7658 141.914C73.4171 142.066 73.0335 142.142 72.6151 142.142C71.9669 142.142 71.4561 141.959 71.0828 141.594C70.7094 141.229 70.5228 140.745 70.5228 140.142C70.5228 139.473 70.7833 138.96 71.3043 138.603C71.8253 138.246 72.5781 138.068 73.5628 138.068H74.5166V137.526C74.5166 137.058 74.3792 136.728 74.1043 136.535C73.8335 136.338 73.4561 136.24 72.972 136.24C72.7587 136.24 72.5084 136.267 72.2212 136.32C71.934 136.369 71.6223 136.453 71.2858 136.572L71.0151 135.791C71.4089 135.643 71.7802 135.538 72.1289 135.477C72.4817 135.415 72.8161 135.385 73.132 135.385C73.9361 135.385 74.5412 135.573 74.9474 135.951C75.3535 136.328 75.5566 136.837 75.5566 137.477V140.585ZM72.8797 141.354C73.1997 141.354 73.5033 141.274 73.7905 141.114C74.0817 140.95 74.3238 140.724 74.5166 140.437V138.769H73.5812C72.8674 138.769 72.3628 138.892 72.0674 139.138C71.7761 139.385 71.6305 139.715 71.6305 140.129C71.6305 140.946 72.0469 141.354 72.8797 141.354ZM78.361 142V141.206H79.3702V136.314H78.361V135.52H80.1579L80.3487 137.052C80.5989 136.519 80.9025 136.107 81.2594 135.815C81.6163 135.524 82.0881 135.378 82.6748 135.378C82.8553 135.378 83.0153 135.393 83.1548 135.422C83.2984 135.446 83.444 135.479 83.5917 135.52L83.444 137.711H82.5948V136.332C82.5784 136.332 82.5599 136.332 82.5394 136.332C81.5466 136.332 80.8348 137.042 80.404 138.462V141.206H81.721V142H78.361ZM89.5592 132.782L90.593 132.911V142H89.6884L89.5899 141.145C89.3479 141.489 89.0689 141.742 88.753 141.902C88.4412 142.062 88.1069 142.142 87.7499 142.142C87.1879 142.142 86.7243 142 86.3592 141.717C85.994 141.434 85.7233 141.04 85.5469 140.535C85.3704 140.027 85.2822 139.438 85.2822 138.769C85.2822 138.121 85.3827 137.543 85.5838 137.034C85.7848 136.521 86.074 136.119 86.4515 135.828C86.833 135.532 87.2904 135.385 87.8238 135.385C88.5417 135.385 89.1202 135.639 89.5592 136.148V132.782ZM88.0945 136.215C87.553 136.215 87.1366 136.427 86.8453 136.849C86.554 137.272 86.4084 137.912 86.4084 138.769C86.4084 140.459 86.9274 141.305 87.9653 141.305C88.3304 141.305 88.6443 141.202 88.9069 140.997C89.1694 140.788 89.3869 140.55 89.5592 140.283V137.046C89.3827 136.784 89.1694 136.581 88.9192 136.437C88.6689 136.289 88.394 136.215 88.0945 136.215ZM105.58 141.157V142H100.688V141.157H102.774V134.646L100.829 135.828L100.38 135.089L102.903 133.526H103.808V141.157H105.58ZM112.963 141.157V142H108.071V141.157H110.157V134.646L108.212 135.828L107.763 135.089L110.286 133.526H111.191V141.157H112.963ZM117.293 133.391C117.827 133.391 118.284 133.495 118.666 133.705C119.047 133.91 119.339 134.191 119.54 134.548C119.745 134.905 119.847 135.307 119.847 135.754C119.847 136.144 119.78 136.525 119.644 136.898C119.509 137.268 119.291 137.657 118.992 138.068C118.697 138.474 118.307 138.925 117.823 139.422C117.339 139.918 116.748 140.484 116.05 141.12H120.044L119.915 142H114.875V141.157C115.675 140.39 116.327 139.742 116.832 139.212C117.341 138.683 117.735 138.228 118.013 137.846C118.292 137.461 118.485 137.108 118.592 136.788C118.703 136.468 118.758 136.135 118.758 135.791C118.758 135.315 118.625 134.939 118.358 134.665C118.091 134.39 117.72 134.252 117.244 134.252C116.826 134.252 116.483 134.324 116.217 134.468C115.95 134.611 115.683 134.841 115.417 135.157L114.703 134.603C115.039 134.193 115.41 133.889 115.817 133.692C116.227 133.491 116.719 133.391 117.293 133.391ZM123.962 141.052C123.962 140.753 124.065 140.498 124.27 140.289C124.475 140.08 124.732 139.975 125.039 139.975C125.351 139.975 125.61 140.08 125.815 140.289C126.024 140.498 126.129 140.753 126.129 141.052C126.129 141.356 126.024 141.614 125.815 141.828C125.61 142.037 125.351 142.142 125.039 142.142C124.732 142.142 124.475 142.037 124.27 141.828C124.065 141.614 123.962 141.356 123.962 141.052ZM134.976 135.545C134.976 135.959 134.849 136.316 134.594 136.615C134.34 136.915 133.977 137.194 133.505 137.452C134.059 137.682 134.5 137.99 134.828 138.375C135.157 138.757 135.321 139.208 135.321 139.729C135.321 140.189 135.202 140.601 134.964 140.966C134.726 141.331 134.389 141.618 133.954 141.828C133.52 142.037 133.005 142.142 132.41 142.142C131.807 142.142 131.292 142.037 130.865 141.828C130.439 141.614 130.112 141.327 129.887 140.966C129.661 140.605 129.548 140.199 129.548 139.748C129.548 139.227 129.702 138.788 130.01 138.431C130.322 138.074 130.734 137.776 131.247 137.538C130.8 137.325 130.461 137.067 130.231 136.763C130.006 136.459 129.893 136.072 129.893 135.6C129.893 135.21 129.971 134.876 130.127 134.597C130.287 134.318 130.492 134.09 130.742 133.914C130.997 133.733 131.271 133.602 131.567 133.52C131.866 133.434 132.156 133.391 132.434 133.391C132.845 133.391 133.245 133.467 133.634 133.618C134.024 133.766 134.344 134 134.594 134.32C134.849 134.636 134.976 135.044 134.976 135.545ZM130.914 135.612C130.914 135.936 130.988 136.193 131.136 136.382C131.288 136.566 131.503 136.718 131.782 136.837C132.061 136.952 132.391 137.071 132.773 137.194C133.167 136.972 133.462 136.745 133.659 136.511C133.856 136.277 133.954 135.967 133.954 135.582C133.954 135.155 133.821 134.816 133.554 134.566C133.292 134.316 132.919 134.191 132.434 134.191C131.954 134.191 131.581 134.316 131.314 134.566C131.048 134.816 130.914 135.165 130.914 135.612ZM134.231 139.742C134.231 139.36 134.135 139.058 133.942 138.837C133.749 138.615 133.483 138.431 133.142 138.283C132.802 138.135 132.408 137.986 131.961 137.834C131.612 137.994 131.304 138.222 131.038 138.517C130.771 138.808 130.638 139.221 130.638 139.754C130.638 140.234 130.785 140.613 131.081 140.892C131.376 141.167 131.817 141.305 132.404 141.305C132.994 141.305 133.446 141.157 133.758 140.862C134.073 140.562 134.231 140.189 134.231 139.742ZM138.463 132.782V142H137.43V132.911L138.463 132.782ZM142.79 135.52L139.873 138.437L143.128 142H141.768L138.58 138.462L141.448 135.52H142.79ZM145.779 136.363C146.012 136.051 146.285 135.811 146.597 135.643C146.913 135.471 147.256 135.385 147.625 135.385C148.203 135.385 148.671 135.524 149.028 135.803C149.385 136.082 149.645 136.476 149.809 136.985C149.973 137.489 150.056 138.08 150.056 138.757C150.056 139.409 149.957 139.992 149.76 140.505C149.567 141.013 149.28 141.413 148.899 141.705C148.517 141.996 148.047 142.142 147.489 142.142C146.739 142.142 146.15 141.871 145.723 141.329L145.649 142H144.745V132.911L145.779 132.782V136.363ZM147.243 141.305C147.785 141.305 148.201 141.095 148.492 140.677C148.784 140.258 148.929 139.616 148.929 138.751C148.929 137.061 148.421 136.215 147.403 136.215C147.042 136.215 146.724 136.324 146.449 136.542C146.174 136.755 145.951 136.993 145.779 137.255V140.468C145.947 140.726 146.158 140.931 146.412 141.083C146.671 141.231 146.948 141.305 147.243 141.305Z" fill="#575757"/>
<path d="M26.8062 100.135C27.0113 99.8646 27.2574 99.6492 27.5446 99.4892C27.8359 99.3292 28.1477 99.2492 28.48 99.2492C29.321 99.2492 29.9323 99.561 30.3138 100.185C30.6995 100.808 30.8923 101.651 30.8923 102.714C30.8923 103.387 30.7918 103.988 30.5908 104.517C30.3938 105.042 30.1005 105.456 29.7108 105.76C29.321 106.059 28.8431 106.209 28.2769 106.209C27.5918 106.209 27.0523 105.943 26.6585 105.409L26.5846 106H24.8615V96.8677L26.8062 96.6646V100.135ZM27.7662 104.794C28.1108 104.794 28.3836 104.636 28.5846 104.32C28.7856 104 28.8862 103.473 28.8862 102.738C28.8862 102.197 28.8431 101.778 28.7569 101.483C28.6749 101.184 28.5559 100.976 28.4 100.862C28.2482 100.743 28.0697 100.683 27.8646 100.683C27.6472 100.683 27.4523 100.751 27.28 100.886C27.1077 101.022 26.9497 101.206 26.8062 101.44V104.197C26.9292 104.39 27.0667 104.537 27.2185 104.64C27.3703 104.743 27.5528 104.794 27.7662 104.794ZM37.7459 104.117C37.7459 104.363 37.7787 104.542 37.8444 104.652C37.9141 104.763 38.0249 104.847 38.1767 104.905L37.7767 106.185C37.391 106.148 37.0649 106.064 36.7982 105.932C36.5356 105.797 36.3285 105.594 36.1767 105.323C35.9264 105.623 35.6064 105.846 35.2167 105.994C34.8269 106.137 34.429 106.209 34.0228 106.209C33.35 106.209 32.8126 106.018 32.4105 105.637C32.0126 105.251 31.8136 104.757 31.8136 104.154C31.8136 103.444 32.0905 102.896 32.6444 102.511C33.2023 102.125 33.9859 101.932 34.9951 101.932H35.8751V101.686C35.8751 101.017 35.4444 100.683 34.5828 100.683C34.3736 100.683 34.1049 100.714 33.7767 100.775C33.4485 100.833 33.1202 100.917 32.792 101.028L32.3428 99.7354C32.7654 99.5754 33.2044 99.4544 33.6597 99.3723C34.1192 99.2903 34.5295 99.2492 34.8905 99.2492C35.8628 99.2492 36.5808 99.4482 37.0444 99.8462C37.512 100.24 37.7459 100.81 37.7459 101.557V104.117ZM34.6936 104.818C34.9028 104.818 35.1223 104.757 35.352 104.634C35.5818 104.507 35.7561 104.328 35.8751 104.098V103.04H35.3951C34.8536 103.04 34.4556 103.124 34.2013 103.292C33.9469 103.456 33.8197 103.698 33.8197 104.018C33.8197 104.269 33.8956 104.466 34.0474 104.609C34.2033 104.749 34.4187 104.818 34.6936 104.818ZM39.6887 106V104.695H40.5502V100.757H39.6887V99.4646H42.0333L42.3902 100.935C42.6241 100.373 42.9215 99.9549 43.2825 99.68C43.6477 99.4051 44.0928 99.2677 44.6179 99.2677C44.8395 99.2677 45.0364 99.2862 45.2087 99.3231C45.381 99.3559 45.5431 99.4031 45.6949 99.4646L45.3318 102.197H44.1133V100.991C43.7441 101.056 43.42 101.257 43.141 101.594C42.862 101.926 42.6467 102.336 42.4949 102.825V104.695H43.7872V106H39.6887ZM50.7269 96.6646L52.6715 96.8677V106H50.9484L50.85 105.28C50.6695 105.534 50.4295 105.754 50.13 105.938C49.8305 106.119 49.4674 106.209 49.0407 106.209C48.4992 106.209 48.05 106.064 47.6931 105.772C47.3402 105.481 47.0756 105.075 46.8992 104.554C46.7269 104.029 46.6407 103.415 46.6407 102.714C46.6407 102.041 46.7454 101.444 46.9546 100.923C47.1638 100.402 47.4633 99.9938 47.8531 99.6985C48.2428 99.399 48.7064 99.2492 49.2438 99.2492C49.8305 99.2492 50.3248 99.4503 50.7269 99.8523V96.6646ZM49.7669 100.671C49.4305 100.671 49.1597 100.831 48.9546 101.151C48.7495 101.467 48.6469 101.992 48.6469 102.726C48.6469 103.264 48.69 103.682 48.7761 103.982C48.8623 104.277 48.9813 104.484 49.1331 104.603C49.2848 104.722 49.4592 104.782 49.6561 104.782C49.8736 104.782 50.0705 104.714 50.2469 104.578C50.4274 104.443 50.5874 104.258 50.7269 104.025V101.206C50.5915 101.038 50.4479 100.907 50.2961 100.812C50.1443 100.718 49.9679 100.671 49.7669 100.671ZM54.5589 103.397V101.883H59.8882V103.397H54.5589ZM67.2771 104.117C67.2771 104.363 67.31 104.542 67.3756 104.652C67.4453 104.763 67.5561 104.847 67.7079 104.905L67.3079 106.185C66.9223 106.148 66.5961 106.064 66.3294 105.932C66.0669 105.797 65.8597 105.594 65.7079 105.323C65.4577 105.623 65.1377 105.846 64.7479 105.994C64.3582 106.137 63.9602 106.209 63.5541 106.209C62.8812 106.209 62.3438 106.018 61.9418 105.637C61.5438 105.251 61.3448 104.757 61.3448 104.154C61.3448 103.444 61.6218 102.896 62.1756 102.511C62.7335 102.125 63.5171 101.932 64.5264 101.932H65.4064V101.686C65.4064 101.017 64.9756 100.683 64.1141 100.683C63.9048 100.683 63.6361 100.714 63.3079 100.775C62.9797 100.833 62.6515 100.917 62.3233 101.028L61.8741 99.7354C62.2966 99.5754 62.7356 99.4544 63.191 99.3723C63.6505 99.2903 64.0607 99.2492 64.4218 99.2492C65.3941 99.2492 66.112 99.4482 66.5756 99.8462C67.0433 100.24 67.2771 100.81 67.2771 101.557V104.117ZM64.2248 104.818C64.4341 104.818 64.6535 104.757 64.8833 104.634C65.113 104.507 65.2874 104.328 65.4064 104.098V103.04H64.9264C64.3848 103.04 63.9869 103.124 63.7325 103.292C63.4782 103.456 63.351 103.698 63.351 104.018C63.351 104.269 63.4269 104.466 63.5787 104.609C63.7346 104.749 63.95 104.818 64.2248 104.818ZM71.9769 96.0431C72.3133 96.0431 72.5882 96.1477 72.8015 96.3569C73.0148 96.5662 73.1215 96.8267 73.1215 97.1385C73.1215 97.4503 73.0148 97.7128 72.8015 97.9262C72.5882 98.1354 72.3133 98.24 71.9769 98.24C71.6364 98.24 71.3574 98.1354 71.14 97.9262C70.9266 97.7128 70.82 97.4503 70.82 97.1385C70.82 96.8267 70.9266 96.5662 71.14 96.3569C71.3574 96.1477 71.6364 96.0431 71.9769 96.0431ZM73.1523 99.4646V104.671H74.8138V106H69.3553V104.671H71.2076V100.794H69.4169V99.4646H73.1523ZM86.4594 97.2554C87.1076 97.2554 87.6492 97.3682 88.084 97.5938C88.523 97.8195 88.8512 98.119 89.0687 98.4923C89.2902 98.8615 89.401 99.2636 89.401 99.6985C89.401 100.043 89.3415 100.382 89.2225 100.714C89.1076 101.042 88.9169 101.391 88.6502 101.76C88.3835 102.125 88.0287 102.531 87.5856 102.978C87.1466 103.426 86.603 103.938 85.9548 104.517H89.5979L89.3887 106H83.721V104.622C84.4225 103.945 85.0092 103.362 85.481 102.874C85.9569 102.386 86.3363 101.965 86.6194 101.612C86.9066 101.255 87.1117 100.939 87.2348 100.665C87.3579 100.39 87.4194 100.125 87.4194 99.8708C87.4194 99.5262 87.3189 99.2533 87.1179 99.0523C86.921 98.8513 86.6399 98.7508 86.2748 98.7508C85.9507 98.7508 85.6697 98.8185 85.4317 98.9538C85.1938 99.0892 84.964 99.3087 84.7425 99.6123L83.5487 98.7138C83.8687 98.2708 84.2625 97.9179 84.7302 97.6554C85.1979 97.3887 85.7743 97.2554 86.4594 97.2554ZM92.7653 104.837C92.7653 104.587 92.8269 104.359 92.9499 104.154C93.073 103.945 93.2392 103.778 93.4484 103.655C93.6576 103.528 93.8874 103.465 94.1376 103.465C94.392 103.465 94.6217 103.528 94.8269 103.655C95.0361 103.778 95.2022 103.945 95.3253 104.154C95.4484 104.359 95.5099 104.587 95.5099 104.837C95.5099 105.083 95.4484 105.311 95.3253 105.52C95.2022 105.729 95.0361 105.895 94.8269 106.018C94.6217 106.146 94.392 106.209 94.1376 106.209C93.8874 106.209 93.6576 106.146 93.4484 106.018C93.2392 105.895 93.073 105.729 92.9499 105.52C92.8269 105.311 92.7653 105.083 92.7653 104.837ZM104.167 97.4708L103.951 98.8615H100.831V100.702C101.04 100.603 101.256 100.533 101.477 100.492C101.699 100.451 101.904 100.431 102.093 100.431C102.532 100.431 102.932 100.542 103.293 100.763C103.658 100.985 103.947 101.303 104.16 101.717C104.378 102.131 104.487 102.626 104.487 103.2C104.487 103.774 104.345 104.289 104.062 104.745C103.783 105.2 103.393 105.559 102.893 105.822C102.392 106.08 101.808 106.209 101.139 106.209C100.519 106.209 99.9717 106.094 99.4958 105.865C99.0199 105.631 98.624 105.321 98.3081 104.935L99.4281 103.914C99.6333 104.176 99.8692 104.377 100.136 104.517C100.407 104.652 100.69 104.72 100.985 104.72C101.436 104.72 101.797 104.583 102.068 104.308C102.343 104.033 102.48 103.674 102.48 103.231C102.48 102.706 102.374 102.332 102.16 102.111C101.951 101.885 101.674 101.772 101.33 101.772C101.174 101.772 101.008 101.793 100.831 101.834C100.655 101.875 100.472 101.949 100.284 102.055H98.9727V97.4708H104.167ZM108.017 96.6646V106H106.072V96.8677L108.017 96.6646ZM112.276 99.4646L110.128 102.357L112.454 106H110.239L108.091 102.418L110.239 99.4646H112.276ZM115.4 100.135C115.605 99.8646 115.851 99.6492 116.138 99.4892C116.43 99.3292 116.741 99.2492 117.074 99.2492C117.915 99.2492 118.526 99.561 118.908 100.185C119.293 100.808 119.486 101.651 119.486 102.714C119.486 103.387 119.386 103.988 119.185 104.517C118.988 105.042 118.694 105.456 118.305 105.76C117.915 106.059 117.437 106.209 116.871 106.209C116.186 106.209 115.646 105.943 115.252 105.409L115.178 106H113.455V96.8677L115.4 96.6646V100.135ZM116.36 104.794C116.705 104.794 116.977 104.636 117.178 104.32C117.379 104 117.48 103.473 117.48 102.738C117.48 102.197 117.437 101.778 117.351 101.483C117.269 101.184 117.15 100.976 116.994 100.862C116.842 100.743 116.663 100.683 116.458 100.683C116.241 100.683 116.046 100.751 115.874 100.886C115.701 101.022 115.543 101.206 115.4 101.44V104.197C115.523 104.39 115.66 104.537 115.812 104.64C115.964 104.743 116.147 104.794 116.36 104.794Z" fill="url(#paint1_linear_6_2)"/>
<path d="M14.38 30.72H18.8L22.14 40.54H22.18L25.34 30.72H29.76V45H26.82V34.88H26.78L23.28 45H20.86L17.36 34.98H17.32V45H14.38V30.72ZM35.1445 33.06H32.3045V30.72H35.1445V33.06ZM32.3045 34.66H35.1445V45H32.3045V34.66ZM37.3808 34.66H40.0808V36.1H40.1408C40.5008 35.5 40.9674 35.0667 41.5408 34.8C42.1141 34.52 42.7008 34.38 43.3008 34.38C44.0608 34.38 44.6808 34.4867 45.1608 34.7C45.6541 34.9 46.0408 35.1867 46.3208 35.56C46.6008 35.92 46.7941 36.3667 46.9008 36.9C47.0208 37.42 47.0808 38 47.0808 38.64V45H44.2408V39.16C44.2408 38.3067 44.1074 37.6733 43.8408 37.26C43.5741 36.8333 43.1008 36.62 42.4208 36.62C41.6474 36.62 41.0874 36.8533 40.7408 37.32C40.3941 37.7733 40.2208 38.5267 40.2208 39.58V45H37.3808V34.66ZM48.5963 42.86L53.9763 36.8H48.9963V34.66H57.7163V36.8L52.3363 42.86H58.0963V45H48.5963V42.86ZM62.5273 33.06H59.6873V30.72H62.5273V33.06ZM59.6873 34.66H62.5273V45H59.6873V34.66ZM69.9836 43.14C70.4503 43.14 70.8369 43.0467 71.1436 42.86C71.4636 42.6733 71.7169 42.4333 71.9036 42.14C72.1036 41.8333 72.2436 41.48 72.3236 41.08C72.4036 40.68 72.4436 40.2733 72.4436 39.86C72.4436 39.4467 72.3969 39.04 72.3036 38.64C72.2236 38.24 72.0836 37.8867 71.8836 37.58C71.6836 37.26 71.4236 37.0067 71.1036 36.82C70.7969 36.62 70.4169 36.52 69.9636 36.52C69.4969 36.52 69.1036 36.62 68.7836 36.82C68.4769 37.0067 68.2236 37.2533 68.0236 37.56C67.8369 37.8667 67.7036 38.22 67.6236 38.62C67.5436 39.02 67.5036 39.4333 67.5036 39.86C67.5036 40.2733 67.5436 40.68 67.6236 41.08C67.7169 41.48 67.8569 41.8333 68.0436 42.14C68.2436 42.4333 68.5036 42.6733 68.8236 42.86C69.1436 43.0467 69.5303 43.14 69.9836 43.14ZM64.7636 34.66H67.4636V35.98H67.5036C67.8503 35.42 68.2903 35.0133 68.8236 34.76C69.3569 34.5067 69.9436 34.38 70.5836 34.38C71.3969 34.38 72.0969 34.5333 72.6836 34.84C73.2703 35.1467 73.7569 35.5533 74.1436 36.06C74.5303 36.5667 74.8169 37.16 75.0036 37.84C75.1903 38.5067 75.2836 39.2067 75.2836 39.94C75.2836 40.6333 75.1903 41.3 75.0036 41.94C74.8169 42.58 74.5303 43.1467 74.1436 43.64C73.7703 44.1333 73.2969 44.5267 72.7236 44.82C72.1636 45.1133 71.5036 45.26 70.7436 45.26C70.1036 45.26 69.5103 45.1333 68.9636 44.88C68.4303 44.6133 67.9903 44.2267 67.6436 43.72H67.6036V48.62H64.7636V34.66ZM82.2102 43.14C82.6768 43.14 83.0635 43.0467 83.3702 42.86C83.6902 42.6733 83.9435 42.4333 84.1302 42.14C84.3302 41.8333 84.4702 41.48 84.5502 41.08C84.6302 40.68 84.6702 40.2733 84.6702 39.86C84.6702 39.4467 84.6235 39.04 84.5302 38.64C84.4502 38.24 84.3102 37.8867 84.1102 37.58C83.9102 37.26 83.6502 37.0067 83.3302 36.82C83.0235 36.62 82.6435 36.52 82.1902 36.52C81.7235 36.52 81.3302 36.62 81.0102 36.82C80.7035 37.0067 80.4502 37.2533 80.2502 37.56C80.0635 37.8667 79.9302 38.22 79.8502 38.62C79.7702 39.02 79.7302 39.4333 79.7302 39.86C79.7302 40.2733 79.7702 40.68 79.8502 41.08C79.9435 41.48 80.0835 41.8333 80.2702 42.14C80.4702 42.4333 80.7302 42.6733 81.0502 42.86C81.3702 43.0467 81.7568 43.14 82.2102 43.14ZM76.9902 34.66H79.6902V35.98H79.7302C80.0768 35.42 80.5168 35.0133 81.0502 34.76C81.5835 34.5067 82.1702 34.38 82.8102 34.38C83.6235 34.38 84.3235 34.5333 84.9102 34.84C85.4968 35.1467 85.9835 35.5533 86.3702 36.06C86.7568 36.5667 87.0435 37.16 87.2302 37.84C87.4168 38.5067 87.5102 39.2067 87.5102 39.94C87.5102 40.6333 87.4168 41.3 87.2302 41.94C87.0435 42.58 86.7568 43.1467 86.3702 43.64C85.9968 44.1333 85.5235 44.5267 84.9502 44.82C84.3902 45.1133 83.7302 45.26 82.9702 45.26C82.3302 45.26 81.7368 45.1333 81.1902 44.88C80.6568 44.6133 80.2168 44.2267 79.8702 43.72H79.8302V48.62H76.9902V34.66ZM96.1767 38.72C96.0434 38 95.8034 37.4533 95.4567 37.08C95.1234 36.7067 94.6101 36.52 93.9167 36.52C93.4634 36.52 93.0834 36.6 92.7767 36.76C92.4834 36.9067 92.2434 37.0933 92.0567 37.32C91.8834 37.5467 91.7567 37.7867 91.6767 38.04C91.6101 38.2933 91.5701 38.52 91.5567 38.72H96.1767ZM91.5567 40.52C91.5967 41.44 91.8301 42.1067 92.2567 42.52C92.6834 42.9333 93.2967 43.14 94.0967 43.14C94.6701 43.14 95.1634 43 95.5767 42.72C95.9901 42.4267 96.2434 42.12 96.3367 41.8H98.8367C98.4367 43.04 97.8234 43.9267 96.9967 44.46C96.1701 44.9933 95.1701 45.26 93.9967 45.26C93.1834 45.26 92.4501 45.1333 91.7967 44.88C91.1434 44.6133 90.5901 44.24 90.1367 43.76C89.6834 43.28 89.3301 42.7067 89.0767 42.04C88.8367 41.3733 88.7167 40.64 88.7167 39.84C88.7167 39.0667 88.8434 38.3467 89.0967 37.68C89.3501 37.0133 89.7101 36.44 90.1767 35.96C90.6434 35.4667 91.1967 35.08 91.8367 34.8C92.4901 34.52 93.2101 34.38 93.9967 34.38C94.8767 34.38 95.6434 34.5533 96.2967 34.9C96.9501 35.2333 97.4834 35.6867 97.8967 36.26C98.3234 36.8333 98.6301 37.4867 98.8167 38.22C99.0034 38.9533 99.0701 39.72 99.0167 40.52H91.5567ZM108.041 39.8C108.041 39.3733 108.001 38.9667 107.921 38.58C107.841 38.18 107.701 37.8333 107.501 37.54C107.314 37.2333 107.068 36.9867 106.761 36.8C106.454 36.6133 106.068 36.52 105.601 36.52C105.134 36.52 104.741 36.6133 104.421 36.8C104.101 36.9867 103.841 37.2333 103.641 37.54C103.454 37.8467 103.314 38.2 103.221 38.6C103.141 38.9867 103.101 39.3933 103.101 39.82C103.101 40.22 103.148 40.62 103.241 41.02C103.334 41.42 103.481 41.78 103.681 42.1C103.894 42.4067 104.154 42.66 104.461 42.86C104.781 43.0467 105.161 43.14 105.601 43.14C106.068 43.14 106.454 43.0467 106.761 42.86C107.081 42.6733 107.334 42.4267 107.521 42.12C107.708 41.8 107.841 41.44 107.921 41.04C108.001 40.64 108.041 40.2267 108.041 39.8ZM108.081 43.68H108.041C107.708 44.24 107.268 44.6467 106.721 44.9C106.188 45.14 105.581 45.26 104.901 45.26C104.128 45.26 103.448 45.1133 102.861 44.82C102.274 44.5133 101.788 44.1067 101.401 43.6C101.028 43.08 100.741 42.4867 100.541 41.82C100.354 41.1533 100.261 40.46 100.261 39.74C100.261 39.0467 100.354 38.38 100.541 37.74C100.741 37.0867 101.028 36.5133 101.401 36.02C101.788 35.5267 102.268 35.1333 102.841 34.84C103.414 34.5333 104.081 34.38 104.841 34.38C105.454 34.38 106.034 34.5133 106.581 34.78C107.141 35.0333 107.581 35.4133 107.901 35.92H107.941V30.72H110.781V45H108.081V43.68ZM120.934 40.26C120.934 40.74 121.021 41.1467 121.194 41.48C121.367 41.8133 121.594 42.0867 121.874 42.3C122.167 42.5 122.507 42.6533 122.894 42.76C123.281 42.8533 123.681 42.9 124.094 42.9C124.374 42.9 124.674 42.88 124.994 42.84C125.314 42.7867 125.614 42.6933 125.894 42.56C126.174 42.4267 126.407 42.2467 126.594 42.02C126.781 41.78 126.874 41.48 126.874 41.12C126.874 40.7333 126.747 40.42 126.494 40.18C126.254 39.94 125.934 39.74 125.534 39.58C125.134 39.42 124.681 39.28 124.174 39.16C123.667 39.04 123.154 38.9067 122.634 38.76C122.101 38.6267 121.581 38.4667 121.074 38.28C120.567 38.08 120.114 37.8267 119.714 37.52C119.314 37.2133 118.987 36.8333 118.734 36.38C118.494 35.9133 118.374 35.3533 118.374 34.7C118.374 33.9667 118.527 33.3333 118.834 32.8C119.154 32.2533 119.567 31.8 120.074 31.44C120.581 31.08 121.154 30.8133 121.794 30.64C122.434 30.4667 123.074 30.38 123.714 30.38C124.461 30.38 125.174 30.4667 125.854 30.64C126.547 30.8 127.161 31.0667 127.694 31.44C128.227 31.8133 128.647 32.2933 128.954 32.88C129.274 33.4533 129.434 34.1533 129.434 34.98H126.394C126.367 34.5533 126.274 34.2 126.114 33.92C125.967 33.64 125.767 33.42 125.514 33.26C125.261 33.1 124.967 32.9867 124.634 32.92C124.314 32.8533 123.961 32.82 123.574 32.82C123.321 32.82 123.067 32.8467 122.814 32.9C122.561 32.9533 122.327 33.0467 122.114 33.18C121.914 33.3133 121.747 33.48 121.614 33.68C121.481 33.88 121.414 34.1333 121.414 34.44C121.414 34.72 121.467 34.9467 121.574 35.12C121.681 35.2933 121.887 35.4533 122.194 35.6C122.514 35.7467 122.947 35.8933 123.494 36.04C124.054 36.1867 124.781 36.3733 125.674 36.6C125.941 36.6533 126.307 36.7533 126.774 36.9C127.254 37.0333 127.727 37.2533 128.194 37.56C128.661 37.8667 129.061 38.28 129.394 38.8C129.741 39.3067 129.914 39.96 129.914 40.76C129.914 41.4133 129.787 42.02 129.534 42.58C129.281 43.14 128.901 43.6267 128.394 44.04C127.901 44.44 127.281 44.7533 126.534 44.98C125.801 45.2067 124.947 45.32 123.974 45.32C123.187 45.32 122.421 45.22 121.674 45.02C120.941 44.8333 120.287 44.5333 119.714 44.12C119.154 43.7067 118.707 43.18 118.374 42.54C118.041 41.9 117.881 41.14 117.894 40.26H120.934ZM134.402 33.06H131.562V30.72H134.402V33.06ZM131.562 34.66H134.402V45H131.562V34.66ZM135.999 42.86L141.379 36.8H136.399V34.66H145.119V36.8L139.739 42.86H145.499V45H135.999V42.86ZM153.97 38.72C153.836 38 153.596 37.4533 153.25 37.08C152.916 36.7067 152.403 36.52 151.71 36.52C151.256 36.52 150.876 36.6 150.57 36.76C150.276 36.9067 150.036 37.0933 149.85 37.32C149.676 37.5467 149.55 37.7867 149.47 38.04C149.403 38.2933 149.363 38.52 149.35 38.72H153.97ZM149.35 40.52C149.39 41.44 149.623 42.1067 150.05 42.52C150.476 42.9333 151.09 43.14 151.89 43.14C152.463 43.14 152.956 43 153.37 42.72C153.783 42.4267 154.036 42.12 154.13 41.8H156.63C156.23 43.04 155.616 43.9267 154.79 44.46C153.963 44.9933 152.963 45.26 151.79 45.26C150.976 45.26 150.243 45.1333 149.59 44.88C148.936 44.6133 148.383 44.24 147.93 43.76C147.476 43.28 147.123 42.7067 146.87 42.04C146.63 41.3733 146.51 40.64 146.51 39.84C146.51 39.0667 146.636 38.3467 146.89 37.68C147.143 37.0133 147.503 36.44 147.97 35.96C148.436 35.4667 148.99 35.08 149.63 34.8C150.283 34.52 151.003 34.38 151.79 34.38C152.67 34.38 153.436 34.5533 154.09 34.9C154.743 35.2333 155.276 35.6867 155.69 36.26C156.116 36.8333 156.423 37.4867 156.61 38.22C156.796 38.9533 156.863 39.72 156.81 40.52H149.35ZM169.04 30.38C168.28 31.7933 167.727 33.2667 167.38 34.8C167.034 36.32 166.86 37.8667 166.86 39.44C166.86 41.04 167.027 42.6067 167.36 44.14C167.707 45.6733 168.26 47.1667 169.02 48.62H166.66C165.82 47.2467 165.167 45.8 164.7 44.28C164.247 42.76 164.02 41.2133 164.02 39.64C164.02 38.8933 164.074 38.1133 164.18 37.3C164.3 36.4733 164.467 35.6533 164.68 34.84C164.907 34.0267 165.18 33.24 165.5 32.48C165.834 31.72 166.22 31.02 166.66 30.38H169.04ZM170.278 30.72H173.418V42.36H180.378V45H170.278V30.72ZM184.354 39.84C184.354 40.2533 184.394 40.66 184.474 41.06C184.554 41.4467 184.687 41.8 184.874 42.12C185.074 42.4267 185.334 42.6733 185.654 42.86C185.974 43.0467 186.374 43.14 186.854 43.14C187.334 43.14 187.734 43.0467 188.054 42.86C188.387 42.6733 188.647 42.4267 188.834 42.12C189.034 41.8 189.174 41.4467 189.254 41.06C189.334 40.66 189.374 40.2533 189.374 39.84C189.374 39.4267 189.334 39.02 189.254 38.62C189.174 38.22 189.034 37.8667 188.834 37.56C188.647 37.2533 188.387 37.0067 188.054 36.82C187.734 36.62 187.334 36.52 186.854 36.52C186.374 36.52 185.974 36.62 185.654 36.82C185.334 37.0067 185.074 37.2533 184.874 37.56C184.687 37.8667 184.554 38.22 184.474 38.62C184.394 39.02 184.354 39.4267 184.354 39.84ZM181.514 39.84C181.514 39.0133 181.641 38.2667 181.894 37.6C182.147 36.92 182.507 36.3467 182.974 35.88C183.441 35.4 184.001 35.0333 184.654 34.78C185.307 34.5133 186.041 34.38 186.854 34.38C187.667 34.38 188.401 34.5133 189.054 34.78C189.721 35.0333 190.287 35.4 190.754 35.88C191.221 36.3467 191.581 36.92 191.834 37.6C192.087 38.2667 192.214 39.0133 192.214 39.84C192.214 40.6667 192.087 41.4133 191.834 42.08C191.581 42.7467 191.221 43.32 190.754 43.8C190.287 44.2667 189.721 44.6267 189.054 44.88C188.401 45.1333 187.667 45.26 186.854 45.26C186.041 45.26 185.307 45.1333 184.654 44.88C184.001 44.6267 183.441 44.2667 182.974 43.8C182.507 43.32 182.147 42.7467 181.894 42.08C181.641 41.4133 181.514 40.6667 181.514 39.84ZM205.88 45H202.96L201.12 38.06H201.08L199.32 45H196.38L193.1 34.66H196.1L198 41.68H198.04L199.76 34.66H202.52L204.28 41.66H204.32L206.22 34.66H209.14L205.88 45ZM217.31 38.72C217.176 38 216.936 37.4533 216.59 37.08C216.256 36.7067 215.743 36.52 215.05 36.52C214.596 36.52 214.216 36.6 213.91 36.76C213.616 36.9067 213.376 37.0933 213.19 37.32C213.016 37.5467 212.89 37.7867 212.81 38.04C212.743 38.2933 212.703 38.52 212.69 38.72H217.31ZM212.69 40.52C212.73 41.44 212.963 42.1067 213.39 42.52C213.816 42.9333 214.43 43.14 215.23 43.14C215.803 43.14 216.296 43 216.71 42.72C217.123 42.4267 217.376 42.12 217.47 41.8H219.97C219.57 43.04 218.956 43.9267 218.13 44.46C217.303 44.9933 216.303 45.26 215.13 45.26C214.316 45.26 213.583 45.1333 212.93 44.88C212.276 44.6133 211.723 44.24 211.27 43.76C210.816 43.28 210.463 42.7067 210.21 42.04C209.97 41.3733 209.85 40.64 209.85 39.84C209.85 39.0667 209.976 38.3467 210.23 37.68C210.483 37.0133 210.843 36.44 211.31 35.96C211.776 35.4667 212.33 35.08 212.97 34.8C213.623 34.52 214.343 34.38 215.13 34.38C216.01 34.38 216.776 34.5533 217.43 34.9C218.083 35.2333 218.616 35.6867 219.03 36.26C219.456 36.8333 219.763 37.4867 219.95 38.22C220.136 38.9533 220.203 39.72 220.15 40.52H212.69ZM221.834 34.66H224.534V36.58H224.574C224.707 36.26 224.887 35.9667 225.114 35.7C225.341 35.42 225.601 35.1867 225.894 35C226.187 34.8 226.501 34.6467 226.834 34.54C227.167 34.4333 227.514 34.38 227.874 34.38C228.061 34.38 228.267 34.4133 228.494 34.48V37.12C228.361 37.0933 228.201 37.0733 228.014 37.06C227.827 37.0333 227.647 37.02 227.474 37.02C226.954 37.02 226.514 37.1067 226.154 37.28C225.794 37.4533 225.501 37.6933 225.274 38C225.061 38.2933 224.907 38.64 224.814 39.04C224.721 39.44 224.674 39.8733 224.674 40.34V45H221.834V34.66ZM238.094 33.06H235.254V30.72H238.094V33.06ZM235.254 34.66H238.094V45H235.254V34.66ZM242.53 41.64C242.53 41.9467 242.59 42.2133 242.71 42.44C242.843 42.6533 243.01 42.8333 243.21 42.98C243.41 43.1133 243.637 43.2133 243.89 43.28C244.157 43.3467 244.43 43.38 244.71 43.38C244.91 43.38 245.117 43.36 245.33 43.32C245.557 43.2667 245.757 43.1933 245.93 43.1C246.117 42.9933 246.27 42.86 246.39 42.7C246.51 42.5267 246.57 42.3133 246.57 42.06C246.57 41.6333 246.283 41.3133 245.71 41.1C245.15 40.8867 244.363 40.6733 243.35 40.46C242.937 40.3667 242.53 40.26 242.13 40.14C241.743 40.0067 241.397 39.84 241.09 39.64C240.783 39.4267 240.537 39.1667 240.35 38.86C240.163 38.54 240.07 38.1533 240.07 37.7C240.07 37.0333 240.197 36.4867 240.45 36.06C240.717 35.6333 241.063 35.3 241.49 35.06C241.917 34.8067 242.397 34.6333 242.93 34.54C243.463 34.4333 244.01 34.38 244.57 34.38C245.13 34.38 245.67 34.4333 246.19 34.54C246.723 34.6467 247.197 34.8267 247.61 35.08C248.023 35.3333 248.363 35.6733 248.63 36.1C248.91 36.5133 249.077 37.04 249.13 37.68H246.43C246.39 37.1333 246.183 36.7667 245.81 36.58C245.437 36.38 244.997 36.28 244.49 36.28C244.33 36.28 244.157 36.2933 243.97 36.32C243.783 36.3333 243.61 36.3733 243.45 36.44C243.303 36.5067 243.177 36.6067 243.07 36.74C242.963 36.86 242.91 37.0267 242.91 37.24C242.91 37.4933 243.003 37.7 243.19 37.86C243.377 38.02 243.617 38.1533 243.91 38.26C244.217 38.3533 244.563 38.44 244.95 38.52C245.337 38.6 245.73 38.6867 246.13 38.78C246.543 38.8733 246.943 38.9867 247.33 39.12C247.73 39.2533 248.083 39.4333 248.39 39.66C248.697 39.8733 248.943 40.1467 249.13 40.48C249.317 40.8 249.41 41.2 249.41 41.68C249.41 42.36 249.27 42.9333 248.99 43.4C248.723 43.8533 248.37 44.22 247.93 44.5C247.49 44.78 246.983 44.9733 246.41 45.08C245.85 45.2 245.277 45.26 244.69 45.26C244.09 45.26 243.503 45.2 242.93 45.08C242.357 44.96 241.843 44.76 241.39 44.48C240.95 44.2 240.583 43.8333 240.29 43.38C240.01 42.9133 239.857 42.3333 239.83 41.64H242.53ZM264.219 39.84C264.219 39.4 264.172 38.98 264.079 38.58C263.985 38.18 263.839 37.8267 263.639 37.52C263.439 37.2133 263.185 36.9733 262.879 36.8C262.585 36.6133 262.225 36.52 261.799 36.52C261.385 36.52 261.025 36.6133 260.719 36.8C260.412 36.9733 260.159 37.2133 259.959 37.52C259.759 37.8267 259.612 38.18 259.519 38.58C259.425 38.98 259.379 39.4 259.379 39.84C259.379 40.2667 259.425 40.68 259.519 41.08C259.612 41.48 259.759 41.8333 259.959 42.14C260.159 42.4467 260.412 42.6933 260.719 42.88C261.025 43.0533 261.385 43.14 261.799 43.14C262.225 43.14 262.585 43.0533 262.879 42.88C263.185 42.6933 263.439 42.4467 263.639 42.14C263.839 41.8333 263.985 41.48 264.079 41.08C264.172 40.68 264.219 40.2667 264.219 39.84ZM256.639 30.72H259.479V35.92H259.519C259.865 35.3867 260.332 35 260.919 34.76C261.519 34.5067 262.139 34.38 262.779 34.38C263.299 34.38 263.812 34.4867 264.319 34.7C264.825 34.9133 265.279 35.24 265.679 35.68C266.092 36.12 266.425 36.6867 266.679 37.38C266.932 38.06 267.059 38.8733 267.059 39.82C267.059 40.7667 266.932 41.5867 266.679 42.28C266.425 42.96 266.092 43.52 265.679 43.96C265.279 44.4 264.825 44.7267 264.319 44.94C263.812 45.1533 263.299 45.26 262.779 45.26C262.019 45.26 261.339 45.14 260.739 44.9C260.139 44.66 259.685 44.2533 259.379 43.68H259.339V45H256.639V30.72ZM275.825 38.72C275.692 38 275.452 37.4533 275.105 37.08C274.772 36.7067 274.258 36.52 273.565 36.52C273.112 36.52 272.732 36.6 272.425 36.76C272.132 36.9067 271.892 37.0933 271.705 37.32C271.532 37.5467 271.405 37.7867 271.325 38.04C271.258 38.2933 271.218 38.52 271.205 38.72H275.825ZM271.205 40.52C271.245 41.44 271.478 42.1067 271.905 42.52C272.332 42.9333 272.945 43.14 273.745 43.14C274.318 43.14 274.812 43 275.225 42.72C275.638 42.4267 275.892 42.12 275.985 41.8H278.485C278.085 43.04 277.472 43.9267 276.645 44.46C275.818 44.9933 274.818 45.26 273.645 45.26C272.832 45.26 272.098 45.1333 271.445 44.88C270.792 44.6133 270.238 44.24 269.785 43.76C269.332 43.28 268.978 42.7067 268.725 42.04C268.485 41.3733 268.365 40.64 268.365 39.84C268.365 39.0667 268.492 38.3467 268.745 37.68C268.998 37.0133 269.358 36.44 269.825 35.96C270.292 35.4667 270.845 35.08 271.485 34.8C272.138 34.52 272.858 34.38 273.645 34.38C274.525 34.38 275.292 34.5533 275.945 34.9C276.598 35.2333 277.132 35.6867 277.545 36.26C277.972 36.8333 278.278 37.4867 278.465 38.22C278.652 38.9533 278.718 39.72 278.665 40.52H271.205ZM283.95 34.66H286.03V36.56H283.95V41.68C283.95 42.16 284.03 42.48 284.19 42.64C284.35 42.8 284.67 42.88 285.15 42.88C285.31 42.88 285.463 42.8733 285.61 42.86C285.756 42.8467 285.896 42.8267 286.03 42.8V45C285.79 45.04 285.523 45.0667 285.23 45.08C284.936 45.0933 284.65 45.1 284.37 45.1C283.93 45.1 283.51 45.0667 283.11 45C282.723 44.9467 282.376 44.8333 282.07 44.66C281.776 44.4867 281.543 44.24 281.37 43.92C281.196 43.6 281.11 43.18 281.11 42.66V36.56H279.39V34.66H281.11V31.56H283.95V34.66ZM290.981 34.66H293.061V36.56H290.981V41.68C290.981 42.16 291.061 42.48 291.221 42.64C291.381 42.8 291.701 42.88 292.181 42.88C292.341 42.88 292.494 42.8733 292.641 42.86C292.787 42.8467 292.927 42.8267 293.061 42.8V45C292.821 45.04 292.554 45.0667 292.261 45.08C291.967 45.0933 291.681 45.1 291.401 45.1C290.961 45.1 290.541 45.0667 290.141 45C289.754 44.9467 289.407 44.8333 289.101 44.66C288.807 44.4867 288.574 44.24 288.401 43.92C288.227 43.6 288.141 43.18 288.141 42.66V36.56H286.421V34.66H288.141V31.56H290.981V34.66ZM301.372 38.72C301.239 38 300.999 37.4533 300.652 37.08C300.319 36.7067 299.805 36.52 299.112 36.52C298.659 36.52 298.279 36.6 297.972 36.76C297.679 36.9067 297.439 37.0933 297.252 37.32C297.079 37.5467 296.952 37.7867 296.872 38.04C296.805 38.2933 296.765 38.52 296.752 38.72H301.372ZM296.752 40.52C296.792 41.44 297.025 42.1067 297.452 42.52C297.879 42.9333 298.492 43.14 299.292 43.14C299.865 43.14 300.359 43 300.772 42.72C301.185 42.4267 301.439 42.12 301.532 41.8H304.032C303.632 43.04 303.019 43.9267 302.192 44.46C301.365 44.9933 300.365 45.26 299.192 45.26C298.379 45.26 297.645 45.1333 296.992 44.88C296.339 44.6133 295.785 44.24 295.332 43.76C294.879 43.28 294.525 42.7067 294.272 42.04C294.032 41.3733 293.912 40.64 293.912 39.84C293.912 39.0667 294.039 38.3467 294.292 37.68C294.545 37.0133 294.905 36.44 295.372 35.96C295.839 35.4667 296.392 35.08 297.032 34.8C297.685 34.52 298.405 34.38 299.192 34.38C300.072 34.38 300.839 34.5533 301.492 34.9C302.145 35.2333 302.679 35.6867 303.092 36.26C303.519 36.8333 303.825 37.4867 304.012 38.22C304.199 38.9533 304.265 39.72 304.212 40.52H296.752ZM305.896 34.66H308.596V36.58H308.636C308.77 36.26 308.95 35.9667 309.176 35.7C309.403 35.42 309.663 35.1867 309.956 35C310.25 34.8 310.563 34.6467 310.896 34.54C311.23 34.4333 311.576 34.38 311.936 34.38C312.123 34.38 312.33 34.4133 312.556 34.48V37.12C312.423 37.0933 312.263 37.0733 312.076 37.06C311.89 37.0333 311.71 37.02 311.536 37.02C311.016 37.02 310.576 37.1067 310.216 37.28C309.856 37.4533 309.563 37.6933 309.336 38C309.123 38.2933 308.97 38.64 308.876 39.04C308.783 39.44 308.736 39.8733 308.736 40.34V45H305.896V34.66ZM312.47 48.62C313.203 47.2067 313.743 45.7467 314.09 44.24C314.45 42.72 314.63 41.1733 314.63 39.6C314.63 38 314.457 36.4267 314.11 34.88C313.763 33.3333 313.223 31.8333 312.49 30.38H314.83C315.67 31.7533 316.317 33.2067 316.77 34.74C317.237 36.2733 317.47 37.8267 317.47 39.4C317.47 40.1467 317.417 40.9333 317.31 41.76C317.203 42.5733 317.037 43.3867 316.81 44.2C316.597 45 316.323 45.78 315.99 46.54C315.657 47.3 315.27 47.9933 314.83 48.62H312.47Z" fill="black"/>
<rect x="400" y="64" width="3" height="142" rx="1.5" fill="#B7B7B7"/>
<path d="M403 147H618C623.523 147 628 151.477 628 157V178C628 183.523 623.523 188 618 188H403V147Z" fill="#D8D8D8"/>
<path d="M403 81H493C498.523 81 503 85.4772 503 91V112C503 117.523 498.523 122 493 122H403V81Z" fill="url(#paint2_linear_6_2)"/>
<path d="M411.505 134.831L411.825 135.803C411.546 135.889 411.25 135.943 410.938 135.963C410.631 135.984 410.294 135.994 409.929 135.994C410.68 136.338 411.055 136.882 411.055 137.625C411.055 138.265 410.84 138.792 410.409 139.206C409.983 139.621 409.386 139.828 408.618 139.828C408.401 139.828 408.218 139.817 408.071 139.797C407.927 139.776 407.788 139.746 407.652 139.705C407.554 139.774 407.472 139.867 407.406 139.982C407.345 140.092 407.314 140.209 407.314 140.332C407.314 140.488 407.375 140.617 407.498 140.72C407.622 140.823 407.849 140.874 408.182 140.874H409.351C409.786 140.874 410.175 140.952 410.52 141.108C410.865 141.264 411.137 141.475 411.338 141.742C411.539 142.004 411.64 142.302 411.64 142.634C411.64 143.27 411.369 143.758 410.828 144.098C410.29 144.439 409.529 144.609 408.545 144.609C407.855 144.609 407.312 144.537 406.914 144.394C406.516 144.254 406.231 144.039 406.058 143.748C405.89 143.461 405.806 143.097 405.806 142.658H406.742C406.742 142.909 406.791 143.116 406.889 143.28C406.988 143.444 407.166 143.565 407.425 143.643C407.683 143.725 408.054 143.766 408.538 143.766C409.252 143.766 409.773 143.676 410.102 143.495C410.43 143.319 410.594 143.054 410.594 142.702C410.594 142.394 410.454 142.162 410.175 142.006C409.896 141.85 409.548 141.772 409.129 141.772H407.972C407.41 141.772 406.998 141.649 406.735 141.403C406.473 141.157 406.342 140.874 406.342 140.554C406.342 140.111 406.579 139.733 407.055 139.422C406.329 139.036 405.966 138.439 405.966 137.631C405.966 137.192 406.075 136.804 406.292 136.468C406.51 136.127 406.813 135.861 407.203 135.668C407.593 135.475 408.042 135.378 408.551 135.378C409.096 135.378 409.539 135.356 409.88 135.311C410.221 135.266 410.512 135.202 410.754 135.12C411 135.038 411.25 134.942 411.505 134.831ZM408.551 136.135C408.03 136.135 407.644 136.277 407.394 136.56C407.148 136.843 407.025 137.2 407.025 137.631C407.025 138.07 407.15 138.431 407.4 138.714C407.654 138.997 408.046 139.138 408.575 139.138C409.031 139.138 409.379 139.005 409.622 138.738C409.864 138.472 409.985 138.101 409.985 137.625C409.985 136.632 409.507 136.135 408.551 136.135ZM416.087 135.385C417.002 135.385 417.694 135.69 418.161 136.302C418.629 136.913 418.863 137.731 418.863 138.757C418.863 139.417 418.756 140.002 418.543 140.511C418.329 141.019 418.016 141.419 417.601 141.711C417.187 141.998 416.678 142.142 416.075 142.142C415.16 142.142 414.467 141.834 413.995 141.218C413.523 140.603 413.287 139.787 413.287 138.769C413.287 138.105 413.394 137.518 413.607 137.009C413.821 136.496 414.135 136.098 414.549 135.815C414.967 135.528 415.48 135.385 416.087 135.385ZM416.087 136.228C415.529 136.228 415.107 136.435 414.82 136.849C414.537 137.264 414.395 137.904 414.395 138.769C414.395 139.627 414.535 140.263 414.814 140.677C415.097 141.087 415.517 141.292 416.075 141.292C416.633 141.292 417.052 141.085 417.331 140.671C417.614 140.256 417.755 139.618 417.755 138.757C417.755 137.895 417.616 137.259 417.337 136.849C417.058 136.435 416.641 136.228 416.087 136.228ZM423.47 135.385C424.385 135.385 425.076 135.69 425.544 136.302C426.012 136.913 426.246 137.731 426.246 138.757C426.246 139.417 426.139 140.002 425.926 140.511C425.712 141.019 425.398 141.419 424.984 141.711C424.57 141.998 424.061 142.142 423.458 142.142C422.543 142.142 421.85 141.834 421.378 141.218C420.906 140.603 420.67 139.787 420.67 138.769C420.67 138.105 420.777 137.518 420.99 137.009C421.204 136.496 421.517 136.098 421.932 135.815C422.35 135.528 422.863 135.385 423.47 135.385ZM423.47 136.228C422.912 136.228 422.49 136.435 422.203 136.849C421.919 137.264 421.778 137.904 421.778 138.769C421.778 139.627 421.917 140.263 422.196 140.677C422.479 141.087 422.9 141.292 423.458 141.292C424.016 141.292 424.434 141.085 424.713 140.671C424.996 140.256 425.138 139.618 425.138 138.757C425.138 137.895 424.998 137.259 424.719 136.849C424.44 136.435 424.024 136.228 423.47 136.228ZM433.653 134.831L433.973 135.803C433.694 135.889 433.399 135.943 433.087 135.963C432.779 135.984 432.443 135.994 432.078 135.994C432.828 136.338 433.204 136.882 433.204 137.625C433.204 138.265 432.988 138.792 432.558 139.206C432.131 139.621 431.534 139.828 430.767 139.828C430.549 139.828 430.367 139.817 430.219 139.797C430.076 139.776 429.936 139.746 429.801 139.705C429.702 139.774 429.62 139.867 429.555 139.982C429.493 140.092 429.462 140.209 429.462 140.332C429.462 140.488 429.524 140.617 429.647 140.72C429.77 140.823 429.998 140.874 430.33 140.874H431.499C431.934 140.874 432.324 140.952 432.668 141.108C433.013 141.264 433.286 141.475 433.487 141.742C433.688 142.004 433.788 142.302 433.788 142.634C433.788 143.27 433.518 143.758 432.976 144.098C432.439 144.439 431.678 144.609 430.693 144.609C430.004 144.609 429.46 144.537 429.062 144.394C428.664 144.254 428.379 144.039 428.207 143.748C428.039 143.461 427.955 143.097 427.955 142.658H428.89C428.89 142.909 428.939 143.116 429.038 143.28C429.136 143.444 429.315 143.565 429.573 143.643C429.832 143.725 430.203 143.766 430.687 143.766C431.401 143.766 431.922 143.676 432.25 143.495C432.578 143.319 432.742 143.054 432.742 142.702C432.742 142.394 432.603 142.162 432.324 142.006C432.045 141.85 431.696 141.772 431.278 141.772H430.121C429.559 141.772 429.146 141.649 428.884 141.403C428.621 141.157 428.49 140.874 428.49 140.554C428.49 140.111 428.728 139.733 429.204 139.422C428.478 139.036 428.115 138.439 428.115 137.631C428.115 137.192 428.223 136.804 428.441 136.468C428.658 136.127 428.962 135.861 429.352 135.668C429.741 135.475 430.19 135.378 430.699 135.378C431.245 135.378 431.688 135.356 432.028 135.311C432.369 135.266 432.66 135.202 432.902 135.12C433.148 135.038 433.399 134.942 433.653 134.831ZM430.699 136.135C430.178 136.135 429.793 136.277 429.542 136.56C429.296 136.843 429.173 137.2 429.173 137.631C429.173 138.07 429.298 138.431 429.548 138.714C429.803 138.997 430.195 139.138 430.724 139.138C431.179 139.138 431.528 139.005 431.77 138.738C432.012 138.472 432.133 138.101 432.133 137.625C432.133 136.632 431.655 136.135 430.699 136.135ZM438.291 132.911V140.4C438.291 140.72 438.39 140.948 438.587 141.083C438.788 141.214 439.046 141.28 439.362 141.28C439.555 141.28 439.739 141.259 439.916 141.218C440.096 141.177 440.275 141.122 440.451 141.052L440.728 141.809C440.552 141.895 440.332 141.971 440.07 142.037C439.811 142.107 439.518 142.142 439.19 142.142C438.615 142.142 438.15 141.984 437.793 141.668C437.436 141.348 437.257 140.907 437.257 140.345V133.729H435.27V132.911H438.291ZM443.963 139.126C443.992 139.877 444.189 140.425 444.554 140.769C444.923 141.11 445.358 141.28 445.859 141.28C446.191 141.28 446.49 141.231 446.757 141.132C447.024 141.034 447.301 140.888 447.588 140.695L448.074 141.378C447.775 141.616 447.43 141.803 447.04 141.938C446.65 142.074 446.253 142.142 445.846 142.142C445.215 142.142 444.677 142 444.234 141.717C443.795 141.434 443.459 141.04 443.225 140.535C442.995 140.027 442.88 139.438 442.88 138.769C442.88 138.113 442.995 137.53 443.225 137.022C443.459 136.513 443.787 136.113 444.209 135.822C444.636 135.53 445.137 135.385 445.711 135.385C446.527 135.385 447.169 135.668 447.637 136.234C448.109 136.8 448.345 137.575 448.345 138.56C448.345 138.671 448.341 138.775 448.333 138.874C448.328 138.972 448.324 139.056 448.32 139.126H443.963ZM445.723 136.234C445.243 136.234 444.841 136.404 444.517 136.745C444.193 137.085 444.01 137.612 443.969 138.326H447.348C447.336 137.633 447.184 137.112 446.893 136.763C446.601 136.41 446.211 136.234 445.723 136.234ZM451.568 136.363C451.801 136.051 452.074 135.811 452.386 135.643C452.702 135.471 453.045 135.385 453.414 135.385C453.992 135.385 454.46 135.524 454.817 135.803C455.174 136.082 455.434 136.476 455.598 136.985C455.763 137.489 455.845 138.08 455.845 138.757C455.845 139.409 455.746 139.992 455.549 140.505C455.356 141.013 455.069 141.413 454.688 141.705C454.306 141.996 453.836 142.142 453.278 142.142C452.528 142.142 451.939 141.871 451.512 141.329L451.438 142H450.534V132.911L451.568 132.782V136.363ZM453.032 141.305C453.574 141.305 453.99 141.095 454.281 140.677C454.573 140.258 454.718 139.616 454.718 138.751C454.718 137.061 454.21 136.215 453.192 136.215C452.831 136.215 452.513 136.324 452.238 136.542C451.964 136.755 451.74 136.993 451.568 137.255V140.468C451.736 140.726 451.947 140.931 452.201 141.083C452.46 141.231 452.737 141.305 453.032 141.305ZM462.557 140.585C462.557 140.847 462.6 141.038 462.686 141.157C462.772 141.276 462.905 141.362 463.086 141.415L462.834 142.142C462.555 142.105 462.31 142.016 462.101 141.877C461.892 141.733 461.74 141.518 461.646 141.231C461.412 141.53 461.119 141.758 460.766 141.914C460.417 142.066 460.034 142.142 459.615 142.142C458.967 142.142 458.456 141.959 458.083 141.594C457.709 141.229 457.523 140.745 457.523 140.142C457.523 139.473 457.783 138.96 458.304 138.603C458.825 138.246 459.578 138.068 460.563 138.068H461.517V137.526C461.517 137.058 461.379 136.728 461.104 136.535C460.834 136.338 460.456 136.24 459.972 136.24C459.759 136.24 459.508 136.267 459.221 136.32C458.934 136.369 458.622 136.453 458.286 136.572L458.015 135.791C458.409 135.643 458.78 135.538 459.129 135.477C459.482 135.415 459.816 135.385 460.132 135.385C460.936 135.385 461.541 135.573 461.947 135.951C462.354 136.328 462.557 136.837 462.557 137.477V140.585ZM459.88 141.354C460.2 141.354 460.503 141.274 460.79 141.114C461.082 140.95 461.324 140.724 461.517 140.437V138.769H460.581C459.867 138.769 459.363 138.892 459.067 139.138C458.776 139.385 458.63 139.715 458.63 140.129C458.63 140.946 459.047 141.354 459.88 141.354ZM465.361 142V141.206H466.37V136.314H465.361V135.52H467.158L467.349 137.052C467.599 136.519 467.902 136.107 468.259 135.815C468.616 135.524 469.088 135.378 469.675 135.378C469.855 135.378 470.015 135.393 470.155 135.422C470.298 135.446 470.444 135.479 470.592 135.52L470.444 137.711H469.595V136.332C469.578 136.332 469.56 136.332 469.539 136.332C468.547 136.332 467.835 137.042 467.404 138.462V141.206H468.721V142H465.361ZM476.559 132.782L477.593 132.911V142H476.688L476.59 141.145C476.348 141.489 476.069 141.742 475.753 141.902C475.441 142.062 475.107 142.142 474.75 142.142C474.188 142.142 473.724 142 473.359 141.717C472.994 141.434 472.723 141.04 472.547 140.535C472.37 140.027 472.282 139.438 472.282 138.769C472.282 138.121 472.383 137.543 472.584 137.034C472.785 136.521 473.074 136.119 473.451 135.828C473.833 135.532 474.29 135.385 474.824 135.385C475.542 135.385 476.12 135.639 476.559 136.148V132.782ZM475.095 136.215C474.553 136.215 474.137 136.427 473.845 136.849C473.554 137.272 473.408 137.912 473.408 138.769C473.408 140.459 473.927 141.305 474.965 141.305C475.33 141.305 475.644 141.202 475.907 140.997C476.169 140.788 476.387 140.55 476.559 140.283V137.046C476.383 136.784 476.169 136.581 475.919 136.437C475.669 136.289 475.394 136.215 475.095 136.215Z" fill="#575757"/>
<path d="M507.806 100.135C508.011 99.8646 508.257 99.6492 508.545 99.4892C508.836 99.3292 509.148 99.2492 509.48 99.2492C510.321 99.2492 510.932 99.561 511.314 100.185C511.699 100.808 511.892 101.651 511.892 102.714C511.892 103.387 511.792 103.988 511.591 104.517C511.394 105.042 511.101 105.456 510.711 105.76C510.321 106.059 509.843 106.209 509.277 106.209C508.592 106.209 508.052 105.943 507.658 105.409L507.585 106H505.862V96.8677L507.806 96.6646V100.135ZM508.766 104.794C509.111 104.794 509.384 104.636 509.585 104.32C509.786 104 509.886 103.473 509.886 102.738C509.886 102.197 509.843 101.778 509.757 101.483C509.675 101.184 509.556 100.976 509.4 100.862C509.248 100.743 509.07 100.683 508.865 100.683C508.647 100.683 508.452 100.751 508.28 100.886C508.108 101.022 507.95 101.206 507.806 101.44V104.197C507.929 104.39 508.067 104.537 508.218 104.64C508.37 104.743 508.553 104.794 508.766 104.794ZM518.746 104.117C518.746 104.363 518.779 104.542 518.844 104.652C518.914 104.763 519.025 104.847 519.177 104.905L518.777 106.185C518.391 106.148 518.065 106.064 517.798 105.932C517.536 105.797 517.328 105.594 517.177 105.323C516.926 105.623 516.606 105.846 516.217 105.994C515.827 106.137 515.429 106.209 515.023 106.209C514.35 106.209 513.813 106.018 513.411 105.637C513.013 105.251 512.814 104.757 512.814 104.154C512.814 103.444 513.091 102.896 513.644 102.511C514.202 102.125 514.986 101.932 515.995 101.932H516.875V101.686C516.875 101.017 516.444 100.683 515.583 100.683C515.374 100.683 515.105 100.714 514.777 100.775C514.448 100.833 514.12 100.917 513.792 101.028L513.343 99.7354C513.765 99.5754 514.204 99.4544 514.66 99.3723C515.119 99.2903 515.529 99.2492 515.891 99.2492C516.863 99.2492 517.581 99.4482 518.044 99.8462C518.512 100.24 518.746 100.81 518.746 101.557V104.117ZM515.694 104.818C515.903 104.818 516.122 104.757 516.352 104.634C516.582 104.507 516.756 104.328 516.875 104.098V103.04H516.395C515.854 103.04 515.456 103.124 515.201 103.292C514.947 103.456 514.82 103.698 514.82 104.018C514.82 104.269 514.896 104.466 515.047 104.609C515.203 104.749 515.419 104.818 515.694 104.818ZM520.689 106V104.695H521.55V100.757H520.689V99.4646H523.033L523.39 100.935C523.624 100.373 523.922 99.9549 524.283 99.68C524.648 99.4051 525.093 99.2677 525.618 99.2677C525.839 99.2677 526.036 99.2862 526.209 99.3231C526.381 99.3559 526.543 99.4031 526.695 99.4646L526.332 102.197H525.113V100.991C524.744 101.056 524.42 101.257 524.141 101.594C523.862 101.926 523.647 102.336 523.495 102.825V104.695H524.787V106H520.689ZM531.727 96.6646L533.672 96.8677V106H531.948L531.85 105.28C531.669 105.534 531.429 105.754 531.13 105.938C530.83 106.119 530.467 106.209 530.041 106.209C529.499 106.209 529.05 106.064 528.693 105.772C528.34 105.481 528.076 105.075 527.899 104.554C527.727 104.029 527.641 103.415 527.641 102.714C527.641 102.041 527.745 101.444 527.955 100.923C528.164 100.402 528.463 99.9938 528.853 99.6985C529.243 99.399 529.706 99.2492 530.244 99.2492C530.83 99.2492 531.325 99.4503 531.727 99.8523V96.6646ZM530.767 100.671C530.43 100.671 530.16 100.831 529.955 101.151C529.749 101.467 529.647 101.992 529.647 102.726C529.647 103.264 529.69 103.682 529.776 103.982C529.862 104.277 529.981 104.484 530.133 104.603C530.285 104.722 530.459 104.782 530.656 104.782C530.874 104.782 531.07 104.714 531.247 104.578C531.427 104.443 531.587 104.258 531.727 104.025V101.206C531.592 101.038 531.448 100.907 531.296 100.812C531.144 100.718 530.968 100.671 530.767 100.671ZM535.559 103.397V101.883H540.888V103.397H535.559ZM548.277 104.117C548.277 104.363 548.31 104.542 548.376 104.652C548.445 104.763 548.556 104.847 548.708 104.905L548.308 106.185C547.922 106.148 547.596 106.064 547.329 105.932C547.067 105.797 546.86 105.594 546.708 105.323C546.458 105.623 546.138 105.846 545.748 105.994C545.358 106.137 544.96 106.209 544.554 106.209C543.881 106.209 543.344 106.018 542.942 105.637C542.544 105.251 542.345 104.757 542.345 104.154C542.345 103.444 542.622 102.896 543.176 102.511C543.734 102.125 544.517 101.932 545.526 101.932H546.406V101.686C546.406 101.017 545.976 100.683 545.114 100.683C544.905 100.683 544.636 100.714 544.308 100.775C543.98 100.833 543.651 100.917 543.323 101.028L542.874 99.7354C543.297 99.5754 543.736 99.4544 544.191 99.3723C544.65 99.2903 545.061 99.2492 545.422 99.2492C546.394 99.2492 547.112 99.4482 547.576 99.8462C548.043 100.24 548.277 100.81 548.277 101.557V104.117ZM545.225 104.818C545.434 104.818 545.654 104.757 545.883 104.634C546.113 104.507 546.287 104.328 546.406 104.098V103.04H545.926C545.385 103.04 544.987 103.124 544.733 103.292C544.478 103.456 544.351 103.698 544.351 104.018C544.351 104.269 544.427 104.466 544.579 104.609C544.735 104.749 544.95 104.818 545.225 104.818ZM552.977 96.0431C553.313 96.0431 553.588 96.1477 553.801 96.3569C554.015 96.5662 554.121 96.8267 554.121 97.1385C554.121 97.4503 554.015 97.7128 553.801 97.9262C553.588 98.1354 553.313 98.24 552.977 98.24C552.636 98.24 552.357 98.1354 552.14 97.9262C551.927 97.7128 551.82 97.4503 551.82 97.1385C551.82 96.8267 551.927 96.5662 552.14 96.3569C552.357 96.1477 552.636 96.0431 552.977 96.0431ZM554.152 99.4646V104.671H555.814V106H550.355V104.671H552.208V100.794H550.417V99.4646H554.152Z" fill="url(#paint3_linear_6_2)"/>
<path d="M404.98 39.48H408.68L406.88 34.24H406.84L404.98 39.48ZM405.28 30.72H408.5L413.84 45H410.58L409.5 41.82H404.16L403.04 45H399.88L405.28 30.72ZM418.211 37.44H420.651C421.011 37.44 421.358 37.4133 421.691 37.36C422.025 37.3067 422.318 37.2067 422.571 37.06C422.825 36.9 423.025 36.68 423.171 36.4C423.331 36.12 423.411 35.7533 423.411 35.3C423.411 34.8467 423.331 34.48 423.171 34.2C423.025 33.92 422.825 33.7067 422.571 33.56C422.318 33.4 422.025 33.2933 421.691 33.24C421.358 33.1867 421.011 33.16 420.651 33.16H418.211V37.44ZM415.071 30.72H421.511C422.405 30.72 423.165 30.8533 423.791 31.12C424.418 31.3733 424.925 31.7133 425.311 32.14C425.711 32.5667 425.998 33.0533 426.171 33.6C426.358 34.1467 426.451 34.7133 426.451 35.3C426.451 35.8733 426.358 36.44 426.171 37C425.998 37.5467 425.711 38.0333 425.311 38.46C424.925 38.8867 424.418 39.2333 423.791 39.5C423.165 39.7533 422.405 39.88 421.511 39.88H418.211V45H415.071V30.72ZM428.411 30.72H431.551V45H428.411V30.72ZM443.016 37.18H446.456C447.176 37.18 447.716 37.02 448.076 36.7C448.436 36.38 448.616 35.86 448.616 35.14C448.616 34.4467 448.436 33.9467 448.076 33.64C447.716 33.32 447.176 33.16 446.456 33.16H443.016V37.18ZM439.876 30.72H447.576C448.216 30.72 448.789 30.8267 449.296 31.04C449.816 31.24 450.256 31.52 450.616 31.88C450.989 32.24 451.269 32.66 451.456 33.14C451.656 33.6067 451.756 34.1133 451.756 34.66C451.756 35.5 451.576 36.2267 451.216 36.84C450.869 37.4533 450.296 37.92 449.496 38.24V38.28C449.883 38.3867 450.203 38.5533 450.456 38.78C450.709 38.9933 450.916 39.2533 451.076 39.56C451.236 39.8533 451.349 40.18 451.416 40.54C451.496 40.9 451.549 41.26 451.576 41.62C451.589 41.8467 451.603 42.1133 451.616 42.42C451.629 42.7267 451.649 43.04 451.676 43.36C451.716 43.68 451.769 43.9867 451.836 44.28C451.916 44.56 452.029 44.8 452.176 45H449.036C448.863 44.5467 448.756 44.0067 448.716 43.38C448.676 42.7533 448.616 42.1533 448.536 41.58C448.429 40.8333 448.203 40.2867 447.856 39.94C447.509 39.5933 446.943 39.42 446.156 39.42H443.016V45H439.876V30.72ZM460.97 38.72C460.836 38 460.596 37.4533 460.25 37.08C459.916 36.7067 459.403 36.52 458.71 36.52C458.256 36.52 457.876 36.6 457.57 36.76C457.276 36.9067 457.036 37.0933 456.85 37.32C456.676 37.5467 456.55 37.7867 456.47 38.04C456.403 38.2933 456.363 38.52 456.35 38.72H460.97ZM456.35 40.52C456.39 41.44 456.623 42.1067 457.05 42.52C457.476 42.9333 458.09 43.14 458.89 43.14C459.463 43.14 459.956 43 460.37 42.72C460.783 42.4267 461.036 42.12 461.13 41.8H463.63C463.23 43.04 462.616 43.9267 461.79 44.46C460.963 44.9933 459.963 45.26 458.79 45.26C457.976 45.26 457.243 45.1333 456.59 44.88C455.936 44.6133 455.383 44.24 454.93 43.76C454.476 43.28 454.123 42.7067 453.87 42.04C453.63 41.3733 453.51 40.64 453.51 39.84C453.51 39.0667 453.636 38.3467 453.89 37.68C454.143 37.0133 454.503 36.44 454.97 35.96C455.436 35.4667 455.99 35.08 456.63 34.8C457.283 34.52 458.003 34.38 458.79 34.38C459.67 34.38 460.436 34.5533 461.09 34.9C461.743 35.2333 462.276 35.6867 462.69 36.26C463.116 36.8333 463.423 37.4867 463.61 38.22C463.796 38.9533 463.863 39.72 463.81 40.52H456.35ZM467.694 41.64C467.694 41.9467 467.754 42.2133 467.874 42.44C468.007 42.6533 468.174 42.8333 468.374 42.98C468.574 43.1133 468.801 43.2133 469.054 43.28C469.321 43.3467 469.594 43.38 469.874 43.38C470.074 43.38 470.281 43.36 470.494 43.32C470.721 43.2667 470.921 43.1933 471.094 43.1C471.281 42.9933 471.434 42.86 471.554 42.7C471.674 42.5267 471.734 42.3133 471.734 42.06C471.734 41.6333 471.447 41.3133 470.874 41.1C470.314 40.8867 469.527 40.6733 468.514 40.46C468.101 40.3667 467.694 40.26 467.294 40.14C466.907 40.0067 466.561 39.84 466.254 39.64C465.947 39.4267 465.701 39.1667 465.514 38.86C465.327 38.54 465.234 38.1533 465.234 37.7C465.234 37.0333 465.361 36.4867 465.614 36.06C465.881 35.6333 466.227 35.3 466.654 35.06C467.081 34.8067 467.561 34.6333 468.094 34.54C468.627 34.4333 469.174 34.38 469.734 34.38C470.294 34.38 470.834 34.4333 471.354 34.54C471.887 34.6467 472.361 34.8267 472.774 35.08C473.187 35.3333 473.527 35.6733 473.794 36.1C474.074 36.5133 474.241 37.04 474.294 37.68H471.594C471.554 37.1333 471.347 36.7667 470.974 36.58C470.601 36.38 470.161 36.28 469.654 36.28C469.494 36.28 469.321 36.2933 469.134 36.32C468.947 36.3333 468.774 36.3733 468.614 36.44C468.467 36.5067 468.341 36.6067 468.234 36.74C468.127 36.86 468.074 37.0267 468.074 37.24C468.074 37.4933 468.167 37.7 468.354 37.86C468.541 38.02 468.781 38.1533 469.074 38.26C469.381 38.3533 469.727 38.44 470.114 38.52C470.501 38.6 470.894 38.6867 471.294 38.78C471.707 38.8733 472.107 38.9867 472.494 39.12C472.894 39.2533 473.247 39.4333 473.554 39.66C473.861 39.8733 474.107 40.1467 474.294 40.48C474.481 40.8 474.574 41.2 474.574 41.68C474.574 42.36 474.434 42.9333 474.154 43.4C473.887 43.8533 473.534 44.22 473.094 44.5C472.654 44.78 472.147 44.9733 471.574 45.08C471.014 45.2 470.441 45.26 469.854 45.26C469.254 45.26 468.667 45.2 468.094 45.08C467.521 44.96 467.007 44.76 466.554 44.48C466.114 44.2 465.747 43.8333 465.454 43.38C465.174 42.9133 465.021 42.3333 464.994 41.64H467.694ZM481.456 43.14C481.923 43.14 482.31 43.0467 482.616 42.86C482.936 42.6733 483.19 42.4333 483.376 42.14C483.576 41.8333 483.716 41.48 483.796 41.08C483.876 40.68 483.916 40.2733 483.916 39.86C483.916 39.4467 483.87 39.04 483.776 38.64C483.696 38.24 483.556 37.8867 483.356 37.58C483.156 37.26 482.896 37.0067 482.576 36.82C482.27 36.62 481.89 36.52 481.436 36.52C480.97 36.52 480.576 36.62 480.256 36.82C479.95 37.0067 479.696 37.2533 479.496 37.56C479.31 37.8667 479.176 38.22 479.096 38.62C479.016 39.02 478.976 39.4333 478.976 39.86C478.976 40.2733 479.016 40.68 479.096 41.08C479.19 41.48 479.33 41.8333 479.516 42.14C479.716 42.4333 479.976 42.6733 480.296 42.86C480.616 43.0467 481.003 43.14 481.456 43.14ZM476.236 34.66H478.936V35.98H478.976C479.323 35.42 479.763 35.0133 480.296 34.76C480.83 34.5067 481.416 34.38 482.056 34.38C482.87 34.38 483.57 34.5333 484.156 34.84C484.743 35.1467 485.23 35.5533 485.616 36.06C486.003 36.5667 486.29 37.16 486.476 37.84C486.663 38.5067 486.756 39.2067 486.756 39.94C486.756 40.6333 486.663 41.3 486.476 41.94C486.29 42.58 486.003 43.1467 485.616 43.64C485.243 44.1333 484.77 44.5267 484.196 44.82C483.636 45.1133 482.976 45.26 482.216 45.26C481.576 45.26 480.983 45.1333 480.436 44.88C479.903 44.6133 479.463 44.2267 479.116 43.72H479.076V48.62H476.236V34.66ZM490.983 39.84C490.983 40.2533 491.023 40.66 491.103 41.06C491.183 41.4467 491.316 41.8 491.503 42.12C491.703 42.4267 491.963 42.6733 492.283 42.86C492.603 43.0467 493.003 43.14 493.483 43.14C493.963 43.14 494.363 43.0467 494.683 42.86C495.016 42.6733 495.276 42.4267 495.463 42.12C495.663 41.8 495.803 41.4467 495.883 41.06C495.963 40.66 496.003 40.2533 496.003 39.84C496.003 39.4267 495.963 39.02 495.883 38.62C495.803 38.22 495.663 37.8667 495.463 37.56C495.276 37.2533 495.016 37.0067 494.683 36.82C494.363 36.62 493.963 36.52 493.483 36.52C493.003 36.52 492.603 36.62 492.283 36.82C491.963 37.0067 491.703 37.2533 491.503 37.56C491.316 37.8667 491.183 38.22 491.103 38.62C491.023 39.02 490.983 39.4267 490.983 39.84ZM488.143 39.84C488.143 39.0133 488.269 38.2667 488.523 37.6C488.776 36.92 489.136 36.3467 489.603 35.88C490.069 35.4 490.629 35.0333 491.283 34.78C491.936 34.5133 492.669 34.38 493.483 34.38C494.296 34.38 495.029 34.5133 495.683 34.78C496.349 35.0333 496.916 35.4 497.383 35.88C497.849 36.3467 498.209 36.92 498.463 37.6C498.716 38.2667 498.843 39.0133 498.843 39.84C498.843 40.6667 498.716 41.4133 498.463 42.08C498.209 42.7467 497.849 43.32 497.383 43.8C496.916 44.2667 496.349 44.6267 495.683 44.88C495.029 45.1333 494.296 45.26 493.483 45.26C492.669 45.26 491.936 45.1333 491.283 44.88C490.629 44.6267 490.069 44.2667 489.603 43.8C489.136 43.32 488.776 42.7467 488.523 42.08C488.269 41.4133 488.143 40.6667 488.143 39.84ZM500.689 34.66H503.389V36.1H503.449C503.809 35.5 504.276 35.0667 504.849 34.8C505.423 34.52 506.009 34.38 506.609 34.38C507.369 34.38 507.989 34.4867 508.469 34.7C508.963 34.9 509.349 35.1867 509.629 35.56C509.909 35.92 510.103 36.3667 510.209 36.9C510.329 37.42 510.389 38 510.389 38.64V45H507.549V39.16C507.549 38.3067 507.416 37.6733 507.149 37.26C506.883 36.8333 506.409 36.62 505.729 36.62C504.956 36.62 504.396 36.8533 504.049 37.32C503.703 37.7733 503.529 38.5267 503.529 39.58V45H500.689V34.66ZM514.745 41.64C514.745 41.9467 514.805 42.2133 514.925 42.44C515.058 42.6533 515.225 42.8333 515.425 42.98C515.625 43.1133 515.852 43.2133 516.105 43.28C516.372 43.3467 516.645 43.38 516.925 43.38C517.125 43.38 517.332 43.36 517.545 43.32C517.772 43.2667 517.972 43.1933 518.145 43.1C518.332 42.9933 518.485 42.86 518.605 42.7C518.725 42.5267 518.785 42.3133 518.785 42.06C518.785 41.6333 518.498 41.3133 517.925 41.1C517.365 40.8867 516.578 40.6733 515.565 40.46C515.152 40.3667 514.745 40.26 514.345 40.14C513.958 40.0067 513.612 39.84 513.305 39.64C512.998 39.4267 512.752 39.1667 512.565 38.86C512.378 38.54 512.285 38.1533 512.285 37.7C512.285 37.0333 512.412 36.4867 512.665 36.06C512.932 35.6333 513.278 35.3 513.705 35.06C514.132 34.8067 514.612 34.6333 515.145 34.54C515.678 34.4333 516.225 34.38 516.785 34.38C517.345 34.38 517.885 34.4333 518.405 34.54C518.938 34.6467 519.412 34.8267 519.825 35.08C520.238 35.3333 520.578 35.6733 520.845 36.1C521.125 36.5133 521.292 37.04 521.345 37.68H518.645C518.605 37.1333 518.398 36.7667 518.025 36.58C517.652 36.38 517.212 36.28 516.705 36.28C516.545 36.28 516.372 36.2933 516.185 36.32C515.998 36.3333 515.825 36.3733 515.665 36.44C515.518 36.5067 515.392 36.6067 515.285 36.74C515.178 36.86 515.125 37.0267 515.125 37.24C515.125 37.4933 515.218 37.7 515.405 37.86C515.592 38.02 515.832 38.1533 516.125 38.26C516.432 38.3533 516.778 38.44 517.165 38.52C517.552 38.6 517.945 38.6867 518.345 38.78C518.758 38.8733 519.158 38.9867 519.545 39.12C519.945 39.2533 520.298 39.4333 520.605 39.66C520.912 39.8733 521.158 40.1467 521.345 40.48C521.532 40.8 521.625 41.2 521.625 41.68C521.625 42.36 521.485 42.9333 521.205 43.4C520.938 43.8533 520.585 44.22 520.145 44.5C519.705 44.78 519.198 44.9733 518.625 45.08C518.065 45.2 517.492 45.26 516.905 45.26C516.305 45.26 515.718 45.2 515.145 45.08C514.572 44.96 514.058 44.76 513.605 44.48C513.165 44.2 512.798 43.8333 512.505 43.38C512.225 42.9133 512.072 42.3333 512.045 41.64H514.745ZM530.247 38.72C530.114 38 529.874 37.4533 529.527 37.08C529.194 36.7067 528.68 36.52 527.987 36.52C527.534 36.52 527.154 36.6 526.847 36.76C526.554 36.9067 526.314 37.0933 526.127 37.32C525.954 37.5467 525.827 37.7867 525.747 38.04C525.68 38.2933 525.64 38.52 525.627 38.72H530.247ZM525.627 40.52C525.667 41.44 525.9 42.1067 526.327 42.52C526.754 42.9333 527.367 43.14 528.167 43.14C528.74 43.14 529.234 43 529.647 42.72C530.06 42.4267 530.314 42.12 530.407 41.8H532.907C532.507 43.04 531.894 43.9267 531.067 44.46C530.24 44.9933 529.24 45.26 528.067 45.26C527.254 45.26 526.52 45.1333 525.867 44.88C525.214 44.6133 524.66 44.24 524.207 43.76C523.754 43.28 523.4 42.7067 523.147 42.04C522.907 41.3733 522.787 40.64 522.787 39.84C522.787 39.0667 522.914 38.3467 523.167 37.68C523.42 37.0133 523.78 36.44 524.247 35.96C524.714 35.4667 525.267 35.08 525.907 34.8C526.56 34.52 527.28 34.38 528.067 34.38C528.947 34.38 529.714 34.5533 530.367 34.9C531.02 35.2333 531.554 35.6867 531.967 36.26C532.394 36.8333 532.7 37.4867 532.887 38.22C533.074 38.9533 533.14 39.72 533.087 40.52H525.627ZM543.798 33.36H539.518V30.72H551.218V33.36H546.938V45H543.798V33.36ZM555.484 33.06H552.644V30.72H555.484V33.06ZM552.644 34.66H555.484V45H552.644V34.66ZM557.801 34.66H560.481V36.06H560.521C560.894 35.5267 561.341 35.1133 561.861 34.82C562.394 34.5267 563.001 34.38 563.681 34.38C564.334 34.38 564.927 34.5067 565.461 34.76C566.007 35.0133 566.421 35.46 566.701 36.1C567.007 35.6467 567.421 35.2467 567.941 34.9C568.474 34.5533 569.101 34.38 569.821 34.38C570.367 34.38 570.874 34.4467 571.341 34.58C571.807 34.7133 572.207 34.9267 572.541 35.22C572.874 35.5133 573.134 35.9 573.321 36.38C573.507 36.8467 573.601 37.4133 573.601 38.08V45H570.761V39.14C570.761 38.7933 570.747 38.4667 570.721 38.16C570.694 37.8533 570.621 37.5867 570.501 37.36C570.381 37.1333 570.201 36.9533 569.961 36.82C569.734 36.6867 569.421 36.62 569.021 36.62C568.621 36.62 568.294 36.7 568.041 36.86C567.801 37.0067 567.607 37.2067 567.461 37.46C567.327 37.7 567.234 37.98 567.181 38.3C567.141 38.6067 567.121 38.92 567.121 39.24V45H564.281V39.2C564.281 38.8933 564.274 38.5933 564.261 38.3C564.247 37.9933 564.187 37.7133 564.081 37.46C563.987 37.2067 563.821 37.0067 563.581 36.86C563.354 36.7 563.014 36.62 562.561 36.62C562.427 36.62 562.247 36.6533 562.021 36.72C561.807 36.7733 561.594 36.8867 561.381 37.06C561.181 37.22 561.007 37.46 560.861 37.78C560.714 38.0867 560.641 38.4933 560.641 39V45H557.801V34.66ZM582.806 38.72C582.672 38 582.432 37.4533 582.086 37.08C581.752 36.7067 581.239 36.52 580.546 36.52C580.092 36.52 579.712 36.6 579.406 36.76C579.112 36.9067 578.872 37.0933 578.686 37.32C578.512 37.5467 578.386 37.7867 578.306 38.04C578.239 38.2933 578.199 38.52 578.186 38.72H582.806ZM578.186 40.52C578.226 41.44 578.459 42.1067 578.886 42.52C579.312 42.9333 579.926 43.14 580.726 43.14C581.299 43.14 581.792 43 582.206 42.72C582.619 42.4267 582.872 42.12 582.966 41.8H585.466C585.066 43.04 584.452 43.9267 583.626 44.46C582.799 44.9933 581.799 45.26 580.626 45.26C579.812 45.26 579.079 45.1333 578.426 44.88C577.772 44.6133 577.219 44.24 576.766 43.76C576.312 43.28 575.959 42.7067 575.706 42.04C575.466 41.3733 575.346 40.64 575.346 39.84C575.346 39.0667 575.472 38.3467 575.726 37.68C575.979 37.0133 576.339 36.44 576.806 35.96C577.272 35.4667 577.826 35.08 578.466 34.8C579.119 34.52 579.839 34.38 580.626 34.38C581.506 34.38 582.272 34.5533 582.926 34.9C583.579 35.2333 584.112 35.6867 584.526 36.26C584.952 36.8333 585.259 37.4867 585.446 38.22C585.632 38.9533 585.699 39.72 585.646 40.52H578.186ZM597.876 30.38C597.116 31.7933 596.563 33.2667 596.216 34.8C595.87 36.32 595.696 37.8667 595.696 39.44C595.696 41.04 595.863 42.6067 596.196 44.14C596.543 45.6733 597.096 47.1667 597.856 48.62H595.496C594.656 47.2467 594.003 45.8 593.536 44.28C593.083 42.76 592.856 41.2133 592.856 39.64C592.856 38.8933 592.91 38.1133 593.016 37.3C593.136 36.4733 593.303 35.6533 593.516 34.84C593.743 34.0267 594.016 33.24 594.336 32.48C594.67 31.72 595.056 31.02 595.496 30.38H597.876ZM599.114 30.72H602.254V42.36H609.214V45H599.114V30.72ZM613.19 39.84C613.19 40.2533 613.23 40.66 613.31 41.06C613.39 41.4467 613.523 41.8 613.71 42.12C613.91 42.4267 614.17 42.6733 614.49 42.86C614.81 43.0467 615.21 43.14 615.69 43.14C616.17 43.14 616.57 43.0467 616.89 42.86C617.223 42.6733 617.483 42.4267 617.67 42.12C617.87 41.8 618.01 41.4467 618.09 41.06C618.17 40.66 618.21 40.2533 618.21 39.84C618.21 39.4267 618.17 39.02 618.09 38.62C618.01 38.22 617.87 37.8667 617.67 37.56C617.483 37.2533 617.223 37.0067 616.89 36.82C616.57 36.62 616.17 36.52 615.69 36.52C615.21 36.52 614.81 36.62 614.49 36.82C614.17 37.0067 613.91 37.2533 613.71 37.56C613.523 37.8667 613.39 38.22 613.31 38.62C613.23 39.02 613.19 39.4267 613.19 39.84ZM610.35 39.84C610.35 39.0133 610.477 38.2667 610.73 37.6C610.983 36.92 611.343 36.3467 611.81 35.88C612.277 35.4 612.837 35.0333 613.49 34.78C614.143 34.5133 614.877 34.38 615.69 34.38C616.503 34.38 617.237 34.5133 617.89 34.78C618.557 35.0333 619.123 35.4 619.59 35.88C620.057 36.3467 620.417 36.92 620.67 37.6C620.923 38.2667 621.05 39.0133 621.05 39.84C621.05 40.6667 620.923 41.4133 620.67 42.08C620.417 42.7467 620.057 43.32 619.59 43.8C619.123 44.2667 618.557 44.6267 617.89 44.88C617.237 45.1333 616.503 45.26 615.69 45.26C614.877 45.26 614.143 45.1333 613.49 44.88C612.837 44.6267 612.277 44.2667 611.81 43.8C611.343 43.32 610.983 42.7467 610.73 42.08C610.477 41.4133 610.35 40.6667 610.35 39.84ZM634.716 45H631.796L629.956 38.06H629.916L628.156 45H625.216L621.936 34.66H624.936L626.836 41.68H626.876L628.596 34.66H631.356L633.116 41.66H633.156L635.056 34.66H637.976L634.716 45ZM646.145 38.72C646.012 38 645.772 37.4533 645.425 37.08C645.092 36.7067 644.579 36.52 643.885 36.52C643.432 36.52 643.052 36.6 642.745 36.76C642.452 36.9067 642.212 37.0933 642.025 37.32C641.852 37.5467 641.725 37.7867 641.645 38.04C641.579 38.2933 641.539 38.52 641.525 38.72H646.145ZM641.525 40.52C641.565 41.44 641.799 42.1067 642.225 42.52C642.652 42.9333 643.265 43.14 644.065 43.14C644.639 43.14 645.132 43 645.545 42.72C645.959 42.4267 646.212 42.12 646.305 41.8H648.805C648.405 43.04 647.792 43.9267 646.965 44.46C646.139 44.9933 645.139 45.26 643.965 45.26C643.152 45.26 642.419 45.1333 641.765 44.88C641.112 44.6133 640.559 44.24 640.105 43.76C639.652 43.28 639.299 42.7067 639.045 42.04C638.805 41.3733 638.685 40.64 638.685 39.84C638.685 39.0667 638.812 38.3467 639.065 37.68C639.319 37.0133 639.679 36.44 640.145 35.96C640.612 35.4667 641.165 35.08 641.805 34.8C642.459 34.52 643.179 34.38 643.965 34.38C644.845 34.38 645.612 34.5533 646.265 34.9C646.919 35.2333 647.452 35.6867 647.865 36.26C648.292 36.8333 648.599 37.4867 648.785 38.22C648.972 38.9533 649.039 39.72 648.985 40.52H641.525ZM650.67 34.66H653.37V36.58H653.41C653.543 36.26 653.723 35.9667 653.95 35.7C654.177 35.42 654.437 35.1867 654.73 35C655.023 34.8 655.337 34.6467 655.67 34.54C656.003 34.4333 656.35 34.38 656.71 34.38C656.897 34.38 657.103 34.4133 657.33 34.48V37.12C657.197 37.0933 657.037 37.0733 656.85 37.06C656.663 37.0333 656.483 37.02 656.31 37.02C655.79 37.02 655.35 37.1067 654.99 37.28C654.63 37.4533 654.337 37.6933 654.11 38C653.897 38.2933 653.743 38.64 653.65 39.04C653.557 39.44 653.51 39.8733 653.51 40.34V45H650.67V34.66ZM666.93 33.06H664.09V30.72H666.93V33.06ZM664.09 34.66H666.93V45H664.09V34.66ZM671.366 41.64C671.366 41.9467 671.426 42.2133 671.546 42.44C671.679 42.6533 671.846 42.8333 672.046 42.98C672.246 43.1133 672.473 43.2133 672.726 43.28C672.993 43.3467 673.266 43.38 673.546 43.38C673.746 43.38 673.953 43.36 674.166 43.32C674.393 43.2667 674.593 43.1933 674.766 43.1C674.953 42.9933 675.106 42.86 675.226 42.7C675.346 42.5267 675.406 42.3133 675.406 42.06C675.406 41.6333 675.119 41.3133 674.546 41.1C673.986 40.8867 673.199 40.6733 672.186 40.46C671.773 40.3667 671.366 40.26 670.966 40.14C670.579 40.0067 670.233 39.84 669.926 39.64C669.619 39.4267 669.373 39.1667 669.186 38.86C668.999 38.54 668.906 38.1533 668.906 37.7C668.906 37.0333 669.033 36.4867 669.286 36.06C669.553 35.6333 669.899 35.3 670.326 35.06C670.753 34.8067 671.233 34.6333 671.766 34.54C672.299 34.4333 672.846 34.38 673.406 34.38C673.966 34.38 674.506 34.4333 675.026 34.54C675.559 34.6467 676.033 34.8267 676.446 35.08C676.859 35.3333 677.199 35.6733 677.466 36.1C677.746 36.5133 677.913 37.04 677.966 37.68H675.266C675.226 37.1333 675.019 36.7667 674.646 36.58C674.273 36.38 673.833 36.28 673.326 36.28C673.166 36.28 672.993 36.2933 672.806 36.32C672.619 36.3333 672.446 36.3733 672.286 36.44C672.139 36.5067 672.013 36.6067 671.906 36.74C671.799 36.86 671.746 37.0267 671.746 37.24C671.746 37.4933 671.839 37.7 672.026 37.86C672.213 38.02 672.453 38.1533 672.746 38.26C673.053 38.3533 673.399 38.44 673.786 38.52C674.173 38.6 674.566 38.6867 674.966 38.78C675.379 38.8733 675.779 38.9867 676.166 39.12C676.566 39.2533 676.919 39.4333 677.226 39.66C677.533 39.8733 677.779 40.1467 677.966 40.48C678.153 40.8 678.246 41.2 678.246 41.68C678.246 42.36 678.106 42.9333 677.826 43.4C677.559 43.8533 677.206 44.22 676.766 44.5C676.326 44.78 675.819 44.9733 675.246 45.08C674.686 45.2 674.113 45.26 673.526 45.26C672.926 45.26 672.339 45.2 671.766 45.08C671.193 44.96 670.679 44.76 670.226 44.48C669.786 44.2 669.419 43.8333 669.126 43.38C668.846 42.9133 668.693 42.3333 668.666 41.64H671.366ZM693.055 39.84C693.055 39.4 693.008 38.98 692.915 38.58C692.821 38.18 692.675 37.8267 692.475 37.52C692.275 37.2133 692.021 36.9733 691.715 36.8C691.421 36.6133 691.061 36.52 690.635 36.52C690.221 36.52 689.861 36.6133 689.555 36.8C689.248 36.9733 688.995 37.2133 688.795 37.52C688.595 37.8267 688.448 38.18 688.355 38.58C688.261 38.98 688.215 39.4 688.215 39.84C688.215 40.2667 688.261 40.68 688.355 41.08C688.448 41.48 688.595 41.8333 688.795 42.14C688.995 42.4467 689.248 42.6933 689.555 42.88C689.861 43.0533 690.221 43.14 690.635 43.14C691.061 43.14 691.421 43.0533 691.715 42.88C692.021 42.6933 692.275 42.4467 692.475 42.14C692.675 41.8333 692.821 41.48 692.915 41.08C693.008 40.68 693.055 40.2667 693.055 39.84ZM685.475 30.72H688.315V35.92H688.355C688.701 35.3867 689.168 35 689.755 34.76C690.355 34.5067 690.975 34.38 691.615 34.38C692.135 34.38 692.648 34.4867 693.155 34.7C693.661 34.9133 694.115 35.24 694.515 35.68C694.928 36.12 695.261 36.6867 695.515 37.38C695.768 38.06 695.895 38.8733 695.895 39.82C695.895 40.7667 695.768 41.5867 695.515 42.28C695.261 42.96 694.928 43.52 694.515 43.96C694.115 44.4 693.661 44.7267 693.155 44.94C692.648 45.1533 692.135 45.26 691.615 45.26C690.855 45.26 690.175 45.14 689.575 44.9C688.975 44.66 688.521 44.2533 688.215 43.68H688.175V45H685.475V30.72ZM704.661 38.72C704.528 38 704.288 37.4533 703.941 37.08C703.608 36.7067 703.094 36.52 702.401 36.52C701.948 36.52 701.568 36.6 701.261 36.76C700.968 36.9067 700.728 37.0933 700.541 37.32C700.368 37.5467 700.241 37.7867 700.161 38.04C700.094 38.2933 700.054 38.52 700.041 38.72H704.661ZM700.041 40.52C700.081 41.44 700.314 42.1067 700.741 42.52C701.168 42.9333 701.781 43.14 702.581 43.14C703.154 43.14 703.648 43 704.061 42.72C704.474 42.4267 704.728 42.12 704.821 41.8H707.321C706.921 43.04 706.308 43.9267 705.481 44.46C704.654 44.9933 703.654 45.26 702.481 45.26C701.668 45.26 700.934 45.1333 700.281 44.88C699.628 44.6133 699.074 44.24 698.621 43.76C698.168 43.28 697.814 42.7067 697.561 42.04C697.321 41.3733 697.201 40.64 697.201 39.84C697.201 39.0667 697.328 38.3467 697.581 37.68C697.834 37.0133 698.194 36.44 698.661 35.96C699.128 35.4667 699.681 35.08 700.321 34.8C700.974 34.52 701.694 34.38 702.481 34.38C703.361 34.38 704.128 34.5533 704.781 34.9C705.434 35.2333 705.968 35.6867 706.381 36.26C706.808 36.8333 707.114 37.4867 707.301 38.22C707.488 38.9533 707.554 39.72 707.501 40.52H700.041ZM712.785 34.66H714.865V36.56H712.785V41.68C712.785 42.16 712.865 42.48 713.025 42.64C713.185 42.8 713.505 42.88 713.985 42.88C714.145 42.88 714.299 42.8733 714.445 42.86C714.592 42.8467 714.732 42.8267 714.865 42.8V45C714.625 45.04 714.359 45.0667 714.065 45.08C713.772 45.0933 713.485 45.1 713.205 45.1C712.765 45.1 712.345 45.0667 711.945 45C711.559 44.9467 711.212 44.8333 710.905 44.66C710.612 44.4867 710.379 44.24 710.205 43.92C710.032 43.6 709.945 43.18 709.945 42.66V36.56H708.225V34.66H709.945V31.56H712.785V34.66ZM719.817 34.66H721.897V36.56H719.817V41.68C719.817 42.16 719.897 42.48 720.057 42.64C720.217 42.8 720.537 42.88 721.017 42.88C721.177 42.88 721.33 42.8733 721.477 42.86C721.623 42.8467 721.763 42.8267 721.897 42.8V45C721.657 45.04 721.39 45.0667 721.097 45.08C720.803 45.0933 720.517 45.1 720.237 45.1C719.797 45.1 719.377 45.0667 718.977 45C718.59 44.9467 718.243 44.8333 717.937 44.66C717.643 44.4867 717.41 44.24 717.237 43.92C717.063 43.6 716.977 43.18 716.977 42.66V36.56H715.257V34.66H716.977V31.56H719.817V34.66ZM730.208 38.72C730.075 38 729.835 37.4533 729.488 37.08C729.155 36.7067 728.641 36.52 727.948 36.52C727.495 36.52 727.115 36.6 726.808 36.76C726.515 36.9067 726.275 37.0933 726.088 37.32C725.915 37.5467 725.788 37.7867 725.708 38.04C725.641 38.2933 725.601 38.52 725.588 38.72H730.208ZM725.588 40.52C725.628 41.44 725.861 42.1067 726.288 42.52C726.715 42.9333 727.328 43.14 728.128 43.14C728.701 43.14 729.195 43 729.608 42.72C730.021 42.4267 730.275 42.12 730.368 41.8H732.868C732.468 43.04 731.855 43.9267 731.028 44.46C730.201 44.9933 729.201 45.26 728.028 45.26C727.215 45.26 726.481 45.1333 725.828 44.88C725.175 44.6133 724.621 44.24 724.168 43.76C723.715 43.28 723.361 42.7067 723.108 42.04C722.868 41.3733 722.748 40.64 722.748 39.84C722.748 39.0667 722.875 38.3467 723.128 37.68C723.381 37.0133 723.741 36.44 724.208 35.96C724.675 35.4667 725.228 35.08 725.868 34.8C726.521 34.52 727.241 34.38 728.028 34.38C728.908 34.38 729.675 34.5533 730.328 34.9C730.981 35.2333 731.515 35.6867 731.928 36.26C732.355 36.8333 732.661 37.4867 732.848 38.22C733.035 38.9533 733.101 39.72 733.048 40.52H725.588ZM734.732 34.66H737.432V36.58H737.472C737.606 36.26 737.786 35.9667 738.012 35.7C738.239 35.42 738.499 35.1867 738.792 35C739.086 34.8 739.399 34.6467 739.732 34.54C740.066 34.4333 740.412 34.38 740.772 34.38C740.959 34.38 741.166 34.4133 741.392 34.48V37.12C741.259 37.0933 741.099 37.0733 740.912 37.06C740.726 37.0333 740.546 37.02 740.372 37.02C739.852 37.02 739.412 37.1067 739.052 37.28C738.692 37.4533 738.399 37.6933 738.172 38C737.959 38.2933 737.806 38.64 737.712 39.04C737.619 39.44 737.572 39.8733 737.572 40.34V45H734.732V34.66ZM741.306 48.62C742.039 47.2067 742.579 45.7467 742.926 44.24C743.286 42.72 743.466 41.1733 743.466 39.6C743.466 38 743.292 36.4267 742.946 34.88C742.599 33.3333 742.059 31.8333 741.326 30.38H743.666C744.506 31.7533 745.152 33.2067 745.606 34.74C746.072 36.2733 746.306 37.8267 746.306 39.4C746.306 40.1467 746.252 40.9333 746.146 41.76C746.039 42.5733 745.872 43.3867 745.646 44.2C745.432 45 745.159 45.78 744.826 46.54C744.492 47.3 744.106 47.9933 743.666 48.62H741.306Z" fill="black"/>
<defs>
<linearGradient id="paint0_linear_6_2" x1="16" y1="81" x2="28.2963" y2="83.1199" gradientUnits="userSpaceOnUse">
<stop stop-color="#F2974A"/>
<stop offset="0.5" stop-color="#9C72C9"/>
<stop offset="1" stop-color="#3699DF"/>
</linearGradient>
<linearGradient id="paint1_linear_6_2" x1="24" y1="95" x2="122.5" y2="106" gradientUnits="userSpaceOnUse">
<stop stop-color="#EF964F"/>
<stop offset="0.5" stop-color="#A677BB"/>
<stop offset="1" stop-color="#598CD8"/>
</linearGradient>
<linearGradient id="paint2_linear_6_2" x1="403" y1="81" x2="423.629" y2="148.102" gradientUnits="userSpaceOnUse">
<stop stop-color="#F2974A"/>
<stop offset="0.5" stop-color="#9C72C9"/>
<stop offset="1" stop-color="#3699DF"/>
</linearGradient>
<linearGradient id="paint3_linear_6_2" x1="505" y1="95" x2="526.468" y2="95.5164" gradientUnits="userSpaceOnUse">
<stop stop-color="#EF964F"/>
<stop offset="0.5" stop-color="#A677BB"/>
<stop offset="1" stop-color="#598CD8"/>
</linearGradient>
</defs>
</svg>
